<?xml version="1.0" encoding="utf-8"?>
<!-- Generator: Adobe Illustrator 26.0.0, SVG Export Plug-In . SVG Version: 6.00 Build 0)  -->
<svg version="1.1" id="Layer_1" xmlns="http://www.w3.org/2000/svg" xmlns:xlink="http://www.w3.org/1999/xlink" x="0px" y="0px"
	 viewBox="0 0 365.4 314.5" style="enable-background:new 0 0 365.4 314.5;" xml:space="preserve">
<style type="text/css">
	.st0{fill:url(#SVGID_1_);}
	.st1{fill:url(#SVGID_00000091719226365044088150000016025922981808618912_);}
	.st2{fill:url(#SVGID_00000026866312269803160090000009188233541633076373_);}
	.st3{fill:url(#SVGID_00000096744011132873149150000015087351281614303911_);}
	.st4{fill:url(#SVGID_00000052815654578201675790000006109075142058564016_);}
	.st5{fill:url(#SVGID_00000008857774330321813240000007536518794374138044_);}
	.st6{fill:url(#SVGID_00000018239475063689163410000010911503956669540793_);}
	.st7{fill:url(#SVGID_00000124867589957711936050000008604734633060647831_);}
</style>
<g id="Layer_2_00000072987826287888534020000018038045494908873344_">
	<g id="Layer_1-2">
		<linearGradient id="SVGID_1_" gradientUnits="userSpaceOnUse" x1="-14.1858" y1="347.7416" x2="267.8142" y2="115.7416">
			<stop  offset="5.540901e-07" style="stop-color:#5CFFFF"/>
			<stop  offset="1" style="stop-color:#0065BF"/>
		</linearGradient>
		<path class="st0" d="M250.8,57c15.7,0.5,28.6,6.9,36.1,20.9c15.2,28.4,30,57,44.1,85.9c9.9,20.1,1.2,43.8-19.2,54.6
			c-24.5,12.8-49.1,25.3-73.7,37.9c-34.1,17.5-68.3,35-102.4,52.5c-23.6,12-47.5,4.4-59.6-19.1c-13.4-26.1-26.8-52.2-40.1-78.3
			c-11.8-23.1-4.1-47.2,18.9-59c58.3-30,116.6-60,174.9-89.9C236.4,59.1,243.2,56.8,250.8,57z M116.2,289.6c2.8-0.8,5.5-1.8,8.1-3
			c58.2-29.8,116.4-59.7,174.6-89.6c11-5.7,14-14.8,8.4-25.8c-13.3-26-26.7-52-40-77.9c-6-11.7-14.9-14.4-26.7-8.4l-97,49.8
			c-26,13.3-52,26.7-77.9,40c-9.2,4.7-13,14-8.6,22.7c14,27.9,28.3,55.6,42.7,83.3C102.7,286.6,108,289.4,116.2,289.6z"/>
		
			<linearGradient id="SVGID_00000036970038480229370540000013954829686149408944_" gradientUnits="userSpaceOnUse" x1="-137.9194" y1="197.3412" x2="144.0806" y2="-34.6588">
			<stop  offset="5.540901e-07" style="stop-color:#5CFFFF"/>
			<stop  offset="1" style="stop-color:#0065BF"/>
		</linearGradient>
		<path style="fill:url(#SVGID_00000036970038480229370540000013954829686149408944_);" d="M13.6,0H38v125.3H13.6V0z"/>
		
			<linearGradient id="SVGID_00000090997798157233797320000009835008816161043331_" gradientUnits="userSpaceOnUse" x1="-114.5093" y1="225.7966" x2="167.4907" y2="-6.2034">
			<stop  offset="5.540901e-07" style="stop-color:#5CFFFF"/>
			<stop  offset="1" style="stop-color:#0065BF"/>
		</linearGradient>
		<path style="fill:url(#SVGID_00000090997798157233797320000009835008816161043331_);" d="M66.4,31.3h24.1v71.5H66.4V31.3z"/>
		
			<linearGradient id="SVGID_00000073694755136706630600000010773733090140567182_" gradientUnits="userSpaceOnUse" x1="9.5471" y1="376.5893" x2="291.5471" y2="144.5893">
			<stop  offset="5.540901e-07" style="stop-color:#5CFFFF"/>
			<stop  offset="1" style="stop-color:#0065BF"/>
		</linearGradient>
		<path style="fill:url(#SVGID_00000073694755136706630600000010773733090140567182_);" d="M312.7,81.5l22.1-11.4l30.5,59.5
			L343.2,141C333,121.1,323,101.5,312.7,81.5z"/>
		
			<linearGradient id="SVGID_00000088109525221652987350000015993263811260835258_" gradientUnits="userSpaceOnUse" x1="-37.9041" y1="318.9116" x2="244.0959" y2="86.9115">
			<stop  offset="5.540901e-07" style="stop-color:#5CFFFF"/>
			<stop  offset="1" style="stop-color:#0065BF"/>
		</linearGradient>
		<path style="fill:url(#SVGID_00000088109525221652987350000015993263811260835258_);" d="M52.7,290.1l-22.1,11.4
			C20.4,281.7,10.3,262,0,242l22.1-11.4L52.7,290.1z"/>
		
			<linearGradient id="SVGID_00000165227872730975609710000002182623498259166880_" gradientUnits="userSpaceOnUse" x1="-90.284" y1="255.2429" x2="191.716" y2="23.2429">
			<stop  offset="5.540901e-07" style="stop-color:#5CFFFF"/>
			<stop  offset="1" style="stop-color:#0065BF"/>
		</linearGradient>
		<path style="fill:url(#SVGID_00000165227872730975609710000002182623498259166880_);" d="M119.5,58.1h24.2v29.2h-24.2V58.1z"/>
		
			<linearGradient id="SVGID_00000021121146263510395060000003981230810464644482_" gradientUnits="userSpaceOnUse" x1="-5.1312" y1="358.7477" x2="276.8688" y2="126.7476">
			<stop  offset="5.540901e-07" style="stop-color:#5CFFFF"/>
			<stop  offset="1" style="stop-color:#0065BF"/>
		</linearGradient>
		<path style="fill:url(#SVGID_00000021121146263510395060000003981230810464644482_);" d="M259.2,146.1l21.1,6.9l-7.5,23.6
			l-21.2-6.7l-7,21.2l-23.5-7.6c2.3-7.2,4.4-14,6.7-21.2l-21.2-6.9l7.6-23.6l21.2,6.7c2.4-7.1,4.6-14,7-21.2l23.5,7.6L259.2,146.1z"
			/>
		
			<linearGradient id="SVGID_00000180331163250718346490000017711106173325292199_" gradientUnits="userSpaceOnUse" x1="-22.4412" y1="337.707" x2="259.5588" y2="105.707">
			<stop  offset="5.540901e-07" style="stop-color:#5CFFFF"/>
			<stop  offset="1" style="stop-color:#0065BF"/>
		</linearGradient>
		<path style="fill:url(#SVGID_00000180331163250718346490000017711106173325292199_);" d="M114,220.6l-21.2-6.9l7.6-23.6l21.2,6.7
			c2.3-6.9,4.5-13.8,7-21.2l23.6,7.5c-2.3,7.2-4.4,14.1-6.7,21.3l21.2,6.9c-2.6,8-5,15.5-7.6,23.6l-21.2-6.7c-2.3,7.1-4.6,14-7,21.2
			l-23.6-7.6C109.5,234.8,111.7,227.9,114,220.6z"/>
	</g>
</g>
</svg>
