<?xml version="1.0" encoding="utf-8"?>
<!-- Generator: Adobe Illustrator 26.0.0, SVG Export Plug-In . SVG Version: 6.00 Build 0)  -->
<svg version="1.1" id="Layer_1" xmlns="http://www.w3.org/2000/svg" xmlns:xlink="http://www.w3.org/1999/xlink" x="0px" y="0px"
	 viewBox="0 0 365.4 314.5" style="enable-background:new 0 0 365.4 314.5;" xml:space="preserve">
<style type="text/css">
	.st0{fill:#176346;}
	.st1{fill:#279367;}
	.st2{fill:#2CB888;}
	.st3{fill:#53F2B1;}
</style>
<g id="Layer_2_00000072987826287888534020000018038045494908873344_">
	<g id="Layer_1-2">
		<path class="st0" d="M250.8,57c15.7,0.5,28.6,6.9,36.1,20.9c15.2,28.4,30,57,44.1,85.9c9.9,20.1,1.2,43.8-19.2,54.6
			c-24.5,12.8-49.1,25.3-73.7,37.9c-34.1,17.5-68.3,35-102.4,52.5c-23.6,12-47.5,4.4-59.6-19.1c-13.4-26.1-26.8-52.2-40.1-78.3
			c-11.8-23.1-4.1-47.2,18.9-59c58.3-30,116.6-60,174.9-89.9C236.4,59.1,243.2,56.8,250.8,57z M116.2,289.6c2.8-0.8,5.5-1.8,8.1-3
			c58.2-29.8,116.4-59.7,174.6-89.6c11-5.7,14-14.8,8.4-25.8c-13.3-26-26.7-52-40-77.9c-6-11.7-14.9-14.4-26.7-8.4l-97,49.8
			c-26,13.3-52,26.7-77.9,40c-9.2,4.7-13,14-8.6,22.7c14,27.9,28.3,55.6,42.7,83.3C102.7,286.6,108,289.4,116.2,289.6z"/>
		<path class="st1" d="M13.6,0h24.4v125.3H13.6V0z"/>
		<path class="st1" d="M66.4,31.3h24.1v71.5H66.4V31.3z"/>
		<path class="st1" d="M312.7,81.5l22.1-11.4l30.5,59.5l-22.1,11.4C333,121.1,323,101.5,312.7,81.5z"/>
		<path class="st1" d="M52.7,290.1l-22.1,11.4C20.4,281.7,10.3,262,0,242l22.1-11.4L52.7,290.1z"/>
		<path class="st2" d="M119.5,58.1h24.2v29.2h-24.2V58.1z"/>
		<path class="st3" d="M259.2,146.1l21.1,6.9l-7.5,23.6l-21.2-6.7l-7,21.2l-23.5-7.6c2.3-7.2,4.4-14,6.7-21.2l-21.2-6.9l7.6-23.6
			l21.2,6.7c2.4-7.1,4.6-14,7-21.2l23.5,7.6L259.2,146.1z"/>
		<path class="st2" d="M114,220.6l-21.2-6.9l7.6-23.6l21.2,6.7c2.3-6.9,4.5-13.8,7-21.2l23.6,7.5c-2.3,7.2-4.4,14.1-6.7,21.3
			l21.2,6.9c-2.6,8-5,15.5-7.6,23.6l-21.2-6.7c-2.3,7.1-4.6,14-7,21.2l-23.6-7.6C109.5,234.8,111.7,227.9,114,220.6z"/>
	</g>
</g>
</svg>
