<svg width="560" height="83" viewBox="0 0 560 83" fill="none" xmlns="http://www.w3.org/2000/svg">
<rect width="560" height="82.8311" rx="18" fill="#D1FFD9"/>
<path d="M283.167 14.9087C283.167 14.2641 282.645 13.7415 282 13.7415C281.355 13.7415 280.833 14.2641 280.833 14.9087H283.167ZM280.833 14.9087V70.2211H283.167V14.9087H280.833Z" fill="#27BA89"/>
<path d="M60.3734 57.0603H49.6333V26.763H60.4622C63.5096 26.763 66.133 27.3696 68.3324 28.5826C70.5317 29.7859 72.2231 31.5167 73.4066 33.7752C74.5999 36.0337 75.1966 38.736 75.1966 41.8821C75.1966 45.038 74.5999 47.7502 73.4066 50.0186C72.2231 52.2869 70.5218 54.0276 68.3028 55.2407C66.0936 56.4538 63.4505 57.0603 60.3734 57.0603ZM56.0389 51.5719H60.1071C62.0007 51.5719 63.5935 51.2366 64.8854 50.5659C66.1873 49.8854 67.1637 48.8351 67.8146 47.4149C68.4754 45.9848 68.8057 44.1406 68.8057 41.8821C68.8057 39.6433 68.4754 37.8138 67.8146 36.3937C67.1637 34.9735 66.1922 33.9281 64.9002 33.2574C63.6083 32.5868 62.0155 32.2515 60.1219 32.2515H56.0389V51.5719ZM79.9416 57.0603V26.763H100.357V32.0443H86.3472V39.2636H99.3064V44.5449H86.3472V51.779H100.416V57.0603H79.9416ZM110.672 57.0603H103.807L114.266 26.763H122.521L132.966 57.0603H126.101L118.512 33.6864H118.276L110.672 57.0603ZM110.243 45.1515H126.456V50.1517H110.243V45.1515ZM147.352 57.0603H136.612V26.763H147.441C150.489 26.763 153.112 27.3696 155.311 28.5826C157.511 29.7859 159.202 31.5167 160.385 33.7752C161.579 36.0337 162.175 38.736 162.175 41.8821C162.175 45.038 161.579 47.7502 160.385 50.0186C159.202 52.2869 157.501 54.0276 155.282 55.2407C153.072 56.4538 150.429 57.0603 147.352 57.0603ZM143.018 51.5719H147.086C148.98 51.5719 150.572 51.2366 151.864 50.5659C153.166 49.8854 154.143 48.8351 154.793 47.4149C155.454 45.9848 155.785 44.1406 155.785 41.8821C155.785 39.6433 155.454 37.8138 154.793 36.3937C154.143 34.9735 153.171 33.9281 151.879 33.2574C150.587 32.5868 148.994 32.2515 147.101 32.2515H143.018V51.5719ZM166.921 57.0603V26.763H173.326V51.779H186.315V57.0603H166.921ZM196.963 26.763V57.0603H190.557V26.763H196.963ZM227.574 26.763V57.0603H222.041L208.86 37.9914H208.638V57.0603H202.233V26.763H207.854L220.932 45.8172H221.198V26.763H227.574ZM232.867 57.0603V26.763H253.282V32.0443H239.272V39.2636H252.231V44.5449H239.272V51.779H253.341V57.0603H232.867Z" fill="url(#paint0_linear_78_83)"/>
<path d="M319.692 57.0603V53.0956L330.211 42.7845C331.217 41.7687 332.055 40.8663 332.726 40.0773C333.396 39.2883 333.899 38.5239 334.235 37.7843C334.57 37.0446 334.738 36.2556 334.738 35.4173C334.738 34.4606 334.521 33.6421 334.087 32.9615C333.653 32.2712 333.056 31.7386 332.297 31.3638C331.537 30.9891 330.674 30.8017 329.708 30.8017C328.712 30.8017 327.839 31.0088 327.089 31.423C326.34 31.8274 325.758 32.4043 325.344 33.1539C324.939 33.9034 324.737 34.796 324.737 35.8315H319.515C319.515 33.9083 319.954 32.2367 320.832 30.8165C321.709 29.3963 322.917 28.2966 324.456 27.5175C326.004 26.7384 327.78 26.3488 329.782 26.3488C331.813 26.3488 333.598 26.7285 335.137 27.4879C336.675 28.2473 337.869 29.2878 338.717 30.6094C339.575 31.9309 340.004 33.4399 340.004 35.1362C340.004 36.2704 339.787 37.3848 339.353 38.4796C338.919 39.5743 338.155 40.7874 337.06 42.1188C335.975 43.4502 334.452 45.0627 332.489 46.9563L327.267 52.2672V52.4743H340.463V57.0603H319.692ZM356.662 57.4745C355.212 57.4647 353.797 57.2132 352.416 56.7201C351.035 56.2171 349.792 55.4034 348.688 54.2791C347.583 53.1449 346.706 51.6409 346.055 49.7671C345.404 47.8833 345.083 45.5509 345.093 42.7697C345.093 40.1759 345.369 37.8632 345.921 35.8315C346.474 33.7999 347.268 32.0838 348.303 30.6833C349.339 29.273 350.586 28.198 352.046 27.4583C353.516 26.7187 355.158 26.3488 356.972 26.3488C358.876 26.3488 360.562 26.7236 362.032 27.4731C363.511 28.2227 364.704 29.2484 365.612 30.5502C366.519 31.8422 367.081 33.3018 367.298 34.9291H361.899C361.622 33.7653 361.055 32.8383 360.197 32.1479C359.349 31.4477 358.274 31.0976 356.972 31.0976C354.872 31.0976 353.254 32.0098 352.12 33.8344C350.996 35.6589 350.429 38.164 350.419 41.3495H350.626C351.109 40.4816 351.735 39.737 352.505 39.1157C353.274 38.4943 354.142 38.016 355.108 37.6807C356.085 37.3355 357.115 37.1629 358.2 37.1629C359.975 37.1629 361.568 37.587 362.978 38.4352C364.399 39.2833 365.523 40.452 366.351 41.9413C367.18 43.4206 367.589 45.1169 367.579 47.0302C367.589 49.0225 367.135 50.8125 366.218 52.4003C365.301 53.9783 364.024 55.221 362.387 56.1283C360.75 57.0356 358.841 57.4844 356.662 57.4745ZM356.632 53.0364C357.707 53.0364 358.669 52.7751 359.517 52.2524C360.365 51.7297 361.036 51.0245 361.529 50.1369C362.022 49.2493 362.263 48.2532 362.254 47.1486C362.263 46.0637 362.027 45.0824 361.543 44.2047C361.07 43.3269 360.414 42.6316 359.576 42.1188C358.738 41.6059 357.781 41.3495 356.706 41.3495C355.907 41.3495 355.163 41.5024 354.472 41.8081C353.782 42.1138 353.18 42.5379 352.667 43.0804C352.154 43.6129 351.75 44.2343 351.454 44.9444C351.168 45.6446 351.02 46.3941 351.01 47.193C351.02 48.2483 351.267 49.2197 351.75 50.1073C352.233 50.9949 352.899 51.705 353.747 52.2376C354.595 52.7702 355.557 53.0364 356.632 53.0364ZM387.099 57.0603H381.241L391.907 26.763H398.683L409.364 57.0603H403.506L395.413 32.9763H395.177L387.099 57.0603ZM387.292 45.1811H403.269V49.5895H387.292V45.1811ZM413.354 57.0603V26.763H424.716C427.043 26.763 428.996 27.197 430.574 28.0649C432.162 28.9328 433.36 30.1261 434.169 31.6449C434.987 33.1539 435.397 34.8699 435.397 36.7931C435.397 38.736 434.987 40.4619 434.169 41.9708C433.35 43.4798 432.142 44.6682 430.544 45.5361C428.947 46.3941 426.979 46.8231 424.642 46.8231H417.112V42.3111H423.902C425.263 42.3111 426.378 42.0744 427.246 41.601C428.113 41.1276 428.754 40.4767 429.169 39.6482C429.593 38.8198 429.805 37.8681 429.805 36.7931C429.805 35.7181 429.593 34.7713 429.169 33.9527C428.754 33.1341 428.108 32.498 427.231 32.0443C426.363 31.5808 425.243 31.349 423.873 31.349H418.843V57.0603H413.354ZM440.164 57.0603V26.763H451.525C453.853 26.763 455.806 27.1674 457.384 27.9761C458.972 28.7848 460.17 29.919 460.979 31.3786C461.797 32.8284 462.206 34.5198 462.206 36.4528C462.206 38.3957 461.792 40.0822 460.964 41.5122C460.145 42.9324 458.937 44.0321 457.339 44.8112C455.742 45.5805 453.779 45.9651 451.452 45.9651H443.359V41.4087H450.712C452.073 41.4087 453.187 41.2213 454.055 40.8465C454.923 40.4619 455.564 39.9047 455.978 39.1749C456.402 38.4352 456.614 37.5278 456.614 36.4528C456.614 35.3778 456.402 34.4606 455.978 33.7012C455.554 32.932 454.908 32.3501 454.04 31.9556C453.173 31.5512 452.053 31.349 450.682 31.349H445.652V57.0603H440.164ZM455.816 43.3319L463.316 57.0603H457.191L449.824 43.3319H455.816ZM472.747 26.763V57.0603H467.258V26.763H472.747ZM478.69 57.0603V26.763H484.179V52.4595H497.522V57.0603H478.69Z" fill="url(#paint1_linear_78_83)"/>
<defs>
<linearGradient id="paint0_linear_78_83" x1="17.3923" y1="56.4815" x2="17.3923" y2="17.035" gradientUnits="userSpaceOnUse">
<stop stop-color="#27BA89"/>
</linearGradient>
<linearGradient id="paint1_linear_78_83" x1="291.076" y1="56.4815" x2="291.076" y2="17.035" gradientUnits="userSpaceOnUse">
<stop stop-color="#27BA89"/>
</linearGradient>
</defs>
</svg>
