<?xml version="1.0" encoding="utf-8"?>
<!-- Generator: Adobe Illustrator 26.0.0, SVG Export Plug-In . SVG Version: 6.00 Build 0)  -->
<svg version="1.1" id="Layer_1" xmlns="http://www.w3.org/2000/svg" xmlns:xlink="http://www.w3.org/1999/xlink" x="0px" y="0px"
	 viewBox="0 0 560 83" style="enable-background:new 0 0 560 83;" xml:space="preserve">
<style type="text/css">
	.st0{fill:#C2EAF6;}
	.st1{fill:#0A76C6;}
</style>
<path class="st0" d="M18,0h524c9.9,0,18,8.1,18,18v46.8c0,9.9-8.1,18-18,18H18c-9.9,0-18-8.1-18-18V18C0,8.1,8.1,0,18,0z"/>
<path class="st1" d="M283.2,14.9c0-0.6-0.5-1.2-1.2-1.2s-1.2,0.5-1.2,1.2H283.2z M280.8,14.9v55.3h2.3V14.9H280.8z"/>
<path class="st1" d="M60.4,57.1H49.6V26.8h10.8c3,0,5.7,0.6,7.9,1.8c2.2,1.2,3.9,2.9,5.1,5.2c1.2,2.3,1.8,5,1.8,8.1
	c0,3.2-0.6,5.9-1.8,8.1c-1.2,2.3-2.9,4-5.1,5.2C66.1,56.5,63.5,57.1,60.4,57.1z M56,51.6h4.1c1.9,0,3.5-0.3,4.8-1
	c1.3-0.7,2.3-1.7,2.9-3.2c0.7-1.4,1-3.3,1-5.5c0-2.2-0.3-4.1-1-5.5c-0.7-1.4-1.6-2.5-2.9-3.1c-1.3-0.7-2.9-1-4.8-1H56V51.6z
	 M79.9,57.1V26.8h20.4V32h-14v7.2h13v5.3h-13v7.2h14.1v5.3H79.9z M110.7,57.1h-6.9l10.5-30.3h8.3L133,57.1h-6.9l-7.6-23.4h-0.2
	L110.7,57.1z M110.2,45.2h16.2v5h-16.2V45.2z M147.4,57.1h-10.7V26.8h10.8c3,0,5.7,0.6,7.9,1.8c2.2,1.2,3.9,2.9,5.1,5.2
	c1.2,2.3,1.8,5,1.8,8.1c0,3.2-0.6,5.9-1.8,8.1c-1.2,2.3-2.9,4-5.1,5.2C153.1,56.5,150.4,57.1,147.4,57.1z M143,51.6h4.1
	c1.9,0,3.5-0.3,4.8-1c1.3-0.7,2.3-1.7,2.9-3.2c0.7-1.4,1-3.3,1-5.5c0-2.2-0.3-4.1-1-5.5c-0.6-1.4-1.6-2.5-2.9-3.1
	c-1.3-0.7-2.9-1-4.8-1H143V51.6z M166.9,57.1V26.8h6.4v25h13v5.3H166.9z M197,26.8v30.3h-6.4V26.8H197z M227.6,26.8v30.3H222
	L208.9,38h-0.2v19.1h-6.4V26.8h5.6l13.1,19.1h0.3V26.8H227.6z M232.9,57.1V26.8h20.4V32h-14v7.2h13v5.3h-13v7.2h14.1v5.3H232.9z"/>
<rect x="1053.4" y="-121.9" class="st0" width="247" height="203"/>
<rect x="-736.6" y="-119.9" class="st1" width="247" height="203"/>
<g>
	<path class="st1" d="M322.8,50.3c2.7-2.2,4.8-4.1,6.4-5.6c1.6-1.5,2.9-3.1,4-4.7c1.1-1.6,1.6-3.2,1.6-4.8c0-1.4-0.3-2.5-1-3.4
		c-0.7-0.8-1.7-1.2-3.1-1.2c-1.4,0-2.5,0.5-3.2,1.4s-1.1,2.2-1.2,3.8h-5.7c0.1-3.4,1.1-5.9,3-7.6c1.9-1.7,4.3-2.6,7.2-2.6
		c3.2,0,5.6,0.8,7.3,2.5c1.7,1.7,2.6,3.9,2.6,6.7c0,2.2-0.6,4.3-1.8,6.3c-1.2,2-2.5,3.7-4,5.2c-1.5,1.5-3.5,3.2-5.9,5.3h12.4v4.9
		h-20.7v-4.4L322.8,50.3z"/>
	<path class="st1" d="M345.9,33.9c0-1.5,0.4-2.9,1.2-4.1c0.8-1.2,1.9-2.2,3.5-3c1.6-0.7,3.5-1.1,5.7-1.1c2.2,0,4.1,0.4,5.7,1.1
		c1.6,0.7,2.7,1.7,3.5,3c0.8,1.2,1.2,2.6,1.2,4.1c0,1.5-0.4,2.9-1.1,4.1c-0.8,1.2-1.8,2.1-3,2.7c1.5,0.7,2.7,1.7,3.6,2.9
		c0.9,1.3,1.3,2.8,1.3,4.6c0,1.9-0.5,3.6-1.4,5s-2.3,2.5-4,3.3s-3.6,1.1-5.7,1.1c-2.1,0-4-0.4-5.6-1.1s-3-1.8-3.9-3.3
		c-1-1.4-1.4-3.1-1.4-5c0-1.8,0.4-3.3,1.3-4.6c0.9-1.3,2.1-2.3,3.6-2.9C347.3,39.2,345.9,37,345.9,33.9z M352.4,44.5
		c-1,0.8-1.5,2-1.5,3.5c0,1.4,0.5,2.5,1.4,3.4c1,0.9,2.3,1.3,3.9,1.3c1.7,0,3-0.4,3.9-1.3c1-0.9,1.4-2,1.4-3.4
		c0-1.5-0.5-2.6-1.5-3.5c-1-0.8-2.3-1.2-3.9-1.2S353.4,43.6,352.4,44.5z M359.7,31.6c-0.8-0.8-2-1.1-3.4-1.1c-1.4,0-2.5,0.4-3.3,1.1
		c-0.8,0.8-1.2,1.8-1.2,3.2c0,1.3,0.4,2.3,1.3,3c0.9,0.8,2,1.1,3.3,1.1s2.4-0.4,3.3-1.2c0.9-0.8,1.3-1.8,1.3-3
		C360.9,33.4,360.5,32.3,359.7,31.6z"/>
	<path class="st1" d="M400.7,51.3H389l-1.9,5.6h-6.2l10.5-29.4h6.8l10.5,29.4h-6.2L400.7,51.3z M399.1,46.6l-4.2-12.3l-4.2,12.3
		H399.1z"/>
	<path class="st1" d="M433,41.1c-0.7,1.4-1.9,2.5-3.5,3.3c-1.6,0.8-3.6,1.3-6,1.3h-4.9v11.3h-5.9V27.6h10.8c2.3,0,4.2,0.4,5.8,1.2
		c1.6,0.8,2.8,1.9,3.6,3.2c0.8,1.4,1.2,2.9,1.2,4.7C434.1,38.2,433.8,39.7,433,41.1z M426.9,39.8c0.8-0.7,1.2-1.8,1.2-3.1
		c0-2.9-1.6-4.3-4.8-4.3h-4.7v8.5h4.7C424.9,40.9,426.1,40.5,426.9,39.8z"/>
	<path class="st1" d="M453.4,56.9l-6.5-11.4h-2.8v11.4h-5.9V27.6h11c2.3,0,4.2,0.4,5.8,1.2s2.8,1.9,3.6,3.2s1.2,2.9,1.2,4.6
		c0,1.9-0.6,3.7-1.7,5.2c-1.1,1.6-2.8,2.6-5,3.2l7,11.9H453.4z M444.2,41.1h4.9c1.6,0,2.8-0.4,3.6-1.2c0.8-0.8,1.2-1.8,1.2-3.2
		c0-1.3-0.4-2.4-1.2-3.1c-0.8-0.7-2-1.1-3.6-1.1h-4.9V41.1z"/>
	<path class="st1" d="M471.1,27.6v29.3h-5.9V27.6H471.1z"/>
	<path class="st1" d="M482.8,52.2h9.7v4.7h-15.5V27.6h5.9V52.2z"/>
</g>
</svg>
