<svg width="680" height="91" viewBox="0 0 680 91" fill="none" xmlns="http://www.w3.org/2000/svg">
<path d="M298.2 0H22.3C9.99999 0 0 9.99999 0 22.3V68.5C0 80.8 9.99999 90.8 22.3 90.8H298.2V0Z" fill="url(#paint0_linear_77_56)"/>
<path fill-rule="evenodd" clip-rule="evenodd" d="M657.9 90.8H297.4V0H657.9C670.1 0 680 9.99995 680 22.2V68.6C680 80.8 670.1 90.8 657.9 90.8ZM301.2 87H657.9C668 87 676.2 78.8 676.2 68.6V22.2C676.2 12 668 3.79999 657.9 3.79999H301.2V87Z" fill="url(#paint1_linear_77_56)"/>
<path fill-rule="evenodd" clip-rule="evenodd" d="M53.3999 29.9002C56.1999 31.3669 58.3666 33.4336 59.8999 36.1002C61.4332 38.7669 62.1999 41.8669 62.1999 45.4002C62.1999 48.8669 61.4332 51.9336 59.8999 54.6002C58.3666 57.3336 56.1999 59.4335 53.3999 60.9002C50.5999 62.3669 47.3332 63.1002 43.5999 63.1002H30.3999V27.7002H43.5999C47.3999 27.7002 50.6666 28.4335 53.3999 29.9002ZM50.6999 53.0002C52.4999 51.2002 53.3999 48.6669 53.3999 45.4002C53.3999 42.1335 52.4999 39.6002 50.6999 37.8002C48.8999 35.9336 46.3665 35.0002 43.0999 35.0002H38.9999V55.7002H43.0999C46.3665 55.7002 48.8999 54.8002 50.6999 53.0002Z" fill="white"/>
<path d="M75.6996 34.6002V41.8002H87.2996V48.4002H75.6996V56.2002H88.7996V63.1002H67.0996V27.7002H88.7996V34.6002H75.6996Z" fill="white"/>
<path fill-rule="evenodd" clip-rule="evenodd" d="M116.5 56.9002H103.2L101.1 63.1002H92.0996L104.9 27.7002H114.9L127.7 63.1002H118.6L116.5 56.9002ZM114.3 50.3002L109.9 37.3002L105.5 50.3002H114.3Z" fill="white"/>
<path fill-rule="evenodd" clip-rule="evenodd" d="M154.7 29.9002C157.5 31.3669 159.666 33.4336 161.2 36.1002C162.733 38.7669 163.5 41.8669 163.5 45.4002C163.5 48.8669 162.733 51.9336 161.2 54.6002C159.666 57.3336 157.5 59.4335 154.7 60.9002C151.9 62.3669 148.633 63.1002 144.9 63.1002H131.6V27.7002H144.9C148.633 27.7002 151.9 28.4335 154.7 29.9002ZM152 53.0002C153.8 51.2002 154.7 48.6669 154.7 45.4002C154.7 42.1335 153.8 39.6002 152 37.8002C150.2 35.9336 147.666 35.0002 144.4 35.0002H140.3V55.7002H144.4C147.666 55.7002 150.2 54.8002 152 53.0002Z" fill="white"/>
<path d="M177 56.5002H188.3V63.1002H168.3V27.7002H177V56.5002Z" fill="white"/>
<path d="M201.1 27.7002V63.1002H192.4V27.7002H201.1Z" fill="white"/>
<path d="M239.1 63.1002H230.4L216 41.3002V63.1002H207.3V27.7002H216L230.4 49.6002V27.7002H239.1V63.1002Z" fill="white"/>
<path d="M254 34.6002V41.8002H265.5V48.4002H254V56.2002H267V63.1002H245.3V27.7002H267V34.6002H254Z" fill="white"/>
<path d="M327.1 56.2001C330.433 53.5335 333.033 51.3002 334.9 49.5002C336.767 47.7668 338.367 45.9668 339.7 44.1002C341.033 42.1668 341.7 40.3002 341.7 38.5002C341.7 37.1002 341.367 36.0335 340.7 35.3002C340.1 34.5002 339.133 34.1002 337.8 34.1002C336.533 34.1002 335.567 34.5668 334.9 35.5002C334.167 36.5002 333.8 37.8668 333.8 39.6002H325.5C325.567 36.7335 326.167 34.3335 327.3 32.4001C328.433 30.5335 329.967 29.1335 331.9 28.2001C333.767 27.3335 335.867 26.9001 338.2 26.9001C342.2 26.9001 345.2 27.9001 347.2 29.9001C349.267 31.9668 350.3 34.6335 350.3 37.9001C350.3 41.5001 349.067 44.8335 346.6 47.9001C344.133 50.9668 341 53.9668 337.2 56.9001H350.8V63.9001H325.6V57.5002C326.733 56.5668 327.233 56.1335 327.1 56.2001Z" fill="#27BA89"/>
<path fill-rule="evenodd" clip-rule="evenodd" d="M371.3 34.8002C370.633 34.2002 369.7 33.9001 368.5 33.9001C366.567 33.9001 365.167 34.7002 364.3 36.3002C363.5 37.9668 363.067 40.6001 363 44.2001C363.733 43.0668 364.8 42.1335 366.2 41.4001C367.6 40.7335 369.133 40.4001 370.8 40.4001C374.133 40.4001 376.766 41.4668 378.7 43.6002C380.7 45.6668 381.7 48.5668 381.7 52.3002C381.7 54.7002 381.233 56.8335 380.3 58.7001C379.3 60.5668 377.833 62.0002 375.9 63.0002C375.033 65.0668 371.8 64.6002 369.2 64.6002C365.066 64.6002 360.5 62.9668 358.5 59.7001C356.433 56.5001 355.4 51.8668 355.4 45.8002C355.4 39.4002 356.467 34.6668 358.6 31.6002C360.733 28.4668 364.167 26.9001 368.9 26.9001C371.367 26.9001 373.466 27.4001 375.2 28.4001C376.933 29.4001 378.233 30.7002 379.1 32.3002C380.033 33.9002 380.566 35.6668 380.7 37.6002H372.7C372.433 36.3335 371.967 35.4002 371.3 34.8002ZM365.2 48.5002C364.2 49.3668 363.7 50.6001 363.7 52.2001C363.7 53.8001 364.167 55.0335 365.1 55.9001C365.967 56.8335 367.233 57.3002 368.9 57.3002C370.367 57.3002 371.533 56.8335 372.4 55.9001C373.2 55.0335 373.6 53.8335 373.6 52.3002C373.6 50.7002 373.2 49.4668 372.4 48.6002C371.533 47.6668 370.333 47.2001 368.8 47.2001C367.333 47.2001 366.133 47.6335 365.2 48.5002Z" fill="#27BA89"/>
<path fill-rule="evenodd" clip-rule="evenodd" d="M420.1 58.1001H406.9L404.8 64.4001H395.8L408.6 29.1001H418.5L431.3 64.4001H422.2L420.1 58.1001ZM417.9 51.4001L413.5 38.5001L409.2 51.4001H417.9Z" fill="#27BA89"/>
<path fill-rule="evenodd" clip-rule="evenodd" d="M447.2 37.1002C448.734 36.3002 450.467 35.9001 452.4 35.9001C454.734 35.9001 456.834 36.5001 458.7 37.7001C460.567 38.8335 462.067 40.5001 463.2 42.7001C464.267 44.9001 464.8 47.4335 464.8 50.3002C464.8 53.1668 464.267 55.7001 463.2 57.9001C462.067 60.1001 460.567 61.8002 458.7 63.0002C456.834 64.2002 454.734 64.8002 452.4 64.8002C450.467 64.8002 448.767 64.4002 447.3 63.6002C445.767 62.8002 444.6 61.7335 443.8 60.4001V77.7001H435.2V36.3002H443.8V40.3002C444.6 38.9668 445.734 37.9002 447.2 37.1002ZM454.3 45.2001C453.1 45.0001 451.634 43.4001 449.9 43.4001C448.167 43.4001 446.7 45.0335 445.5 45.3002C444.3 46.5002 443.7 48.1668 443.7 50.3002C443.7 52.5002 444.3 54.2001 445.5 55.4001C446.7 56.6668 448.167 57.3002 449.9 57.3002C451.567 57.3002 453 56.6668 454.2 55.4001C455.4 54.1335 456 52.4335 456 50.3002C456 48.1668 455.434 46.4668 454.3 45.2001Z" fill="#27BA89"/>
<path d="M481.7 37.3C483.166 36.4333 484.833 36 486.7 36V45.1H484.4C482.2 45.1 480.566 45.5667 479.5 46.5C478.433 47.4333 477.9 49.0333 477.9 51.3V64.4H469.3V36.3H477.9V41C478.9 39.4667 480.166 38.2333 481.7 37.3Z" fill="#27BA89"/>
<path d="M491.5 32.1001C490.5 31.1668 490 30.0668 490 28.8001C490 27.4668 490.5 26.3334 491.5 25.4001C492.433 24.5334 493.667 24.1001 495.2 24.1001C496.667 24.1001 497.867 24.5334 498.8 25.4001C499.733 26.3334 500.2 27.4668 500.2 28.8001C500.2 30.0668 499.733 31.1668 498.8 32.1001C497.867 32.9668 496.667 33.4001 495.2 33.4001C493.667 33.4001 492.433 32.9668 491.5 32.1001ZM499.4 36.3001V64.4001H490.8V36.3001H499.4Z" fill="#27BA89"/>
<path d="M514.3 27.2002V64.4002H505.7V27.2002H514.3Z" fill="#27BA89"/>
<path d="M529.8 56.4001L524.2 70.9001H518.7L521.6 56.4001H529.8Z" fill="#27BA89"/>
<path d="M546 56.2001C549.266 53.5335 551.866 51.3002 553.8 49.5002C555.666 47.7668 557.266 45.9668 558.6 44.1002C559.866 42.1668 560.5 40.3002 560.5 38.5002C560.5 37.1002 560.2 36.0335 559.6 35.3002C558.933 34.5002 557.966 34.1002 556.7 34.1002C555.433 34.1002 554.433 34.5668 553.7 35.5002C552.966 36.5002 552.6 37.8668 552.6 39.6002H544.3C544.366 36.7335 545 34.3335 546.2 32.4001C547.333 30.5335 548.833 29.1335 550.7 28.2001C552.633 27.3335 554.766 26.9001 557.1 26.9001C561.033 26.9001 565.033 27.9001 566.1 29.9001C568.1 31.9668 569.1 34.6335 569.1 37.9001C569.1 41.5001 567.866 44.8335 565.4 47.9001C563 50.9668 559.9 53.9668 556.1 56.9001H569.7V63.9001H544.4V57.5002C545.533 56.5668 546.066 56.1335 546 56.2001Z" fill="#27BA89"/>
<path fill-rule="evenodd" clip-rule="evenodd" d="M576.8 31.9001C579 28.5668 582.6 26.9001 587.6 26.9001C592.533 26.9001 596.133 28.5668 598.4 31.9001C600.6 35.2335 601.7 39.7668 601.7 45.5002C601.7 51.3668 600.6 55.9335 598.4 59.2001C596.133 62.5335 592.533 64.2001 587.6 64.2001C582.6 64.2001 579 62.5335 576.8 59.2001C574.533 55.9335 573.4 51.3668 573.4 45.5002C573.4 39.7668 574.533 35.2335 576.8 31.9001ZM592.1 37.7001C591.367 35.9001 589.867 35.0002 587.6 35.0002C585.267 35.0002 583.733 35.9001 583 37.7001C582.267 39.5001 581.9 42.1002 581.9 45.5002C581.9 47.7668 582.033 49.6668 582.3 51.2001C582.567 52.6668 583.1 53.8668 583.9 54.8002C584.767 55.7335 586 56.2001 587.6 56.2001C589.2 56.2001 590.4 55.7335 591.2 54.8002C592 53.8668 592.533 52.6668 592.8 51.2001C593.067 49.6668 593.2 47.7668 593.2 45.5002C593.2 42.1002 592.833 39.5001 592.1 37.7001Z" fill="#27BA89"/>
<path d="M607.5 56.2001C610.766 53.5335 613.333 51.3002 615.2 49.5002C617.133 47.7668 618.733 45.9668 620 44.1002C621.333 42.1668 622 40.3002 622 38.5002C622 37.1002 621.7 36.0335 621.1 35.3002C620.433 34.5002 619.466 34.1002 618.2 34.1002C616.933 34.1002 615.933 34.5668 615.2 35.5002C614.466 36.5002 614.1 37.8668 614.1 39.6002H605.8C605.866 36.7335 606.5 34.3335 607.7 32.4001C608.833 30.5335 610.333 29.1335 612.2 28.2001C614.133 27.3335 616.233 26.9001 618.5 26.9001C622.5 26.9001 625.533 27.9001 627.6 29.9001C629.6 31.9668 630.6 34.6335 630.6 37.9001C630.6 41.5001 629.366 44.8335 626.9 47.9001C624.5 50.9668 621.4 53.9668 617.6 56.9001H631.2V63.9001H605.9V57.5002C607.033 56.5668 607.566 56.1335 607.5 56.2001Z" fill="#27BA89"/>
<path fill-rule="evenodd" clip-rule="evenodd" d="M635.1 57.8002V50.9002L651 28.2002H660.6V50.4002H664.7V57.8002H660.6V64.4002H652V57.8002H635.1ZM652.6 37.6002L644.2 50.4002H652.6V37.6002Z" fill="#27BA89"/>
<defs>
<linearGradient id="paint0_linear_77_56" x1="0.0379936" y1="45.4" x2="298.162" y2="45.4" gradientUnits="userSpaceOnUse">
<stop stop-color="#27BA89"/>
<stop offset="1" stop-color="#95E29F"/>
</linearGradient>
<linearGradient id="paint1_linear_77_56" x1="679.961" y1="45.3999" x2="297.439" y2="45.3999" gradientUnits="userSpaceOnUse">
<stop stop-color="#27BA89"/>
<stop offset="1" stop-color="#95E29F"/>
</linearGradient>
</defs>
</svg>
