<svg width="1151" height="148" viewBox="0 0 1151 148" fill="none" xmlns="http://www.w3.org/2000/svg">
<path fill-rule="evenodd" clip-rule="evenodd" d="M884.951 0H919.569C933.169 0 944.297 10.0755 944.297 22.5572V123.463C944.297 135.945 933.169 146.02 919.569 146.02H884.951C871.269 146.02 860.224 135.945 860.224 123.463V22.5572C860.224 10.0755 871.269 0 884.951 0ZM864.922 123.463C864.922 133.539 873.907 141.734 884.951 141.734H919.569C930.532 141.734 939.516 133.539 939.516 123.463V22.5572C939.516 12.4816 930.532 4.28583 919.569 4.28583H884.951C873.907 4.28583 864.922 12.4816 864.922 22.5572V123.463ZM138.163 145.843V2.22679H239.143V33.6429H177.152V58.327H232.972V89.7432H177.152V145.843H138.163ZM249.557 33.6429V2.22679H374.38V33.6429H331.183V145.843H292.754V33.6429H249.557ZM389.054 2.22679H437.58L470.96 83.5721H472.643L506.023 2.22679H554.549V145.843H516.401V62.8151H515.279L483.302 144.721H460.301L428.324 62.2541H427.202V145.843H389.054V2.22679ZM573.027 145.843V2.22679H635.018C645.677 2.22679 655.004 4.33055 662.998 8.53807C670.992 12.7456 677.21 18.6595 681.651 26.2798C686.093 33.9001 688.313 42.806 688.313 52.9975C688.313 63.2826 686.023 72.1885 681.441 79.7153C676.906 87.242 670.525 93.0391 662.297 97.1063C654.116 101.174 644.555 103.207 633.616 103.207H612.017V145.843H573.027ZM625.762 72.9131H612.017V33.3624H625.762C630.343 33.3624 634.247 34.1572 637.473 35.7467C640.745 37.2894 643.246 39.5335 644.976 42.4787C646.752 45.3772 647.641 48.8835 647.641 52.9975C647.641 57.0648 646.752 60.5944 644.976 63.5864C643.246 66.5784 640.745 68.8926 637.473 70.5288C634.247 72.1183 630.343 72.9131 625.762 72.9131ZM836.698 56.083H797.148C796.867 52.8105 796.119 49.8419 794.904 47.1771C793.735 44.5123 792.099 42.2216 789.995 40.3048C787.938 38.3413 785.437 36.8453 782.492 35.8168C779.546 34.7416 776.204 34.2039 772.464 34.2039C765.919 34.2039 760.379 35.7934 755.844 38.9725C751.356 42.1515 747.943 46.7096 745.606 52.6469C743.315 58.5842 742.17 65.7136 742.17 75.0351C742.17 82.8241 743.338 90.1873 745.676 96.1246C748.06 102.015 751.496 106.456 755.984 109.448C760.472 112.394 765.872 113.866 772.183 113.866C775.783 113.866 779.009 113.422 781.86 112.534C784.712 111.599 787.19 110.267 789.294 108.537C791.398 106.807 793.104 104.727 794.413 102.296C795.769 99.8178 796.68 97.0362 797.148 93.9507L836.698 94.2312C836.231 100.309 834.525 106.503 831.579 112.814C828.634 119.079 824.45 124.876 819.027 130.205C813.651 135.488 806.989 139.743 799.041 142.968C791.094 146.194 781.86 147.807 771.342 147.807C758.158 147.807 746.33 144.979 735.858 139.322C725.433 133.665 717.182 125.343 711.104 114.357C705.073 103.371 702.058 89.9302 702.058 75.0351C702.058 58.0465 705.143 44.5825 711.314 33.6429C717.485 22.6566 725.807 14.3585 736.279 8.74844C746.751 3.09167 758.439 0.263279 771.342 0.263279C780.411 0.263279 788.756 1.50216 796.376 3.97992C803.997 6.45768 810.682 10.0808 816.432 14.8493C822.183 19.5711 826.811 25.3915 830.317 32.3105C833.823 39.2296 835.951 47.1537 836.698 56.083ZM880.006 98.8007L906.464 119.929L915.284 119.177V98.4248H923.031V89.5522H915.284V85.1911H906.794V89.5522H880.006V98.8007ZM906.959 110.079L892.04 98.3495H906.959V110.079ZM922.207 77.8223C921.218 78.7748 919.954 79.251 918.416 79.251C916.932 79.251 915.696 78.7748 914.707 77.8223C913.717 76.8699 913.223 75.6418 913.223 74.138C913.223 72.6843 913.717 71.4812 914.707 70.5288C915.696 69.5764 916.932 69.1003 918.416 69.1003C919.954 69.1003 921.218 69.5764 922.207 70.5288C923.196 71.4812 923.691 72.6843 923.691 74.138C923.691 75.6418 923.196 76.8699 922.207 77.8223ZM914.954 61.7315C917.811 60.3279 920.009 58.2728 921.548 55.5659C923.141 52.9092 923.938 49.8013 923.938 46.2422C923.938 42.6832 923.141 39.5503 921.548 36.8434C920.009 34.1867 917.811 32.1314 914.954 30.6777C912.096 29.2742 908.772 28.5724 904.981 28.5724H898.222C894.43 28.5724 891.106 29.2742 888.248 30.6777C885.391 32.1314 883.193 34.1867 881.655 36.8434C880.061 39.5503 879.264 42.6832 879.264 46.2422C879.264 49.8013 880.061 52.9092 881.655 55.5659C883.193 58.2728 885.391 60.3279 888.248 61.7315C891.106 63.1852 894.43 63.912 898.222 63.912H904.981C908.772 63.912 912.096 63.1852 914.954 61.7315ZM904.981 37.8208C908.003 37.8208 910.42 38.5727 912.234 40.0765C915.047 41.5804 914.954 43.6356 914.954 46.2422C914.954 48.8488 915.047 50.904 912.234 52.4078C910.475 53.8615 908.058 54.5884 904.981 54.5884H898.222C895.145 54.5884 892.727 53.8615 890.968 52.4078C889.155 50.904 888.248 48.8488 888.248 46.2422C888.248 43.5855 889.155 41.5302 890.968 40.0765C892.727 38.5727 895.145 37.8208 898.222 37.8208H904.981ZM0 73.9408L100.376 146.484L114.588 126.942L41.1572 73.9408L114.588 20.6437L100.376 1.10147L0 73.9408ZM1068.23 133.378L1056.82 117.359L1117.01 73.914L1056.82 30.2265L1068.23 14.2077L1150.51 73.914L1068.23 133.378ZM976.971 141.387L995.902 146.484L1032.79 6.19837L1013.86 1.10147L976.971 141.387Z" fill="url(#paint0_linear_1_34)"/>
<defs>
<linearGradient id="paint0_linear_1_34" x1="-162.985" y1="147.724" x2="-162.985" y2="-0.0946882" gradientUnits="userSpaceOnUse">
<stop stop-color="#27BA89"/>
<stop offset="1" stop-color="#A6FFB2"/>
</linearGradient>
</defs>
</svg>
