<?xml version="1.0" encoding="utf-8"?>
<!-- Generator: Adobe Illustrator 26.0.0, SVG Export Plug-In . SVG Version: 6.00 Build 0)  -->
<svg version="1.1" id="Layer_1" xmlns="http://www.w3.org/2000/svg" xmlns:xlink="http://www.w3.org/1999/xlink" x="0px" y="0px"
	 viewBox="0 0 1410.6 511" style="enable-background:new 0 0 1410.6 511;" xml:space="preserve">
<style type="text/css">
	.st0{fill:url(#SVGID_1_);}
	.st1{fill:url(#SVGID_00000018918172199770326070000010287878522757660567_);}
	.st2{fill:url(#SVGID_00000120556213413973204660000012620106426791849379_);}
	.st3{fill:url(#SVGID_00000062174802578831578320000003838544245473267841_);}
	.st4{fill:url(#SVGID_00000008136249444252051270000009198318154431003528_);}
	.st5{fill:#FFFFFF;}
	.st6{fill:url(#SVGID_00000154416483273078346950000017215029845380353183_);}
	.st7{fill:url(#SVGID_00000098907851856919882140000001592133115410150316_);}
	.st8{fill:url(#SVGID_00000033347995909140200420000009795995203040826787_);}
	.st9{fill:url(#SVGID_00000047776934869282001860000011750570794014970557_);}
	
		.st10{fill:none;stroke:url(#SVGID_00000169552293289879701670000013531696115688918169_);stroke-width:18;stroke-linecap:round;stroke-linejoin:round;}
	.st11{fill:url(#SVGID_00000119806165680984100880000007188768698716552089_);}
</style>
<g id="Layer_2_00000148642995846159088130000003022618386043707526_">
	<g id="Layer_1-2">
		
			<linearGradient id="SVGID_1_" gradientUnits="userSpaceOnUse" x1="0.7212" y1="62.3471" x2="853.2312" y2="436.8972" gradientTransform="matrix(1 0 0 -1 0 511.8898)">
			<stop  offset="0" style="stop-color:#5CFFFF"/>
			<stop  offset="1" style="stop-color:#0065BF"/>
		</linearGradient>
		<path class="st0" d="M603,275.7l14-66.4l-44.2,66.4h-50l-16.4-66.4l-14,66.4h-51l31.1-146.8h62.8l26.4,91.3l65-91.3h58.8
			l-31,146.8H603z"/>
		
			<linearGradient id="SVGID_00000147921447055127071520000015719681225459984800_" gradientUnits="userSpaceOnUse" x1="78.5357" y1="-114.756" x2="931.0458" y2="259.794" gradientTransform="matrix(1 0 0 -1 0 511.8898)">
			<stop  offset="0" style="stop-color:#5CFFFF"/>
			<stop  offset="1" style="stop-color:#0065BF"/>
		</linearGradient>
		<path style="fill:url(#SVGID_00000147921447055127071520000015719681225459984800_);" d="M987.5,275.7c-35.8,0-50.6-4.5-50.6-23.3
			c0.1-4,0.7-7.9,1.5-11.8l16.2-76.6c6-28.6,21.8-35.1,64-35.1h112.8l-8,37.3h-96.8c-11.8,0-16.7,3.3-18,10l-11.1,52.2
			c-0.2,0.8-0.3,1.6-0.2,2.4c0,5.1,4.7,7.6,14,7.6h96.8l-7.8,37.3L987.5,275.7z"/>
		
			<linearGradient id="SVGID_00000079454156190831081050000014283490543892286851_" gradientUnits="userSpaceOnUse" x1="-79.9198" y1="245.8894" x2="772.5902" y2="620.4395" gradientTransform="matrix(1 0 0 -1 0 511.8898)">
			<stop  offset="0" style="stop-color:#5CFFFF"/>
			<stop  offset="1" style="stop-color:#0065BF"/>
		</linearGradient>
		<path style="fill:url(#SVGID_00000079454156190831081050000014283490543892286851_);" d="M89.3,220.4l-11.6,55.3H21.4l31.1-146.8
			h167.9l-8,37.3H100.9L97.1,184h63.5l-7.8,36.4L89.3,220.4z"/>
		
			<linearGradient id="SVGID_00000071562069173652407450000000404108836699955625_" gradientUnits="userSpaceOnUse" x1="-43.087" y1="162.043" x2="809.423" y2="536.593" gradientTransform="matrix(1 0 0 -1 0 511.8898)">
			<stop  offset="0" style="stop-color:#5CFFFF"/>
			<stop  offset="1" style="stop-color:#0065BF"/>
		</linearGradient>
		<path style="fill:url(#SVGID_00000071562069173652407450000000404108836699955625_);" d="M275.8,275.7l23.1-109.5h-53.3l8-37.3
			h162.5l-8,37.3h-53.1L332,275.7H275.8z"/>
		
			<linearGradient id="SVGID_00000140717838792995670080000017884353809067009707_" gradientUnits="userSpaceOnUse" x1="31.6291" y1="-7.9981" x2="884.1391" y2="366.5519" gradientTransform="matrix(1 0 0 -1 0 511.8898)">
			<stop  offset="0" style="stop-color:#5CFFFF"/>
			<stop  offset="1" style="stop-color:#0065BF"/>
		</linearGradient>
		<path style="fill:url(#SVGID_00000140717838792995670080000017884353809067009707_);" d="M777.1,227.9l-10,47.7h-56.2L742,128.9
			h119.2c35.7,0,50.4,4.2,50.4,22.9c-0.1,4.1-0.7,8.2-1.6,12.2l-6,28.9c-6.2,29.3-22.4,35.1-64,35.1L777.1,227.9z"/>
		<path class="st5" d="M852.9,176c0.3-1.1,0.4-2.2,0.4-3.3c0-4.4-2.7-6.4-9.5-6.4h-52.6l-5.3,25.5h52.6c8.7,0,11.8-2.7,13.3-10.2
			L852.9,176z"/>
		
			<linearGradient id="SVGID_00000067194926766555180930000000459860972762588313_" gradientUnits="userSpaceOnUse" x1="536.5289" y1="85.5208" x2="660.6783" y2="85.5208" gradientTransform="matrix(0.9908 0.1355 0.1355 -0.9908 -26.4315 381.1673)">
			<stop  offset="0.43" style="stop-color:#0A76C6"/>
			<stop  offset="1" style="stop-color:#84D6EE"/>
		</linearGradient>
		<polygon style="fill:url(#SVGID_00000067194926766555180930000000459860972762588313_);" points="534.4,301.7 507.4,437.8 
			638.8,393.2 		"/>
		
			<linearGradient id="SVGID_00000049215830587986835790000016133171618193958032_" gradientUnits="userSpaceOnUse" x1="95.0076" y1="-145.3847" x2="947.5176" y2="229.1653" gradientTransform="matrix(1 0 0 -1 0 511.8898)">
			<stop  offset="0" style="stop-color:#5CFFFF"/>
			<stop  offset="1" style="stop-color:#0065BF"/>
		</linearGradient>
		<path style="fill:url(#SVGID_00000049215830587986835790000016133171618193958032_);" d="M774.6,399.4c5.7,0,8.4-1.8,9.5-6.8
			l0.5-2.2c0.2-0.7,0.2-1.5,0.2-2.2c0-3.3-2-4.7-6.8-4.7h-94.2l15.7-74h146l-6.5,30.6h-99.9l-2.9,14h61.1c22.4,0,34.1,8,34.1,22.2
			c0,2.2-0.2,4.4-0.7,6.6l-3.8,18.2c-5.1,24.2-18.2,28.8-52.3,28.8h-54.3c-29.2,0-41.4-3.5-41.4-19c0.1-3.3,0.5-6.6,1.3-9.9l2-9.1
			h46.1l-0.1,1c-0.1,0.7-0.2,1.3-0.2,2c0,2.9,2,4.4,8,4.4L774.6,399.4z"/>
		
			<linearGradient id="SVGID_00000054228236412143278690000007397998515376263557_" gradientUnits="userSpaceOnUse" x1="131.8634" y1="-229.2807" x2="984.3734" y2="145.2794" gradientTransform="matrix(1 0 0 -1 0 511.8898)">
			<stop  offset="0" style="stop-color:#5CFFFF"/>
			<stop  offset="1" style="stop-color:#0065BF"/>
		</linearGradient>
		<path style="fill:url(#SVGID_00000054228236412143278690000007397998515376263557_);" d="M845.3,430l5.8-27.5h46.3l-5.8,27.5
			H845.3z"/>
		
			<linearGradient id="SVGID_00000027571169271305891900000013315949615667207314_" gradientUnits="userSpaceOnUse" x1="135.7289" y1="-238.0648" x2="988.2389" y2="136.4852" gradientTransform="matrix(1 0 0 -1 0 511.8898)">
			<stop  offset="0" style="stop-color:#5CFFFF"/>
			<stop  offset="1" style="stop-color:#0065BF"/>
		</linearGradient>
		<path style="fill:url(#SVGID_00000027571169271305891900000013315949615667207314_);" d="M960.2,430c-29.2,0-41.2-3.5-41.2-19
			c0.1-3.3,0.6-6.6,1.3-9.9l13.3-62.9c5.1-24.2,18.2-28.8,52.1-28.8h56.3c29.2,0,41.4,3.5,41.4,19c-0.1,3.3-0.6,6.6-1.3,9.9
			l-13.3,62.9c-5.1,24.1-17.7,28.8-52.3,28.8L960.2,430z M1034.6,348.3c0.2-1,0.3-2.1,0.4-3.1c0-4-2.7-5.1-12.2-5.1h-30.1
			c-11.5,0-13.7,1.5-15.1,8.2l-9.1,42.9c-0.4,1.1-0.5,2.3-0.5,3.5c0,3.8,2.9,4.7,12.2,4.7h30.1c11.5,0,13.9-1.6,15.3-8.2
			L1034.6,348.3z"/>
		
			<linearGradient id="SVGID_00000154415049865238182750000001430487540945139627_" gradientUnits="userSpaceOnUse" x1="1069.6483" y1="88.242" x2="1246.2402" y2="88.242" gradientTransform="matrix(0.9917 -0.1286 -0.1286 -0.9917 30.424 519.7867)">
			<stop  offset="0" style="stop-color:#5CFFFF"/>
			<stop  offset="1" style="stop-color:#0065BF"/>
		</linearGradient>
		
			<line style="fill:none;stroke:url(#SVGID_00000154415049865238182750000001430487540945139627_);stroke-width:18;stroke-linecap:round;stroke-linejoin:round;" x1="1219" y1="64.7" x2="1115.8" y2="502"/>
		
			<linearGradient id="SVGID_00000121260009344283605820000010730120993410124161_" gradientUnits="userSpaceOnUse" x1="1173.6801" y1="228.5298" x2="1410.61" y2="228.5298" gradientTransform="matrix(1 0 0 -1 0 511.8898)">
			<stop  offset="0" style="stop-color:#5CFFFF"/>
			<stop  offset="1" style="stop-color:#0065BF"/>
		</linearGradient>
		<path style="fill:url(#SVGID_00000121260009344283605820000010730120993410124161_);" d="M1173.7,387.7l10.8-50.1l180.2-54.3
			l-157.4-54.3L1218,179l192.6,70.8l-14.5,67.1L1173.7,387.7z"/>
	</g>
</g>
</svg>
