<?xml version="1.0" encoding="utf-8"?>
<!-- Generator: Adobe Illustrator 26.0.0, SVG Export Plug-In . SVG Version: 6.00 Build 0)  -->
<svg version="1.1" id="Layer_1" xmlns="http://www.w3.org/2000/svg" xmlns:xlink="http://www.w3.org/1999/xlink" x="0px" y="0px"
	 viewBox="0 0 1044 355" style="enable-background:new 0 0 1044 355;" xml:space="preserve">
<style type="text/css">
	.st0{fill:#C2EAF6;}
	.st1{fill:#0A76C6;}
	.st2{fill:url(#SVGID_1_);}
	.st3{fill:#FFFFFF;}
</style>
<path class="st0" d="M35-0.3h974c19.3,0,35,15.7,35,35v35c0,19.3-15.7,35-35,35H35c-19.3,0-35-15.7-35-35v-35
	C0,15.4,15.7-0.3,35-0.3z"/>
<path class="st1" d="M312,67.3V37h12c2.3,0,4.3,0.4,5.9,1.3c1.6,0.9,2.9,2.1,3.7,3.6c0.9,1.5,1.3,3.3,1.3,5.3c0,2-0.4,3.8-1.3,5.3
	c-0.9,1.5-2.1,2.7-3.8,3.6c-1.6,0.9-3.6,1.3-5.9,1.3h-7.6v-5.1h6.6c1.2,0,2.2-0.2,3-0.6c0.8-0.4,1.4-1,1.8-1.8
	c0.4-0.8,0.6-1.7,0.6-2.6c0-1-0.2-1.9-0.6-2.6c-0.4-0.8-1-1.3-1.8-1.8c-0.8-0.4-1.8-0.6-3.1-0.6h-4.3v25.1H312z M338.9,67.3V37h12
	c2.3,0,4.2,0.4,5.9,1.2c1.6,0.8,2.9,2,3.7,3.4c0.9,1.5,1.3,3.2,1.3,5.2c0,2-0.4,3.7-1.3,5.2c-0.9,1.4-2.1,2.5-3.8,3.3
	c-1.6,0.8-3.6,1.2-5.9,1.2h-8v-5.1h7c1.2,0,2.2-0.2,3-0.5s1.4-0.8,1.8-1.5c0.4-0.7,0.6-1.5,0.6-2.5c0-1-0.2-1.9-0.6-2.5
	c-0.4-0.7-1-1.2-1.8-1.6c-0.8-0.4-1.8-0.5-3.1-0.5h-4.3v25.1H338.9z M355.3,53.5l7.5,13.8h-7.1l-7.4-13.8H355.3z M371.5,67.3h-6.9
	L375.1,37h8.3l10.4,30.3h-6.9l-7.6-23.4h-0.2L371.5,67.3z M371.1,55.4h16.2v5h-16.2V55.4z M422.7,47.6h-6.5
	c-0.1-0.8-0.4-1.6-0.7-2.2c-0.4-0.7-0.8-1.2-1.4-1.7c-0.6-0.5-1.2-0.8-2-1.1c-0.7-0.2-1.5-0.4-2.4-0.4c-1.6,0-2.9,0.4-4.1,1.2
	c-1.2,0.8-2.1,1.9-2.7,3.4c-0.6,1.5-1,3.3-1,5.4c0,2.2,0.3,4,1,5.4c0.6,1.5,1.6,2.6,2.7,3.3c1.2,0.7,2.5,1.1,4,1.1
	c0.9,0,1.7-0.1,2.4-0.3c0.7-0.2,1.4-0.6,2-1c0.6-0.4,1-1,1.4-1.6c0.4-0.6,0.7-1.4,0.8-2.2l6.5,0c-0.2,1.4-0.6,2.7-1.3,4
	c-0.7,1.3-1.6,2.4-2.7,3.4c-1.1,1-2.4,1.8-4,2.4c-1.5,0.6-3.3,0.9-5.2,0.9c-2.7,0-5.1-0.6-7.2-1.8c-2.1-1.2-3.8-3-5-5.3
	c-1.2-2.3-1.8-5.1-1.8-8.4c0-3.3,0.6-6.1,1.9-8.4c1.2-2.3,2.9-4.1,5.1-5.3c2.1-1.2,4.5-1.8,7.2-1.8c1.8,0,3.4,0.2,4.9,0.7
	c1.5,0.5,2.8,1.2,4,2.2c1.2,0.9,2.1,2.1,2.8,3.4C422.1,44.3,422.5,45.9,422.7,47.6z M426.2,42.3V37h24.9v5.3h-9.3v25h-6.3v-25H426.2
	z M461.6,37v30.3h-6.4V37H461.6z M493.6,47.6h-6.5c-0.1-0.8-0.4-1.6-0.7-2.2c-0.4-0.7-0.8-1.2-1.4-1.7c-0.6-0.5-1.2-0.8-2-1.1
	c-0.7-0.2-1.5-0.4-2.4-0.4c-1.6,0-2.9,0.4-4.1,1.2c-1.2,0.8-2.1,1.9-2.7,3.4c-0.6,1.5-1,3.3-1,5.4c0,2.2,0.3,4,1,5.4
	c0.6,1.5,1.6,2.6,2.7,3.3c1.2,0.7,2.5,1.1,4,1.1c0.9,0,1.7-0.1,2.4-0.3c0.7-0.2,1.4-0.6,2-1c0.6-0.4,1-1,1.4-1.6
	c0.4-0.6,0.7-1.4,0.8-2.2l6.5,0c-0.2,1.4-0.6,2.7-1.3,4c-0.7,1.3-1.6,2.4-2.7,3.4c-1.1,1-2.4,1.8-4,2.4c-1.5,0.6-3.3,0.9-5.2,0.9
	c-2.7,0-5.1-0.6-7.2-1.8c-2.1-1.2-3.8-3-5-5.3c-1.2-2.3-1.8-5.1-1.8-8.4c0-3.3,0.6-6.1,1.9-8.4c1.2-2.3,2.9-4.1,5.1-5.3
	c2.1-1.2,4.5-1.8,7.2-1.8c1.8,0,3.4,0.2,4.9,0.7c1.5,0.5,2.8,1.2,4,2.2c1.2,0.9,2.1,2.1,2.8,3.4C492.9,44.3,493.4,45.9,493.6,47.6z
	 M498.2,67.3V37h20.4v5.3h-14v7.2h13v5.3h-13V62h14.1v5.3H498.2z M560,47.6h-6.5c-0.1-0.8-0.4-1.6-0.7-2.2c-0.4-0.7-0.8-1.2-1.4-1.7
	c-0.6-0.5-1.2-0.8-2-1.1c-0.7-0.2-1.5-0.4-2.4-0.4c-1.6,0-2.9,0.4-4.1,1.2c-1.2,0.8-2.1,1.9-2.7,3.4c-0.6,1.5-1,3.3-1,5.4
	c0,2.2,0.3,4,1,5.4c0.6,1.5,1.6,2.6,2.7,3.3c1.2,0.7,2.5,1.1,4,1.1c0.9,0,1.7-0.1,2.4-0.3c0.7-0.2,1.4-0.6,2-1c0.6-0.4,1-1,1.4-1.6
	c0.4-0.6,0.7-1.4,0.8-2.2l6.5,0c-0.2,1.4-0.6,2.7-1.3,4c-0.7,1.3-1.6,2.4-2.7,3.4c-1.1,1-2.4,1.8-4,2.4c-1.5,0.6-3.3,0.9-5.2,0.9
	c-2.7,0-5.1-0.6-7.2-1.8c-2.1-1.2-3.8-3-5-5.3c-1.2-2.3-1.8-5.1-1.8-8.4c0-3.3,0.6-6.1,1.9-8.4c1.2-2.3,2.9-4.1,5.1-5.3
	c2.1-1.2,4.5-1.8,7.2-1.8c1.8,0,3.4,0.2,4.9,0.7c1.5,0.5,2.8,1.2,4,2.2c1.2,0.9,2.1,2.1,2.8,3.4C559.4,44.3,559.8,45.9,560,47.6z
	 M592.5,52.2c0,3.3-0.6,6.1-1.9,8.4c-1.2,2.3-2.9,4.1-5.1,5.3c-2.1,1.2-4.5,1.8-7.2,1.8c-2.7,0-5.1-0.6-7.2-1.8
	c-2.1-1.2-3.8-3-5.1-5.3c-1.2-2.3-1.9-5.1-1.9-8.4c0-3.3,0.6-6.1,1.9-8.4c1.2-2.3,2.9-4.1,5.1-5.3c2.1-1.2,4.6-1.8,7.2-1.8
	c2.7,0,5.1,0.6,7.2,1.8c2.2,1.2,3.8,3,5.1,5.3C591.8,46.1,592.5,48.9,592.5,52.2z M586,52.2c0-2.1-0.3-3.9-1-5.4
	c-0.6-1.5-1.5-2.6-2.7-3.3c-1.2-0.8-2.5-1.1-4.1-1.1c-1.5,0-2.9,0.4-4.1,1.1c-1.2,0.8-2.1,1.9-2.7,3.3c-0.6,1.5-0.9,3.3-0.9,5.4
	c0,2.1,0.3,3.9,0.9,5.4c0.6,1.5,1.5,2.6,2.7,3.3c1.2,0.8,2.5,1.1,4.1,1.1c1.5,0,2.9-0.4,4.1-1.1c1.2-0.8,2-1.9,2.7-3.3
	C585.7,56.1,586,54.3,586,52.2z M622.6,37v30.3H617l-13.2-19.1h-0.2v19.1h-6.4V37h5.6l13.1,19.1h0.3V37H622.6z M626.7,42.3V37h24.9
	v5.3h-9.3v25H636v-25H626.7z M655.7,67.3V37h20.4v5.3h-14v7.2h13v5.3h-13V62h14.1v5.3H655.7z M697.6,45.7c-0.1-1.2-0.6-2.1-1.5-2.8
	c-0.9-0.7-2.1-1-3.7-1c-1,0-1.9,0.1-2.6,0.4c-0.7,0.3-1.3,0.7-1.7,1.2c-0.4,0.5-0.6,1.1-0.6,1.7c0,0.5,0.1,1,0.3,1.4
	c0.3,0.4,0.6,0.8,1,1.1c0.4,0.3,1,0.5,1.5,0.8c0.6,0.2,1.2,0.4,1.9,0.5l2.7,0.7c1.3,0.3,2.5,0.7,3.6,1.2c1.1,0.5,2.1,1.1,2.9,1.8
	c0.8,0.7,1.4,1.6,1.9,2.5c0.5,1,0.7,2.1,0.7,3.4c0,1.9-0.5,3.5-1.4,4.8c-0.9,1.4-2.3,2.4-4,3.2c-1.7,0.7-3.9,1.1-6.3,1.1
	c-2.4,0-4.6-0.4-6.4-1.1c-1.8-0.7-3.2-1.9-4.2-3.3c-1-1.5-1.5-3.3-1.6-5.5h6.2c0.1,1,0.4,1.9,0.9,2.5c0.5,0.7,1.2,1.2,2.1,1.5
	c0.9,0.3,1.9,0.5,3,0.5c1.1,0,2-0.2,2.8-0.5c0.8-0.3,1.4-0.8,1.9-1.3c0.4-0.6,0.7-1.2,0.7-1.9c0-0.7-0.2-1.3-0.6-1.7
	c-0.4-0.5-1-0.9-1.7-1.2c-0.8-0.3-1.7-0.6-2.8-0.9l-3.3-0.8c-2.6-0.6-4.6-1.6-6.1-2.9c-1.5-1.3-2.2-3.1-2.2-5.3
	c0-1.8,0.5-3.4,1.5-4.8c1-1.4,2.4-2.4,4.1-3.2c1.7-0.8,3.7-1.2,5.9-1.2c2.2,0,4.2,0.4,5.9,1.2c1.7,0.8,3,1.8,3.9,3.2s1.4,3,1.5,4.8
	H697.6z M707.3,42.3V37h24.9v5.3h-9.3v25h-6.3v-25H707.3z"/>
<path class="st1" d="M827.1,52.2c0,3.3-0.6,6.1-1.8,8.4c-1.2,2.3-2.9,4.1-5,5.3c-2.1,1.2-4.5,1.8-7.1,1.8s-5-0.6-7.1-1.8
	c-2.1-1.2-3.7-3-5-5.3c-1.2-2.3-1.8-5.1-1.8-8.4c0-3.3,0.6-6.1,1.8-8.4c1.2-2.3,2.9-4.1,5-5.3c2.1-1.2,4.5-1.8,7.1-1.8
	s5,0.6,7.1,1.8c2.1,1.2,3.8,3,5,5.3C826.4,46.1,827.1,48.9,827.1,52.2z M821.5,52.2c0-2.3-0.4-4.2-1.1-5.8c-0.7-1.6-1.7-2.8-3-3.6
	c-1.3-0.8-2.7-1.2-4.4-1.2c-1.6,0-3.1,0.4-4.4,1.2c-1.3,0.8-2.3,2-3,3.6c-0.7,1.6-1.1,3.5-1.1,5.8c0,2.3,0.4,4.2,1.1,5.8
	c0.7,1.6,1.7,2.8,3,3.6c1.3,0.8,2.7,1.2,4.4,1.2c1.6,0,3.1-0.4,4.4-1.2c1.3-0.8,2.2-2,3-3.6C821.2,56.4,821.5,54.5,821.5,52.2z
	 M857.1,37v30.3h-4.9L838,46.7h-0.3v20.6h-5.5V37h4.9l14.3,20.7h0.3V37H857.1z M863.1,67.3V37h5.5v25.7H882v4.6H863.1z M892.2,37
	v30.3h-5.5V37H892.2z M923.1,37v30.3h-4.9l-14.3-20.6h-0.3v20.6h-5.5V37h4.9l14.3,20.7h0.3V37H923.1z M929,67.3V37h19.7v4.6h-14.2
	v8.2h13.2v4.6h-13.2v8.3h14.3v4.6H929z"/>
<path class="st1" d="M258.2,17.7c0-0.6-0.5-1.2-1.2-1.2s-1.2,0.5-1.2,1.2H258.2z M255.8,17.7v70.1h2.3V17.7H255.8z"/>
<path class="st1" d="M763.2,17.7c0-0.6-0.5-1.2-1.2-1.2s-1.2,0.5-1.2,1.2H763.2z M760.8,17.7v70.1h2.3V17.7H760.8z"/>
<linearGradient id="SVGID_1_" gradientUnits="userSpaceOnUse" x1="646.4955" y1="53.3793" x2="-147.9014" y2="53.4464" gradientTransform="matrix(1 0 0 -1 0 355.8898)">
	<stop  offset="0" style="stop-color:#0A76C6"/>
	<stop  offset="1" style="stop-color:#84D6EE"/>
</linearGradient>
<path class="st2" d="M35,250h974c19.3,0,35,15.7,35,35v35c0,19.3-15.7,35-35,35H35c-19.3,0-35-15.7-35-35v-35
	C0,265.7,15.7,250,35,250z"/>
<path class="st3" d="M348,287.3v30.3h-5.5l-13.2-19.1H329v19.1h-6.4v-30.3h5.6l13.1,19.1h0.3v-19.1H348z M358.5,317.6h-6.9
	l10.5-30.3h8.3l10.4,30.3h-6.9l-7.6-23.4h-0.2L358.5,317.6z M358.1,305.7h16.2v5h-16.2V305.7z M379.6,292.6v-5.3h24.9v5.3h-9.3v25
	h-6.3v-25H379.6z M415,287.3v30.3h-6.4v-30.3H415z M448.1,302.5c0,3.3-0.6,6.1-1.9,8.4c-1.2,2.3-2.9,4.1-5.1,5.3
	c-2.1,1.2-4.5,1.8-7.2,1.8c-2.7,0-5.1-0.6-7.2-1.8c-2.1-1.2-3.8-3-5.1-5.3c-1.2-2.3-1.9-5.1-1.9-8.4c0-3.3,0.6-6.1,1.9-8.4
	c1.2-2.3,2.9-4.1,5.1-5.3c2.1-1.2,4.6-1.8,7.2-1.8c2.7,0,5.1,0.6,7.2,1.8c2.1,1.2,3.8,3,5.1,5.3
	C447.4,296.4,448.1,299.2,448.1,302.5z M441.6,302.5c0-2.1-0.3-3.9-1-5.4c-0.6-1.5-1.5-2.6-2.7-3.3c-1.2-0.8-2.5-1.1-4.1-1.1
	c-1.5,0-2.9,0.4-4.1,1.1c-1.2,0.8-2.1,1.9-2.7,3.3c-0.6,1.5-0.9,3.3-0.9,5.4c0,2.1,0.3,3.9,0.9,5.4c0.6,1.5,1.5,2.6,2.7,3.3
	c1.2,0.8,2.5,1.1,4.1,1.1c1.5,0,2.9-0.4,4.1-1.1c1.2-0.8,2-1.9,2.7-3.3C441.3,306.4,441.6,304.6,441.6,302.5z M478.2,287.3v30.3
	h-5.5l-13.2-19.1h-0.2v19.1h-6.4v-30.3h5.6l13.1,19.1h0.3v-19.1H478.2z M488.7,317.6h-6.9l10.5-30.3h8.3l10.4,30.3h-6.9l-7.6-23.4
	h-0.2L488.7,317.6z M488.2,305.7h16.2v5h-16.2V305.7z M514.6,317.6v-30.3h6.4v25h13v5.3H514.6z M547.9,317.6v-30.3h12
	c2.3,0,4.2,0.4,5.9,1.2c1.6,0.8,2.9,2,3.7,3.4c0.9,1.5,1.3,3.2,1.3,5.2c0,2-0.4,3.7-1.3,5.2c-0.9,1.4-2.1,2.5-3.8,3.3
	c-1.6,0.8-3.6,1.2-5.9,1.2h-8v-5.1h7c1.2,0,2.2-0.2,3-0.5c0.8-0.3,1.4-0.8,1.8-1.5c0.4-0.7,0.6-1.5,0.6-2.5c0-1-0.2-1.9-0.6-2.5
	c-0.4-0.7-1-1.2-1.8-1.6c-0.8-0.4-1.8-0.5-3.1-0.5h-4.3v25.1H547.9z M564.3,303.9l7.5,13.8h-7.1l-7.4-13.8H564.3z M603.1,302.5
	c0,3.3-0.6,6.1-1.9,8.4c-1.2,2.3-2.9,4.1-5.1,5.3c-2.1,1.2-4.5,1.8-7.2,1.8c-2.7,0-5.1-0.6-7.2-1.8c-2.1-1.2-3.8-3-5.1-5.3
	c-1.2-2.3-1.9-5.1-1.9-8.4c0-3.3,0.6-6.1,1.9-8.4c1.2-2.3,2.9-4.1,5.1-5.3c2.1-1.2,4.6-1.8,7.2-1.8c2.7,0,5.1,0.6,7.2,1.8
	c2.2,1.2,3.8,3,5.1,5.3C602.4,296.4,603.1,299.2,603.1,302.5z M596.6,302.5c0-2.1-0.3-3.9-1-5.4c-0.6-1.5-1.5-2.6-2.7-3.3
	c-1.2-0.8-2.5-1.1-4.1-1.1c-1.5,0-2.9,0.4-4.1,1.1c-1.2,0.8-2.1,1.9-2.7,3.3c-0.6,1.5-0.9,3.3-0.9,5.4c0,2.1,0.3,3.9,0.9,5.4
	c0.6,1.5,1.5,2.6,2.7,3.3c1.2,0.8,2.5,1.1,4.1,1.1c1.5,0,2.9-0.4,4.1-1.1c1.2-0.8,2-1.9,2.7-3.3
	C596.3,306.4,596.6,304.6,596.6,302.5z M626.5,287.3h6.4V307c0,2.2-0.5,4.1-1.6,5.8c-1,1.7-2.5,2.9-4.4,3.9
	c-1.9,0.9-4.1,1.4-6.6,1.4c-2.5,0-4.7-0.5-6.6-1.4c-1.9-0.9-3.3-2.2-4.4-3.9c-1-1.7-1.6-3.6-1.6-5.8v-19.7h6.4v19.1
	c0,1.2,0.3,2.2,0.8,3.1c0.5,0.9,1.2,1.6,2.2,2.1c0.9,0.5,2,0.8,3.2,0.8c1.2,0,2.3-0.3,3.2-0.8c0.9-0.5,1.6-1.2,2.1-2.1
	c0.5-0.9,0.8-1.9,0.8-3.1V287.3z M663.5,287.3v30.3H658l-13.2-19.1h-0.2v19.1h-6.4v-30.3h5.6l13.1,19.1h0.3v-19.1H663.5z
	 M679.6,317.6h-10.7v-30.3h10.8c3,0,5.7,0.6,7.9,1.8c2.2,1.2,3.9,2.9,5.1,5.2c1.2,2.3,1.8,5,1.8,8.1c0,3.2-0.6,5.9-1.8,8.1
	c-1.2,2.3-2.9,4-5.1,5.2C685.3,317,682.7,317.6,679.6,317.6z M675.2,312.2h4.1c1.9,0,3.5-0.3,4.8-1c1.3-0.7,2.3-1.7,2.9-3.2
	c0.7-1.4,1-3.3,1-5.5c0-2.2-0.3-4.1-1-5.5c-0.7-1.4-1.6-2.5-2.9-3.1c-1.3-0.7-2.9-1-4.8-1h-4.1V312.2z"/>
<path class="st3" d="M813.7,276.4v18.1h-2.9l-8.5-12.3h-0.2v12.3h-3.3v-18.1h2.9l8.5,12.3h0.2v-12.3H813.7z M833.4,285.4
	c0,2-0.4,3.6-1.1,5c-0.7,1.4-1.7,2.4-3,3.2c-1.2,0.7-2.7,1.1-4.3,1.1s-3-0.4-4.3-1.1c-1.2-0.7-2.2-1.8-3-3.2c-0.7-1.4-1.1-3.1-1.1-5
	c0-2,0.4-3.6,1.1-5c0.7-1.4,1.7-2.5,3-3.2c1.3-0.7,2.7-1.1,4.3-1.1s3,0.4,4.3,1.1c1.3,0.7,2.2,1.8,3,3.2
	C833.1,281.8,833.4,283.5,833.4,285.4z M830.1,285.4c0-1.4-0.2-2.5-0.6-3.5c-0.4-0.9-1-1.7-1.8-2.1c-0.8-0.5-1.6-0.7-2.6-0.7
	s-1.9,0.2-2.6,0.7c-0.8,0.5-1.3,1.2-1.8,2.1c-0.4,0.9-0.6,2.1-0.6,3.5s0.2,2.5,0.6,3.5c0.4,0.9,1,1.7,1.8,2.1
	c0.8,0.5,1.6,0.7,2.6,0.7s1.9-0.2,2.6-0.7c0.8-0.5,1.3-1.2,1.8-2.1C829.9,287.9,830.1,286.8,830.1,285.4z M834.9,279.1v-2.8h14.5
	v2.8h-5.6v15.4h-3.3v-15.4H834.9z M852.2,294.5v-18.1h6.8c1.4,0,2.6,0.2,3.5,0.7c1,0.5,1.7,1.2,2.1,2c0.5,0.9,0.7,1.9,0.7,3
	c0,1.2-0.2,2.2-0.7,3c-0.5,0.8-1.2,1.5-2.2,2c-1,0.5-2.1,0.7-3.5,0.7h-4.8v-2.7h4.4c0.8,0,1.5-0.1,2-0.3c0.5-0.2,0.9-0.6,1.2-1
	c0.3-0.4,0.4-1,0.4-1.6c0-0.6-0.1-1.2-0.4-1.6c-0.3-0.5-0.6-0.8-1.2-1c-0.5-0.2-1.2-0.4-2-0.4h-3v15.4H852.2z M861.5,286.3l4.5,8.2
	h-3.7l-4.4-8.2H861.5z M868.4,294.5v-18.1h11.8v2.8h-8.5v4.9h7.9v2.8h-7.9v4.9h8.6v2.8H868.4z M895.8,294.5h-6.1v-18.1h6.3
	c1.8,0,3.3,0.4,4.6,1.1c1.3,0.7,2.3,1.8,3,3.1c0.7,1.3,1,3,1,4.8c0,1.9-0.4,3.5-1.1,4.9c-0.7,1.4-1.7,2.4-3,3.1
	C899.2,294.1,897.7,294.5,895.8,294.5z M893,291.6h2.7c1.3,0,2.3-0.2,3.2-0.7c0.8-0.5,1.5-1.2,1.9-2.1c0.4-0.9,0.6-2.1,0.6-3.5
	c0-1.4-0.2-2.5-0.6-3.4c-0.4-0.9-1.1-1.6-1.9-2.1c-0.8-0.5-1.9-0.7-3.1-0.7H893V291.6z M909.1,294.5h-3.5l6.4-18.1h4.1l6.4,18.1
	h-3.5l-4.8-14.4h-0.1L909.1,294.5z M909.2,287.4h9.6v2.6h-9.6V287.4z M924.8,276.4h4l5.4,13.1h0.2l5.4-13.1h4v18.1h-3.1V282h-0.2
	l-5,12.4h-2.4l-5-12.4h-0.2v12.5h-3.1V276.4z M947.3,294.5v-18.1h11.8v2.8h-8.5v4.9h7.9v2.8h-7.9v4.9h8.6v2.8H947.3z M814.3,312.5
	H811c-0.1-0.5-0.3-1-0.5-1.4c-0.3-0.4-0.6-0.8-0.9-1.1c-0.4-0.3-0.8-0.5-1.3-0.7c-0.5-0.2-1-0.2-1.5-0.2c-1,0-1.9,0.2-2.6,0.7
	c-0.8,0.5-1.4,1.2-1.8,2.2c-0.4,0.9-0.6,2.1-0.6,3.5c0,1.4,0.2,2.6,0.6,3.5c0.4,0.9,1,1.7,1.8,2.1c0.8,0.5,1.6,0.7,2.6,0.7
	c0.5,0,1-0.1,1.5-0.2c0.5-0.1,0.9-0.4,1.3-0.6c0.4-0.3,0.7-0.6,1-1c0.3-0.4,0.4-0.9,0.5-1.4l3.3,0c-0.1,0.9-0.4,1.7-0.8,2.4
	c-0.4,0.8-0.9,1.4-1.6,2c-0.7,0.6-1.4,1-2.3,1.3c-0.9,0.3-1.9,0.5-2.9,0.5c-1.6,0-3-0.4-4.3-1.1s-2.2-1.8-3-3.2
	c-0.7-1.4-1.1-3.1-1.1-5c0-2,0.4-3.6,1.1-5c0.7-1.4,1.7-2.5,3-3.2s2.7-1.1,4.2-1.1c1,0,1.9,0.1,2.8,0.4c0.9,0.3,1.6,0.7,2.3,1.2
	c0.7,0.5,1.2,1.2,1.7,2C813.9,310.6,814.2,311.5,814.3,312.5z M833.5,315.4c0,2-0.4,3.6-1.1,5c-0.7,1.4-1.7,2.4-3,3.2
	c-1.2,0.7-2.7,1.1-4.3,1.1s-3-0.4-4.3-1.1c-1.2-0.7-2.2-1.8-3-3.2c-0.7-1.4-1.1-3.1-1.1-5c0-2,0.4-3.6,1.1-5c0.7-1.4,1.7-2.5,3-3.2
	c1.3-0.7,2.7-1.1,4.3-1.1s3,0.4,4.3,1.1c1.3,0.7,2.2,1.8,3,3.2C833.1,311.8,833.5,313.5,833.5,315.4z M830.2,315.4
	c0-1.4-0.2-2.5-0.6-3.5c-0.4-0.9-1-1.7-1.8-2.1c-0.8-0.5-1.6-0.7-2.6-0.7c-1,0-1.9,0.2-2.6,0.7c-0.8,0.5-1.3,1.2-1.8,2.1
	c-0.4,0.9-0.6,2.1-0.6,3.5s0.2,2.5,0.6,3.5c0.4,0.9,1,1.7,1.8,2.1c0.8,0.5,1.6,0.7,2.6,0.7c1,0,1.9-0.2,2.6-0.7
	c0.8-0.5,1.3-1.2,1.8-2.1C830,317.9,830.2,316.8,830.2,315.4z M836.6,324.5v-18.1h3.3v15.4h8v2.8H836.6z M850.7,324.5v-18.1h3.3
	v15.4h8v2.8H850.7z M864.8,324.5v-18.1h11.8v2.8h-8.5v4.9h7.9v2.8h-7.9v4.9h8.6v2.8H864.8z M892.1,312.1c-0.1-0.5-0.4-0.9-0.6-1.3
	c-0.3-0.4-0.6-0.7-0.9-1c-0.4-0.3-0.8-0.5-1.2-0.6c-0.5-0.1-1-0.2-1.5-0.2c-1,0-1.8,0.2-2.6,0.7c-0.8,0.5-1.4,1.2-1.8,2.2
	c-0.4,0.9-0.6,2.1-0.6,3.4c0,1.4,0.2,2.5,0.6,3.5c0.4,1,1,1.7,1.8,2.2c0.8,0.5,1.7,0.7,2.7,0.7c0.9,0,1.7-0.2,2.4-0.5
	c0.7-0.4,1.2-0.9,1.6-1.5c0.4-0.7,0.5-1.4,0.5-2.3l0.7,0.1h-4.9V315h7.3v2.2c0,1.6-0.3,2.9-1,4c-0.7,1.1-1.6,2-2.7,2.6
	c-1.2,0.6-2.5,0.9-4,0.9c-1.7,0-3.1-0.4-4.4-1.1c-1.3-0.8-2.2-1.8-2.9-3.2c-0.7-1.4-1.1-3-1.1-5c0-1.5,0.2-2.8,0.6-3.9
	c0.4-1.1,1-2.1,1.8-2.9c0.7-0.8,1.6-1.4,2.6-1.8c1-0.4,2.1-0.6,3.3-0.6c1,0,1.9,0.1,2.8,0.4c0.9,0.3,1.6,0.7,2.3,1.2
	c0.7,0.5,1.2,1.2,1.7,1.9c0.4,0.7,0.7,1.5,0.9,2.4H892.1z M898.7,324.5v-18.1h11.8v2.8H902v4.9h7.9v2.8H902v4.9h8.6v2.8H898.7z
	 M917.5,322l-0.1,1c-0.1,0.7-0.2,1.5-0.4,2.3c-0.2,0.8-0.4,1.5-0.7,2.1c-0.2,0.6-0.4,1.2-0.6,1.5h-2.2c0.1-0.4,0.2-0.8,0.3-1.5
	c0.1-0.6,0.3-1.3,0.4-2.1c0.1-0.8,0.2-1.6,0.3-2.4l0.1-1H917.5z M927.3,324.5h-6.1v-18.1h6.3c1.8,0,3.3,0.4,4.6,1.1
	c1.3,0.7,2.3,1.8,3,3.1c0.7,1.3,1,3,1,4.8c0,1.9-0.4,3.5-1.1,4.9c-0.7,1.4-1.7,2.4-3,3.1C930.8,324.1,929.2,324.5,927.3,324.5z
	 M924.5,321.6h2.7c1.3,0,2.3-0.2,3.2-0.7c0.8-0.5,1.5-1.2,1.9-2.1c0.4-0.9,0.6-2.1,0.6-3.5c0-1.4-0.2-2.5-0.6-3.4
	c-0.4-0.9-1.1-1.6-1.9-2.1c-0.8-0.5-1.9-0.7-3.1-0.7h-2.8V321.6z M939.2,324.5v-18.1h3.3v7.7h8.4v-7.7h3.3v18.1h-3.3v-7.7h-8.4v7.7
	H939.2z M960.1,324.5h-3.5l6.4-18.1h4.1l6.4,18.1h-3.5l-4.8-14.4h-0.1L960.1,324.5z M960.2,317.4h9.6v2.6h-9.6V317.4z M975.8,324.5
	v-18.1h3.3v8.3h0.2l7.1-8.3h4l-7,8.1l7.1,10h-3.9l-5.4-7.8l-2,2.4v5.4H975.8z M995,324.5h-3.5l6.4-18.1h4l6.4,18.1h-3.5l-4.8-14.4
	h-0.1L995,324.5z M995.1,317.4h9.5v2.6h-9.5V317.4z"/>
<path class="st3" d="M258.2,268c0-0.6-0.5-1.2-1.2-1.2s-1.2,0.5-1.2,1.2H258.2z M255.8,268v70.1h2.3V268H255.8z"/>
<path class="st3" d="M763.2,268c0-0.6-0.5-1.2-1.2-1.2s-1.2,0.5-1.2,1.2H763.2z M760.8,268v70.1h2.3V268H760.8z"/>
<path class="st0" d="M35,125h974c19.3,0,35,15.7,35,35v35c0,19.3-15.7,35-35,35H35c-19.3,0-35-15.7-35-35v-35
	C0,140.7,15.7,125,35,125z"/>
<path class="st1" d="M258.2,143c0-0.6-0.5-1.2-1.2-1.2s-1.2,0.5-1.2,1.2H258.2z M255.8,143v70.1h2.3V143H255.8z"/>
<path class="st1" d="M763.2,143c0-0.6-0.5-1.2-1.2-1.2s-1.2,0.5-1.2,1.2H763.2z M760.8,143v70.1h2.3V143H760.8z"/>
<path class="st1" d="M289.6,192.6v-30.3h12c2.3,0,4.3,0.4,5.9,1.3c1.6,0.9,2.9,2.1,3.7,3.6c0.9,1.5,1.3,3.3,1.3,5.3
	c0,2-0.4,3.8-1.3,5.3c-0.9,1.5-2.1,2.7-3.8,3.6c-1.6,0.9-3.6,1.3-5.9,1.3h-7.6v-5.1h6.6c1.2,0,2.2-0.2,3-0.6c0.8-0.4,1.4-1,1.8-1.8
	c0.4-0.8,0.6-1.7,0.6-2.6c0-1-0.2-1.9-0.6-2.6c-0.4-0.8-1-1.3-1.8-1.8c-0.8-0.4-1.8-0.6-3.1-0.6H296v25.1H289.6z M316.6,192.6v-30.3
	h12c2.3,0,4.2,0.4,5.9,1.2c1.6,0.8,2.9,2,3.7,3.4c0.9,1.5,1.3,3.2,1.3,5.2c0,2-0.4,3.7-1.3,5.2c-0.9,1.4-2.1,2.5-3.8,3.3
	c-1.6,0.8-3.6,1.2-5.9,1.2h-8v-5.1h7c1.2,0,2.2-0.2,3-0.5c0.8-0.3,1.4-0.8,1.8-1.5c0.4-0.7,0.6-1.5,0.6-2.5c0-1-0.2-1.9-0.6-2.5
	c-0.4-0.7-1-1.2-1.8-1.6c-0.8-0.4-1.8-0.5-3.1-0.5H323v25.1H316.6z M333,178.9l7.5,13.8h-7.1l-7.4-13.8H333z M343.9,192.6v-30.3
	h20.4v5.3h-14v7.2h13v5.3h-13v7.2h14.1v5.3H343.9z M369.5,192.6v-30.3h6.4v25h13v5.3H369.5z M399.5,162.3v30.3h-6.4v-30.3H399.5z
	 M404.8,162.3h7.9l8.3,20.4h0.4l8.3-20.4h7.9v30.3h-6.2v-19.7h-0.3l-7.8,19.6h-4.2l-7.8-19.6H411v19.8h-6.2V162.3z M449.3,162.3
	v30.3h-6.4v-30.3H449.3z M479.9,162.3v30.3h-5.5l-13.2-19.1H461v19.1h-6.4v-30.3h5.6l13.1,19.1h0.3v-19.1H479.9z M490.4,192.6h-6.9
	l10.5-30.3h8.3l10.4,30.3h-6.9l-7.6-23.4H498L490.4,192.6z M490,180.7h16.2v5H490V180.7z M516.4,192.6v-30.3h12
	c2.3,0,4.2,0.4,5.9,1.2c1.6,0.8,2.9,2,3.7,3.4c0.9,1.5,1.3,3.2,1.3,5.2c0,2-0.4,3.7-1.3,5.2c-0.9,1.4-2.1,2.5-3.8,3.3
	c-1.6,0.8-3.6,1.2-5.9,1.2h-8v-5.1h7c1.2,0,2.2-0.2,3-0.5c0.8-0.3,1.4-0.8,1.8-1.5c0.4-0.7,0.6-1.5,0.6-2.5c0-1-0.2-1.9-0.6-2.5
	c-0.4-0.7-1-1.2-1.8-1.6c-0.8-0.4-1.8-0.5-3.1-0.5h-4.3v25.1H516.4z M532.7,178.9l7.5,13.8h-7.1l-7.4-13.8H532.7z M540.7,162.3h7.2
	l6.9,13h0.3l6.9-13h7.2l-11.1,19.6v10.7h-6.4v-10.7L540.7,162.3z M582.3,192.6v-30.3h12c2.3,0,4.2,0.4,5.9,1.2
	c1.6,0.8,2.9,2,3.7,3.4c0.9,1.5,1.3,3.2,1.3,5.2c0,2-0.4,3.7-1.3,5.2c-0.9,1.4-2.1,2.5-3.8,3.3c-1.6,0.8-3.6,1.2-5.9,1.2h-8v-5.1h7
	c1.2,0,2.2-0.2,3-0.5c0.8-0.3,1.4-0.8,1.8-1.5c0.4-0.7,0.6-1.5,0.6-2.5c0-1-0.2-1.9-0.6-2.5c-0.4-0.7-1-1.2-1.8-1.6
	c-0.8-0.4-1.8-0.5-3.1-0.5h-4.3v25.1H582.3z M598.6,178.9l7.5,13.8h-7.1l-7.4-13.8H598.6z M637.4,177.5c0,3.3-0.6,6.1-1.9,8.4
	c-1.2,2.3-2.9,4.1-5.1,5.3c-2.1,1.2-4.5,1.8-7.2,1.8c-2.7,0-5.1-0.6-7.2-1.8c-2.1-1.2-3.8-3-5.1-5.3c-1.2-2.3-1.9-5.1-1.9-8.4
	c0-3.3,0.6-6.1,1.9-8.4c1.2-2.3,2.9-4.1,5.1-5.3c2.1-1.2,4.6-1.8,7.2-1.8c2.7,0,5.1,0.6,7.2,1.8c2.2,1.2,3.8,3,5.1,5.3
	C636.8,171.4,637.4,174.2,637.4,177.5z M630.9,177.5c0-2.1-0.3-3.9-1-5.4c-0.6-1.5-1.5-2.6-2.7-3.3c-1.2-0.8-2.5-1.1-4.1-1.1
	c-1.5,0-2.9,0.4-4.1,1.1c-1.2,0.8-2.1,1.9-2.7,3.3c-0.6,1.5-0.9,3.3-0.9,5.4c0,2.1,0.3,3.9,0.9,5.4c0.6,1.5,1.5,2.6,2.7,3.3
	c1.2,0.8,2.5,1.1,4.1,1.1c1.5,0,2.9-0.4,4.1-1.1c1.2-0.8,2-1.9,2.7-3.3C630.6,181.4,630.9,179.6,630.9,177.5z M660.9,162.3h6.4V182
	c0,2.2-0.5,4.1-1.6,5.8c-1,1.7-2.5,2.9-4.4,3.9c-1.9,0.9-4.1,1.4-6.6,1.4c-2.5,0-4.7-0.5-6.6-1.4c-1.9-0.9-3.3-2.2-4.4-3.9
	c-1-1.7-1.6-3.6-1.6-5.8v-19.7h6.4v19.1c0,1.2,0.3,2.2,0.8,3.1c0.5,0.9,1.2,1.6,2.2,2.1c0.9,0.5,2,0.8,3.2,0.8
	c1.2,0,2.3-0.3,3.2-0.8c0.9-0.5,1.6-1.2,2.1-2.1c0.5-0.9,0.8-1.9,0.8-3.1V162.3z M697.9,162.3v30.3h-5.5l-13.2-19.1H679v19.1h-6.4
	v-30.3h5.6l13.1,19.1h0.3v-19.1H697.9z M714,192.6h-10.7v-30.3H714c3,0,5.7,0.6,7.9,1.8c2.2,1.2,3.9,2.9,5.1,5.2
	c1.2,2.3,1.8,5,1.8,8.1c0,3.2-0.6,5.9-1.8,8.1c-1.2,2.3-2.9,4-5.1,5.2C719.7,192,717,192.6,714,192.6z M709.6,187.2h4.1
	c1.9,0,3.5-0.3,4.8-1c1.3-0.7,2.3-1.7,2.9-3.2c0.7-1.4,1-3.3,1-5.5c0-2.2-0.3-4.1-1-5.5c-0.7-1.4-1.6-2.5-2.9-3.1
	c-1.3-0.7-2.9-1-4.8-1h-4.1V187.2z"/>
<path class="st1" d="M827.1,177.5c0,3.3-0.6,6.1-1.8,8.4c-1.2,2.3-2.9,4.1-5,5.3c-2.1,1.2-4.5,1.8-7.1,1.8s-5-0.6-7.1-1.8
	c-2.1-1.2-3.7-3-5-5.3c-1.2-2.3-1.8-5.1-1.8-8.4c0-3.3,0.6-6.1,1.8-8.4c1.2-2.3,2.9-4.1,5-5.3c2.1-1.2,4.5-1.8,7.1-1.8
	s5,0.6,7.1,1.8c2.1,1.2,3.8,3,5,5.3C826.4,171.4,827.1,174.2,827.1,177.5z M821.5,177.5c0-2.3-0.4-4.2-1.1-5.8
	c-0.7-1.6-1.7-2.8-3-3.6c-1.3-0.8-2.7-1.2-4.4-1.2c-1.6,0-3.1,0.4-4.4,1.2c-1.3,0.8-2.3,2-3,3.6c-0.7,1.6-1.1,3.5-1.1,5.8
	s0.4,4.2,1.1,5.8c0.7,1.6,1.7,2.8,3,3.6c1.3,0.8,2.7,1.2,4.4,1.2c1.6,0,3.1-0.4,4.4-1.2c1.3-0.8,2.2-2,3-3.6
	C821.2,181.7,821.5,179.8,821.5,177.5z M857.1,162.4v30.3h-4.9L838,172h-0.3v20.6h-5.5v-30.3h4.9l14.3,20.7h0.3v-20.7H857.1z
	 M863.1,192.6v-30.3h5.5V188H882v4.6H863.1z M892.2,162.4v30.3h-5.5v-30.3H892.2z M923.1,162.4v30.3h-4.9L903.9,172h-0.3v20.6h-5.5
	v-30.3h4.9l14.3,20.7h0.3v-20.7H923.1z M929,192.6v-30.3h19.7v4.6h-14.2v8.2h13.2v4.6h-13.2v8.3h14.3v4.6H929z"/>
<g>
	<path class="st3" d="M69.7,292.9v-5.4h10.1v30.6h-6v-25.2H69.7z"/>
	<path class="st3" d="M88.3,291c1.7-2.7,4.7-4.1,8.7-4.1c4.1,0,7,1.4,8.7,4.1s2.6,6.5,2.6,11.4c0,4.9-0.9,8.7-2.6,11.5
		c-1.8,2.8-4.7,4.2-8.7,4.2c-4.1,0-7-1.4-8.7-4.2c-1.8-2.8-2.6-6.6-2.6-11.5C85.6,297.6,86.5,293.8,88.3,291z M102.1,297.2
		c-0.3-1.4-0.8-2.6-1.6-3.5c-0.8-0.9-2-1.3-3.5-1.3c-1.6,0-2.8,0.4-3.5,1.3c-0.8,0.9-1.3,2.1-1.6,3.5s-0.4,3.2-0.4,5.2
		c0,2.1,0.1,3.9,0.4,5.4s0.8,2.6,1.6,3.5c0.8,0.9,2,1.3,3.6,1.3c1.6,0,2.8-0.4,3.6-1.3c0.8-0.9,1.3-2,1.6-3.5s0.4-3.2,0.4-5.4
		C102.5,300.3,102.4,298.6,102.1,297.2z"/>
	<path class="st3" d="M155.4,288.8v29.3h-5.9V299l-7.9,19.1h-4.5l-7.9-19.1v19.1h-5.9v-29.3h6.7l9.3,21.8l9.3-21.8H155.4z"/>
	<path class="st3" d="M179.2,312.5h-11.7l-1.9,5.6h-6.2l10.5-29.4h6.8l10.5,29.4h-6.2L179.2,312.5z M177.6,307.8l-4.2-12.3
		l-4.2,12.3H177.6z"/>
	<path class="st3" d="M214.6,288.8l-9.9,19.1v10.2h-5.9v-10.2l-10-19.1h6.6l6.3,13.4l6.3-13.4H214.6z"/>
</g>
<g>
	<path class="st1" d="M73.1,166.1c1.7-2.7,4.7-4.1,8.7-4.1c4.1,0,7,1.4,8.7,4.1s2.6,6.5,2.6,11.4c0,4.9-0.9,8.7-2.6,11.5
		c-1.8,2.8-4.7,4.2-8.7,4.2c-4.1,0-7-1.4-8.7-4.2c-1.8-2.8-2.6-6.6-2.6-11.5C70.4,172.6,71.3,168.8,73.1,166.1z M86.9,172.2
		c-0.3-1.4-0.8-2.6-1.6-3.5c-0.8-0.9-2-1.3-3.5-1.3c-1.6,0-2.8,0.4-3.5,1.3c-0.8,0.9-1.3,2.1-1.6,3.5s-0.4,3.2-0.4,5.2
		c0,2.1,0.1,3.9,0.4,5.4s0.8,2.6,1.6,3.5c0.8,0.9,2,1.3,3.6,1.3c1.6,0,2.8-0.4,3.6-1.3c0.8-0.9,1.3-2,1.6-3.5s0.4-3.2,0.4-5.4
		C87.3,175.4,87.2,173.6,86.9,172.2z"/>
	<path class="st1" d="M99.4,186.5c2.7-2.2,4.8-4.1,6.4-5.6c1.6-1.5,2.9-3.1,4-4.7c1.1-1.6,1.6-3.2,1.6-4.8c0-1.4-0.3-2.5-1-3.4
		c-0.7-0.8-1.7-1.2-3.1-1.2c-1.4,0-2.5,0.5-3.2,1.4c-0.8,0.9-1.1,2.2-1.2,3.8h-5.7c0.1-3.4,1.1-5.9,3-7.6s4.3-2.6,7.2-2.6
		c3.2,0,5.6,0.8,7.3,2.5c1.7,1.7,2.6,3.9,2.6,6.7c0,2.2-0.6,4.3-1.8,6.3c-1.2,2-2.5,3.7-4,5.2c-1.5,1.5-3.5,3.2-5.9,5.3H118v4.9
		H97.2v-4.4L99.4,186.5z"/>
	<path class="st1" d="M164.3,163.8v29.3h-5.9v-19.1l-7.9,19.1h-4.5l-7.9-19.1v19.1h-5.9v-29.3h6.7l9.3,21.8l9.3-21.8H164.3z"/>
	<path class="st1" d="M188.1,187.6h-11.7l-1.9,5.6h-6.2l10.5-29.4h6.8l10.5,29.4H190L188.1,187.6z M186.5,182.9l-4.2-12.3l-4.2,12.3
		H186.5z"/>
	<path class="st1" d="M223.5,163.8l-9.9,19.1v10.2h-5.9v-10.2l-10-19.1h6.6l6.3,13.4l6.3-13.4H223.5z"/>
</g>
<g>
	<path class="st1" d="M73.1,40.7c1.7-2.7,4.7-4.1,8.7-4.1c4.1,0,7,1.4,8.7,4.1s2.6,6.5,2.6,11.4c0,4.9-0.9,8.7-2.6,11.5
		c-1.8,2.8-4.7,4.2-8.7,4.2c-4.1,0-7-1.4-8.7-4.2c-1.8-2.8-2.6-6.6-2.6-11.5C70.4,47.2,71.3,43.4,73.1,40.7z M86.9,46.8
		c-0.3-1.4-0.8-2.6-1.6-3.5c-0.8-0.9-2-1.3-3.5-1.3c-1.6,0-2.8,0.4-3.5,1.3c-0.8,0.9-1.3,2.1-1.6,3.5s-0.4,3.2-0.4,5.2
		c0,2.1,0.1,3.9,0.4,5.4s0.8,2.6,1.6,3.5c0.8,0.9,2,1.3,3.6,1.3c1.6,0,2.8-0.4,3.6-1.3c0.8-0.9,1.3-2,1.6-3.5s0.4-3.2,0.4-5.4
		C87.3,50,87.2,48.3,86.9,46.8z"/>
	<path class="st1" d="M96.9,42.6v-5.4H107v30.6h-6V42.6H96.9z"/>
	<path class="st1" d="M155.4,38.5v29.3h-5.9V48.7l-7.9,19.1h-4.5l-7.9-19.1v19.1h-5.9V38.5h6.7l9.3,21.8l9.3-21.8H155.4z"/>
	<path class="st1" d="M179.2,62.2h-11.7l-1.9,5.6h-6.2l10.5-29.4h6.8l10.5,29.4h-6.2L179.2,62.2z M177.6,57.5l-4.2-12.3l-4.2,12.3
		H177.6z"/>
	<path class="st1" d="M214.6,38.5l-9.9,19.1v10.2h-5.9V57.6l-10-19.1h6.6l6.3,13.4l6.3-13.4H214.6z"/>
</g>
</svg>
