<svg width="818" height="755" viewBox="0 0 818 755" fill="none" xmlns="http://www.w3.org/2000/svg">
<rect width="818" height="236" rx="35.0144" fill="#D1FFD9"/>
<rect y="260" width="818" height="236" rx="35.0144" fill="#D1FFD9"/>
<rect y="519" width="818" height="236" rx="35.0144" fill="url(#paint0_linear_11_61)"/>
<path d="M253.058 110V75.0909H266.83C269.478 75.0909 271.734 75.5966 273.597 76.608C275.461 77.608 276.881 79 277.859 80.7841C278.847 82.5568 279.342 84.6023 279.342 86.9205C279.342 89.2386 278.842 91.2841 277.842 93.0568C276.842 94.8295 275.393 96.2102 273.495 97.1989C271.609 98.1875 269.325 98.6818 266.643 98.6818H257.864V92.767H265.45C266.87 92.767 268.04 92.5227 268.961 92.0341C269.893 91.5341 270.586 90.8466 271.04 89.9716C271.506 89.0852 271.739 88.0682 271.739 86.9205C271.739 85.7614 271.506 84.75 271.04 83.8864C270.586 83.0114 269.893 82.3352 268.961 81.858C268.029 81.3693 266.847 81.125 265.415 81.125H260.438V110H253.058ZM284.136 110V75.0909H297.908C300.545 75.0909 302.795 75.5625 304.658 76.5057C306.533 77.4375 307.96 78.7614 308.937 80.4773C309.925 82.1818 310.42 84.1875 310.42 86.4943C310.42 88.8125 309.92 90.8068 308.92 92.4773C307.92 94.1364 306.471 95.4091 304.573 96.2955C302.687 97.1818 300.403 97.625 297.721 97.625H288.499V91.6932H296.528C297.937 91.6932 299.107 91.5 300.039 91.1136C300.971 90.7273 301.664 90.1477 302.119 89.375C302.585 88.6023 302.817 87.642 302.817 86.4943C302.817 85.3352 302.585 84.358 302.119 83.5625C301.664 82.767 300.965 82.1648 300.022 81.7557C299.09 81.3352 297.914 81.125 296.494 81.125H291.516V110H284.136ZM302.988 94.1136L311.664 110H303.516L295.028 94.1136H302.988ZM321.653 110H313.744L325.795 75.0909H335.306L347.34 110H339.431L330.687 83.0682H330.414L321.653 110ZM321.158 96.2784H339.84V102.04H321.158V96.2784ZM380.702 87.3125H373.237C373.1 86.3466 372.822 85.4886 372.401 84.7386C371.981 83.9773 371.441 83.3295 370.782 82.7955C370.123 82.2614 369.362 81.8523 368.498 81.5682C367.646 81.2841 366.719 81.142 365.719 81.142C363.913 81.142 362.339 81.5909 360.998 82.4886C359.657 83.375 358.617 84.6705 357.879 86.375C357.14 88.0682 356.771 90.125 356.771 92.5455C356.771 95.0341 357.14 97.125 357.879 98.8182C358.629 100.511 359.674 101.79 361.015 102.653C362.356 103.517 363.907 103.949 365.668 103.949C366.657 103.949 367.572 103.818 368.413 103.557C369.265 103.295 370.021 102.915 370.68 102.415C371.339 101.903 371.884 101.284 372.316 100.557C372.759 99.8295 373.066 99 373.237 98.0682L380.702 98.1023C380.509 99.7045 380.026 101.25 379.254 102.739C378.492 104.216 377.464 105.54 376.168 106.71C374.884 107.869 373.35 108.79 371.566 109.472C369.793 110.142 367.788 110.477 365.549 110.477C362.435 110.477 359.651 109.773 357.197 108.364C354.754 106.955 352.822 104.915 351.401 102.244C349.992 99.5739 349.288 96.3409 349.288 92.5455C349.288 88.7386 350.004 85.5 351.435 82.8295C352.867 80.1591 354.81 78.125 357.265 76.7273C359.719 75.3182 362.481 74.6136 365.549 74.6136C367.572 74.6136 369.447 74.8977 371.174 75.4659C372.913 76.0341 374.452 76.8636 375.793 77.9545C377.134 79.0341 378.225 80.358 379.066 81.9261C379.918 83.4943 380.464 85.2898 380.702 87.3125ZM384.665 81.1761V75.0909H413.336V81.1761H402.648V110H395.353V81.1761H384.665ZM425.438 75.0909V110H418.058V75.0909H425.438ZM462.312 87.3125H454.846C454.71 86.3466 454.431 85.4886 454.011 84.7386C453.59 83.9773 453.05 83.3295 452.391 82.7955C451.732 82.2614 450.971 81.8523 450.107 81.5682C449.255 81.2841 448.329 81.142 447.329 81.142C445.522 81.142 443.948 81.5909 442.607 82.4886C441.266 83.375 440.227 84.6705 439.488 86.375C438.749 88.0682 438.38 90.125 438.38 92.5455C438.38 95.0341 438.749 97.125 439.488 98.8182C440.238 100.511 441.283 101.79 442.624 102.653C443.965 103.517 445.516 103.949 447.278 103.949C448.266 103.949 449.181 103.818 450.022 103.557C450.874 103.295 451.63 102.915 452.289 102.415C452.948 101.903 453.494 101.284 453.925 100.557C454.369 99.8295 454.675 99 454.846 98.0682L462.312 98.1023C462.119 99.7045 461.636 101.25 460.863 102.739C460.102 104.216 459.073 105.54 457.778 106.71C456.494 107.869 454.96 108.79 453.175 109.472C451.403 110.142 449.397 110.477 447.158 110.477C444.045 110.477 441.261 109.773 438.806 108.364C436.363 106.955 434.431 104.915 433.011 102.244C431.602 99.5739 430.897 96.3409 430.897 92.5455C430.897 88.7386 431.613 85.5 433.045 82.8295C434.477 80.1591 436.42 78.125 438.874 76.7273C441.329 75.3182 444.09 74.6136 447.158 74.6136C449.181 74.6136 451.056 74.8977 452.783 75.4659C454.522 76.0341 456.062 76.8636 457.403 77.9545C458.744 79.0341 459.835 80.358 460.675 81.9261C461.528 83.4943 462.073 85.2898 462.312 87.3125ZM467.604 110V75.0909H491.127V81.1761H474.985V89.4943H489.917V95.5795H474.985V103.915H491.195V110H467.604ZM538.906 87.3125H531.44C531.303 86.3466 531.025 85.4886 530.604 84.7386C530.184 83.9773 529.644 83.3295 528.985 82.7955C528.326 82.2614 527.565 81.8523 526.701 81.5682C525.849 81.2841 524.923 81.142 523.923 81.142C522.116 81.142 520.542 81.5909 519.201 82.4886C517.86 83.375 516.82 84.6705 516.082 86.375C515.343 88.0682 514.974 90.125 514.974 92.5455C514.974 95.0341 515.343 97.125 516.082 98.8182C516.832 100.511 517.877 101.79 519.218 102.653C520.559 103.517 522.11 103.949 523.871 103.949C524.86 103.949 525.775 103.818 526.616 103.557C527.468 103.295 528.224 102.915 528.883 102.415C529.542 101.903 530.087 101.284 530.519 100.557C530.962 99.8295 531.269 99 531.44 98.0682L538.906 98.1023C538.712 99.7045 538.229 101.25 537.457 102.739C536.695 104.216 535.667 105.54 534.371 106.71C533.087 107.869 531.553 108.79 529.769 109.472C527.996 110.142 525.991 110.477 523.752 110.477C520.638 110.477 517.854 109.773 515.4 108.364C512.957 106.955 511.025 104.915 509.604 102.244C508.195 99.5739 507.491 96.3409 507.491 92.5455C507.491 88.7386 508.207 85.5 509.638 82.8295C511.07 80.1591 513.013 78.125 515.468 76.7273C517.923 75.3182 520.684 74.6136 523.752 74.6136C525.775 74.6136 527.65 74.8977 529.377 75.4659C531.116 76.0341 532.656 76.8636 533.996 77.9545C535.337 79.0341 536.428 80.358 537.269 81.9261C538.121 83.4943 538.667 85.2898 538.906 87.3125ZM576.278 92.5455C576.278 96.3523 575.556 99.5909 574.113 102.261C572.681 104.932 570.727 106.972 568.249 108.381C565.783 109.778 563.011 110.477 559.931 110.477C556.829 110.477 554.045 109.773 551.579 108.364C549.113 106.955 547.164 104.915 545.732 102.244C544.3 99.5739 543.585 96.3409 543.585 92.5455C543.585 88.7386 544.3 85.5 545.732 82.8295C547.164 80.1591 549.113 78.125 551.579 76.7273C554.045 75.3182 556.829 74.6136 559.931 74.6136C563.011 74.6136 565.783 75.3182 568.249 76.7273C570.727 78.125 572.681 80.1591 574.113 82.8295C575.556 85.5 576.278 88.7386 576.278 92.5455ZM568.795 92.5455C568.795 90.0795 568.425 88 567.687 86.3068C566.96 84.6136 565.931 83.3295 564.602 82.4545C563.272 81.5795 561.715 81.142 559.931 81.142C558.147 81.142 556.59 81.5795 555.261 82.4545C553.931 83.3295 552.897 84.6136 552.158 86.3068C551.431 88 551.067 90.0795 551.067 92.5455C551.067 95.0114 551.431 97.0909 552.158 98.7841C552.897 100.477 553.931 101.761 555.261 102.636C556.59 103.511 558.147 103.949 559.931 103.949C561.715 103.949 563.272 103.511 564.602 102.636C565.931 101.761 566.96 100.477 567.687 98.7841C568.425 97.0909 568.795 95.0114 568.795 92.5455ZM610.944 75.0909V110H604.569L589.381 88.0284H589.126V110H581.745V75.0909H588.222L603.29 97.0455H603.597V75.0909H610.944ZM615.712 81.1761V75.0909H644.383V81.1761H633.695V110H626.4V81.1761H615.712ZM649.104 110V75.0909H672.627V81.1761H656.485V89.4943H671.417V95.5795H656.485V103.915H672.695V110H649.104ZM697.433 85.1307C697.296 83.7557 696.711 82.6875 695.677 81.9261C694.643 81.1648 693.239 80.7841 691.467 80.7841C690.262 80.7841 689.245 80.9545 688.415 81.2955C687.586 81.625 686.95 82.0852 686.506 82.6761C686.075 83.267 685.859 83.9375 685.859 84.6875C685.836 85.3125 685.967 85.858 686.251 86.3239C686.546 86.7898 686.95 87.1932 687.461 87.5341C687.972 87.8636 688.563 88.1534 689.234 88.4034C689.904 88.642 690.62 88.8466 691.381 89.017L694.518 89.767C696.04 90.108 697.438 90.5625 698.711 91.1307C699.984 91.6989 701.086 92.3977 702.018 93.2273C702.95 94.0568 703.671 95.0341 704.183 96.1591C704.705 97.2841 704.972 98.5739 704.984 100.028C704.972 102.165 704.427 104.017 703.347 105.585C702.279 107.142 700.734 108.352 698.711 109.216C696.7 110.068 694.273 110.494 691.433 110.494C688.614 110.494 686.16 110.062 684.069 109.199C681.989 108.335 680.364 107.057 679.194 105.364C678.035 103.659 677.427 101.551 677.37 99.0398H684.512C684.592 100.21 684.927 101.187 685.518 101.972C686.12 102.744 686.921 103.33 687.921 103.727C688.933 104.114 690.075 104.307 691.347 104.307C692.597 104.307 693.683 104.125 694.603 103.761C695.535 103.398 696.256 102.892 696.768 102.244C697.279 101.597 697.535 100.852 697.535 100.011C697.535 99.2273 697.302 98.5682 696.836 98.0341C696.381 97.5 695.711 97.0455 694.825 96.6705C693.95 96.2955 692.876 95.9545 691.603 95.6477L687.802 94.6932C684.859 93.9773 682.535 92.858 680.83 91.3352C679.126 89.8125 678.279 87.7614 678.29 85.1818C678.279 83.0682 678.842 81.2216 679.978 79.642C681.126 78.0625 682.7 76.8295 684.7 75.9432C686.7 75.0568 688.972 74.6136 691.518 74.6136C694.109 74.6136 696.37 75.0568 698.302 75.9432C700.245 76.8295 701.756 78.0625 702.836 79.642C703.915 81.2216 704.472 83.0511 704.506 85.1307H697.433ZM708.619 81.1761V75.0909H737.289V81.1761H726.602V110H719.306V81.1761H708.619Z" fill="url(#paint1_linear_11_61)"/>
<path d="M276.665 149.182C276.665 152.097 276.138 154.616 275.086 156.739C274.033 158.862 272.589 160.499 270.754 161.651C268.919 162.802 266.823 163.378 264.466 163.378C262.109 163.378 260.013 162.802 258.178 161.651C256.342 160.499 254.898 158.862 253.846 156.739C252.793 154.616 252.267 152.097 252.267 149.182C252.267 146.267 252.793 143.748 253.846 141.625C254.898 139.502 256.342 137.865 258.178 136.713C260.013 135.562 262.109 134.986 264.466 134.986C266.823 134.986 268.919 135.562 270.754 136.713C272.589 137.865 274.033 139.502 275.086 141.625C276.138 143.748 276.665 146.267 276.665 149.182ZM273.426 149.182C273.426 146.789 273.026 144.769 272.225 143.123C271.433 141.477 270.358 140.231 269 139.385C267.651 138.539 266.139 138.116 264.466 138.116C262.793 138.116 261.277 138.539 259.918 139.385C258.569 140.231 257.494 141.477 256.693 143.123C255.902 144.769 255.506 146.789 255.506 149.182C255.506 151.575 255.902 153.594 256.693 155.241C257.494 156.887 258.569 158.133 259.918 158.979C261.277 159.824 262.793 160.247 264.466 160.247C266.139 160.247 267.651 159.824 269 158.979C270.358 158.133 271.433 156.887 272.225 155.241C273.026 153.594 273.426 151.575 273.426 149.182ZM304.207 135.364V163H300.968L285.908 141.301H285.638V163H282.292V135.364H285.531L300.644 157.116H300.914V135.364H304.207ZM310.903 163V135.364H314.25V160.031H327.096V163H310.903ZM335.625 135.364V163H332.278V135.364H335.625ZM364.25 135.364V163H361.011L345.951 141.301H345.681V163H342.335V135.364H345.574L360.687 157.116H360.957V135.364H364.25ZM370.946 163V135.364H387.625V138.332H374.293V147.67H386.762V150.639H374.293V160.031H387.841V163H370.946Z" fill="url(#paint2_linear_11_61)"/>
<path d="M72.2202 134V124.864L96.4588 101.102C98.777 98.7614 100.709 96.6818 102.254 94.8636C103.8 93.0455 104.959 91.2841 105.732 89.5795C106.504 87.875 106.891 86.0568 106.891 84.125C106.891 81.9205 106.391 80.0341 105.391 78.4659C104.391 76.875 103.016 75.6477 101.266 74.7841C99.5156 73.9205 97.527 73.4886 95.2997 73.4886C93.0043 73.4886 90.9929 73.9659 89.2656 74.9205C87.5384 75.8523 86.1974 77.1818 85.2429 78.9091C84.3111 80.6364 83.8452 82.6932 83.8452 85.0795H71.8111C71.8111 80.6477 72.8224 76.7955 74.8452 73.5227C76.8679 70.25 79.652 67.7159 83.1974 65.9205C86.7656 64.125 90.8565 63.2273 95.4702 63.2273C100.152 63.2273 104.266 64.1023 107.811 65.8523C111.357 67.6023 114.107 70 116.061 73.0455C118.038 76.0909 119.027 79.5682 119.027 83.4773C119.027 86.0909 118.527 88.6591 117.527 91.1818C116.527 93.7045 114.766 96.5 112.243 99.5682C109.743 102.636 106.232 106.352 101.709 110.716L89.6747 122.955V123.432H120.084V134H72.2202ZM134.402 134L164.095 75.2273V74.75H129.629V64.1818H177.186V74.9886L147.527 134H134.402ZM71.3404 184H65.4821L76.1483 153.703H82.9238L93.6047 184H87.7465L79.6544 159.916H79.4177L71.3404 184ZM71.5327 172.121H87.5098V176.529H71.5327V172.121ZM97.5953 184V153.703H108.957C111.284 153.703 113.237 154.137 114.815 155.005C116.403 155.872 117.601 157.066 118.41 158.585C119.228 160.094 119.638 161.81 119.638 163.733C119.638 165.676 119.228 167.402 118.41 168.911C117.591 170.419 116.383 171.608 114.785 172.476C113.188 173.334 111.22 173.763 108.883 173.763H101.353V169.251H108.143C109.504 169.251 110.619 169.014 111.486 168.541C112.354 168.067 112.995 167.416 113.41 166.588C113.834 165.76 114.046 164.808 114.046 163.733C114.046 162.658 113.834 161.711 113.41 160.892C112.995 160.074 112.349 159.438 111.472 158.984C110.604 158.521 109.484 158.289 108.114 158.289H103.084V184H97.5953ZM124.405 184V153.703H135.766C138.094 153.703 140.047 154.107 141.625 154.916C143.213 155.725 144.411 156.859 145.22 158.318C146.038 159.768 146.447 161.46 146.447 163.393C146.447 165.335 146.033 167.022 145.205 168.452C144.386 169.872 143.178 170.972 141.58 171.751C139.983 172.52 138.02 172.905 135.692 172.905H127.6V168.348H134.953C136.314 168.348 137.428 168.161 138.296 167.786C139.164 167.402 139.805 166.844 140.219 166.115C140.643 165.375 140.855 164.468 140.855 163.393C140.855 162.318 140.643 161.4 140.219 160.641C139.795 159.872 139.149 159.29 138.281 158.895C137.413 158.491 136.294 158.289 134.923 158.289H129.893V184H124.405ZM140.057 170.272L147.557 184H141.432L134.065 170.272H140.057ZM156.988 153.703V184H151.499V153.703H156.988ZM162.931 184V153.703H168.42V179.399H181.763V184H162.931Z" fill="#27BA89"/>
<path d="M218.167 39C218.167 38.3554 217.645 37.8329 217 37.8329C216.355 37.8329 215.833 38.3554 215.833 39L218.167 39ZM215.833 39L215.833 196L218.167 196L218.167 39L215.833 39Z" fill="#27BA89"/>
<path d="M253.308 370V335.091H267.08C269.728 335.091 271.984 335.597 273.847 336.608C275.711 337.608 277.131 339 278.109 340.784C279.097 342.557 279.592 344.602 279.592 346.92C279.592 349.239 279.092 351.284 278.092 353.057C277.092 354.83 275.643 356.21 273.745 357.199C271.859 358.187 269.575 358.682 266.893 358.682H258.114V352.767H265.7C267.12 352.767 268.29 352.523 269.211 352.034C270.143 351.534 270.836 350.847 271.29 349.972C271.756 349.085 271.989 348.068 271.989 346.92C271.989 345.761 271.756 344.75 271.29 343.886C270.836 343.011 270.143 342.335 269.211 341.858C268.279 341.369 267.097 341.125 265.665 341.125H260.688V370H253.308ZM284.386 370V335.091H298.158C300.795 335.091 303.045 335.562 304.908 336.506C306.783 337.437 308.21 338.761 309.187 340.477C310.175 342.182 310.67 344.187 310.67 346.494C310.67 348.812 310.17 350.807 309.17 352.477C308.17 354.136 306.721 355.409 304.823 356.295C302.937 357.182 300.653 357.625 297.971 357.625H288.749V351.693H296.778C298.187 351.693 299.357 351.5 300.289 351.114C301.221 350.727 301.914 350.148 302.369 349.375C302.835 348.602 303.067 347.642 303.067 346.494C303.067 345.335 302.835 344.358 302.369 343.562C301.914 342.767 301.215 342.165 300.272 341.756C299.34 341.335 298.164 341.125 296.744 341.125H291.766V370H284.386ZM303.238 354.114L311.914 370H303.766L295.278 354.114H303.238ZM315.886 370V335.091H339.408V341.176H323.266V349.494H338.198V355.58H323.266V363.915H339.477V370H315.886ZM345.276 370V335.091H352.657V363.915H367.623V370H345.276ZM379.891 335.091V370H372.511V335.091H379.891ZM385.964 335.091H395.066L404.68 358.545H405.089L414.702 335.091H423.805V370H416.646V347.278H416.356L407.322 369.83H402.447L393.413 347.193H393.123V370H385.964V335.091ZM437.266 335.091V370H429.886V335.091H437.266ZM472.538 335.091V370H466.163L450.975 348.028H450.719V370H443.339V335.091H449.816L464.884 357.045H465.191V335.091H472.538ZM484.653 370H476.744L488.795 335.091H498.306L510.34 370H502.431L493.687 343.068H493.414L484.653 370ZM484.158 356.278H502.84V362.04H484.158V356.278ZM514.542 370V335.091H528.315C530.951 335.091 533.201 335.562 535.065 336.506C536.94 337.437 538.366 338.761 539.343 340.477C540.332 342.182 540.826 344.187 540.826 346.494C540.826 348.812 540.326 350.807 539.326 352.477C538.326 354.136 536.877 355.409 534.979 356.295C533.093 357.182 530.809 357.625 528.127 357.625H518.906V351.693H526.934C528.343 351.693 529.513 351.5 530.445 351.114C531.377 350.727 532.07 350.148 532.525 349.375C532.991 348.602 533.224 347.642 533.224 346.494C533.224 345.335 532.991 344.358 532.525 343.562C532.07 342.767 531.371 342.165 530.428 341.756C529.496 341.335 528.32 341.125 526.9 341.125H521.923V370H514.542ZM533.394 354.114L542.07 370H533.923L525.434 354.114H533.394ZM542.543 335.091H550.81L558.771 350.125H559.112L567.072 335.091H575.339L562.606 357.659V370H555.276V357.659L542.543 335.091ZM590.479 370V335.091H604.252C606.888 335.091 609.138 335.562 611.002 336.506C612.877 337.437 614.303 338.761 615.281 340.477C616.269 342.182 616.763 344.187 616.763 346.494C616.763 348.812 616.263 350.807 615.263 352.477C614.263 354.136 612.815 355.409 610.917 356.295C609.031 357.182 606.746 357.625 604.065 357.625H594.843V351.693H602.871C604.281 351.693 605.451 351.5 606.383 351.114C607.315 350.727 608.008 350.148 608.462 349.375C608.928 348.602 609.161 347.642 609.161 346.494C609.161 345.335 608.928 344.358 608.462 343.562C608.008 342.767 607.309 342.165 606.366 341.756C605.434 341.335 604.258 341.125 602.837 341.125H597.86V370H590.479ZM609.332 354.114L618.008 370H609.86L601.371 354.114H609.332ZM654.059 352.545C654.059 356.352 653.337 359.591 651.894 362.261C650.462 364.932 648.508 366.972 646.031 368.381C643.565 369.778 640.792 370.477 637.712 370.477C634.61 370.477 631.826 369.773 629.36 368.364C626.894 366.955 624.945 364.915 623.513 362.244C622.082 359.574 621.366 356.341 621.366 352.545C621.366 348.739 622.082 345.5 623.513 342.83C624.945 340.159 626.894 338.125 629.36 336.727C631.826 335.318 634.61 334.614 637.712 334.614C640.792 334.614 643.565 335.318 646.031 336.727C648.508 338.125 650.462 340.159 651.894 342.83C653.337 345.5 654.059 348.739 654.059 352.545ZM646.576 352.545C646.576 350.08 646.207 348 645.468 346.307C644.741 344.614 643.712 343.33 642.383 342.455C641.053 341.58 639.496 341.142 637.712 341.142C635.928 341.142 634.371 341.58 633.042 342.455C631.712 343.33 630.678 344.614 629.94 346.307C629.212 348 628.849 350.08 628.849 352.545C628.849 355.011 629.212 357.091 629.94 358.784C630.678 360.477 631.712 361.761 633.042 362.636C634.371 363.511 635.928 363.949 637.712 363.949C639.496 363.949 641.053 363.511 642.383 362.636C643.712 361.761 644.741 360.477 645.468 358.784C646.207 357.091 646.576 355.011 646.576 352.545ZM681.089 335.091H688.469V357.761C688.469 360.307 687.862 362.534 686.646 364.443C685.441 366.352 683.754 367.841 681.583 368.909C679.413 369.966 676.884 370.494 673.998 370.494C671.1 370.494 668.566 369.966 666.396 368.909C664.225 367.841 662.538 366.352 661.333 364.443C660.129 362.534 659.526 360.307 659.526 357.761V335.091H666.907V357.131C666.907 358.46 667.197 359.642 667.776 360.676C668.367 361.71 669.197 362.523 670.265 363.114C671.333 363.705 672.577 364 673.998 364C675.43 364 676.674 363.705 677.731 363.114C678.799 362.523 679.623 361.71 680.202 360.676C680.793 359.642 681.089 358.46 681.089 357.131V335.091ZM723.741 335.091V370H717.366L702.178 348.028H701.923V370H694.542V335.091H701.019L716.087 357.045H716.394V335.091H723.741ZM742.214 370H729.839V335.091H742.316C745.827 335.091 748.85 335.79 751.384 337.188C753.918 338.574 755.867 340.568 757.231 343.17C758.606 345.773 759.293 348.886 759.293 352.511C759.293 356.148 758.606 359.273 757.231 361.886C755.867 364.5 753.907 366.506 751.35 367.903C748.805 369.301 745.759 370 742.214 370ZM737.219 363.676H741.907C744.089 363.676 745.924 363.29 747.413 362.517C748.913 361.733 750.038 360.523 750.788 358.886C751.549 357.239 751.93 355.114 751.93 352.511C751.93 349.932 751.549 347.824 750.788 346.188C750.038 344.551 748.918 343.347 747.43 342.574C745.941 341.801 744.106 341.415 741.924 341.415H737.219V363.676Z" fill="url(#paint3_linear_11_61)"/>
<path d="M276.665 409.182C276.665 412.097 276.138 414.616 275.086 416.739C274.033 418.862 272.589 420.499 270.754 421.651C268.919 422.802 266.823 423.378 264.466 423.378C262.109 423.378 260.013 422.802 258.178 421.651C256.342 420.499 254.898 418.862 253.846 416.739C252.793 414.616 252.267 412.097 252.267 409.182C252.267 406.267 252.793 403.748 253.846 401.625C254.898 399.502 256.342 397.865 258.178 396.713C260.013 395.562 262.109 394.986 264.466 394.986C266.823 394.986 268.919 395.562 270.754 396.713C272.589 397.865 274.033 399.502 275.086 401.625C276.138 403.748 276.665 406.267 276.665 409.182ZM273.426 409.182C273.426 406.789 273.026 404.769 272.225 403.123C271.433 401.477 270.358 400.231 269 399.385C267.651 398.539 266.139 398.116 264.466 398.116C262.793 398.116 261.277 398.539 259.918 399.385C258.569 400.231 257.494 401.477 256.693 403.123C255.902 404.769 255.506 406.789 255.506 409.182C255.506 411.575 255.902 413.594 256.693 415.241C257.494 416.887 258.569 418.133 259.918 418.979C261.277 419.824 262.793 420.247 264.466 420.247C266.139 420.247 267.651 419.824 269 418.979C270.358 418.133 271.433 416.887 272.225 415.241C273.026 413.594 273.426 411.575 273.426 409.182ZM304.207 395.364V423H300.968L285.908 401.301H285.638V423H282.292V395.364H285.531L300.644 417.116H300.914V395.364H304.207ZM310.903 423V395.364H314.25V420.031H327.096V423H310.903ZM335.625 395.364V423H332.278V395.364H335.625ZM364.25 395.364V423H361.011L345.951 401.301H345.681V423H342.335V395.364H345.574L360.687 417.116H360.957V395.364H364.25ZM370.946 423V395.364H387.625V398.332H374.293V407.67H386.762V410.639H374.293V420.031H387.841V423H370.946Z" fill="url(#paint4_linear_11_61)"/>
<path d="M282.233 595.091V630H275.858L260.67 608.028H260.415V630H253.034V595.091H259.511L274.58 617.045H274.886V595.091H282.233ZM294.348 630H286.439L298.49 595.091H308.001L320.036 630H312.126L303.382 603.068H303.109L294.348 630ZM293.854 616.278H312.536V622.04H293.854V616.278ZM318.642 601.176V595.091H347.312V601.176H336.625V630H329.33V601.176H318.642ZM359.415 595.091V630H352.034V595.091H359.415ZM397.567 612.545C397.567 616.352 396.845 619.591 395.402 622.261C393.97 624.932 392.016 626.972 389.538 628.381C387.072 629.778 384.3 630.477 381.22 630.477C378.118 630.477 375.334 629.773 372.868 628.364C370.402 626.955 368.453 624.915 367.021 622.244C365.589 619.574 364.874 616.341 364.874 612.545C364.874 608.739 365.589 605.5 367.021 602.83C368.453 600.159 370.402 598.125 372.868 596.727C375.334 595.318 378.118 594.614 381.22 594.614C384.3 594.614 387.072 595.318 389.538 596.727C392.016 598.125 393.97 600.159 395.402 602.83C396.845 605.5 397.567 608.739 397.567 612.545ZM390.084 612.545C390.084 610.08 389.714 608 388.976 606.307C388.249 604.614 387.22 603.33 385.891 602.455C384.561 601.58 383.004 601.142 381.22 601.142C379.436 601.142 377.879 601.58 376.55 602.455C375.22 603.33 374.186 604.614 373.447 606.307C372.72 608 372.357 610.08 372.357 612.545C372.357 615.011 372.72 617.091 373.447 618.784C374.186 620.477 375.22 621.761 376.55 622.636C377.879 623.511 379.436 623.949 381.22 623.949C383.004 623.949 384.561 623.511 385.891 622.636C387.22 621.761 388.249 620.477 388.976 618.784C389.714 617.091 390.084 615.011 390.084 612.545ZM432.233 595.091V630H425.858L410.67 608.028H410.415V630H403.034V595.091H409.511L424.58 617.045H424.886V595.091H432.233ZM444.348 630H436.439L448.49 595.091H458.001L470.036 630H462.126L453.382 603.068H453.109L444.348 630ZM443.854 616.278H462.536V622.04H443.854V616.278ZM474.237 630V595.091H481.618V623.915H496.584V630H474.237ZM512.581 630V595.091H526.354C528.99 595.091 531.24 595.562 533.104 596.506C534.979 597.437 536.405 598.761 537.382 600.477C538.371 602.182 538.865 604.187 538.865 606.494C538.865 608.812 538.365 610.807 537.365 612.477C536.365 614.136 534.916 615.409 533.018 616.295C531.132 617.182 528.848 617.625 526.166 617.625H516.945V611.693H524.973C526.382 611.693 527.553 611.5 528.484 611.114C529.416 610.727 530.109 610.148 530.564 609.375C531.03 608.602 531.263 607.642 531.263 606.494C531.263 605.335 531.03 604.358 530.564 603.562C530.109 602.767 529.411 602.165 528.467 601.756C527.536 601.335 526.359 601.125 524.939 601.125H519.962V630H512.581ZM531.433 614.114L540.109 630H531.962L523.473 614.114H531.433ZM576.161 612.545C576.161 616.352 575.439 619.591 573.996 622.261C572.564 624.932 570.609 626.972 568.132 628.381C565.666 629.778 562.893 630.477 559.814 630.477C556.712 630.477 553.928 629.773 551.462 628.364C548.996 626.955 547.047 624.915 545.615 622.244C544.183 619.574 543.467 616.341 543.467 612.545C543.467 608.739 544.183 605.5 545.615 602.83C547.047 600.159 548.996 598.125 551.462 596.727C553.928 595.318 556.712 594.614 559.814 594.614C562.893 594.614 565.666 595.318 568.132 596.727C570.609 598.125 572.564 600.159 573.996 602.83C575.439 605.5 576.161 608.739 576.161 612.545ZM568.678 612.545C568.678 610.08 568.308 608 567.57 606.307C566.842 604.614 565.814 603.33 564.484 602.455C563.155 601.58 561.598 601.142 559.814 601.142C558.03 601.142 556.473 601.58 555.143 602.455C553.814 603.33 552.78 604.614 552.041 606.307C551.314 608 550.95 610.08 550.95 612.545C550.95 615.011 551.314 617.091 552.041 618.784C552.78 620.477 553.814 621.761 555.143 622.636C556.473 623.511 558.03 623.949 559.814 623.949C561.598 623.949 563.155 623.511 564.484 622.636C565.814 621.761 566.842 620.477 567.57 618.784C568.308 617.091 568.678 615.011 568.678 612.545ZM603.19 595.091H610.571V617.761C610.571 620.307 609.963 622.534 608.747 624.443C607.543 626.352 605.855 627.841 603.685 628.909C601.514 629.966 598.986 630.494 596.099 630.494C593.202 630.494 590.668 629.966 588.497 628.909C586.327 627.841 584.639 626.352 583.435 624.443C582.23 622.534 581.628 620.307 581.628 617.761V595.091H589.009V617.131C589.009 618.46 589.298 619.642 589.878 620.676C590.469 621.71 591.298 622.523 592.366 623.114C593.435 623.705 594.679 624 596.099 624C597.531 624 598.776 623.705 599.832 623.114C600.901 622.523 601.724 621.71 602.304 620.676C602.895 619.642 603.19 618.46 603.19 617.131V595.091ZM645.842 595.091V630H639.467L624.28 608.028H624.024V630H616.643V595.091H623.121L638.189 617.045H638.496V595.091H645.842ZM664.315 630H651.94V595.091H664.418C667.929 595.091 670.952 595.79 673.486 597.188C676.02 598.574 677.969 600.568 679.332 603.17C680.707 605.773 681.395 608.886 681.395 612.511C681.395 616.148 680.707 619.273 679.332 621.886C677.969 624.5 676.009 626.506 673.452 627.903C670.906 629.301 667.861 630 664.315 630ZM659.321 623.676H664.009C666.19 623.676 668.026 623.29 669.514 622.517C671.014 621.733 672.139 620.523 672.889 618.886C673.651 617.239 674.031 615.114 674.031 612.511C674.031 609.932 673.651 607.824 672.889 606.188C672.139 604.551 671.02 603.347 669.531 602.574C668.043 601.801 666.207 601.415 664.026 601.415H659.321V623.676Z" fill="url(#paint5_linear_11_61)"/>
<path d="M271.273 656.727V680H268.545L255.864 661.727H255.636V680H252.818V656.727H255.545L268.273 675.045H268.5V656.727H271.273ZM296.548 668.364C296.548 670.818 296.105 672.939 295.219 674.727C294.332 676.515 293.116 677.894 291.571 678.864C290.026 679.833 288.26 680.318 286.276 680.318C284.291 680.318 282.526 679.833 280.98 678.864C279.435 677.894 278.219 676.515 277.332 674.727C276.446 672.939 276.003 670.818 276.003 668.364C276.003 665.909 276.446 663.788 277.332 662C278.219 660.212 279.435 658.833 280.98 657.864C282.526 656.894 284.291 656.409 286.276 656.409C288.26 656.409 290.026 656.894 291.571 657.864C293.116 658.833 294.332 660.212 295.219 662C296.105 663.788 296.548 665.909 296.548 668.364ZM293.821 668.364C293.821 666.348 293.484 664.648 292.81 663.261C292.143 661.875 291.238 660.826 290.094 660.114C288.957 659.402 287.685 659.045 286.276 659.045C284.866 659.045 283.59 659.402 282.446 660.114C281.31 660.826 280.404 661.875 279.73 663.261C279.063 664.648 278.73 666.348 278.73 668.364C278.73 670.379 279.063 672.08 279.73 673.466C280.404 674.852 281.31 675.902 282.446 676.614C283.59 677.326 284.866 677.682 286.276 677.682C287.685 677.682 288.957 677.326 290.094 676.614C291.238 675.902 292.143 674.852 292.81 673.466C293.484 672.08 293.821 670.379 293.821 668.364ZM299.045 659.227V656.727H316.5V659.227H309.182V680H306.364V659.227H299.045ZM320.849 680V656.727H328.713C330.531 656.727 332.024 657.038 333.19 657.659C334.357 658.273 335.221 659.117 335.781 660.193C336.342 661.269 336.622 662.492 336.622 663.864C336.622 665.235 336.342 666.451 335.781 667.511C335.221 668.572 334.361 669.405 333.202 670.011C332.043 670.61 330.562 670.909 328.759 670.909H322.395V668.364H328.668C329.91 668.364 330.91 668.182 331.668 667.818C332.433 667.455 332.986 666.939 333.327 666.273C333.675 665.598 333.849 664.795 333.849 663.864C333.849 662.932 333.675 662.117 333.327 661.42C332.978 660.723 332.421 660.186 331.656 659.807C330.891 659.42 329.88 659.227 328.622 659.227H323.668V680H320.849ZM331.804 669.545L337.531 680H334.259L328.622 669.545H331.804ZM341.318 680V656.727H355.364V659.227H344.136V667.091H354.636V669.591H344.136V677.5H355.545V680H341.318ZM376.625 680H369.443V656.727H376.943C379.201 656.727 381.133 657.193 382.739 658.125C384.345 659.049 385.576 660.379 386.432 662.114C387.288 663.841 387.716 665.909 387.716 668.318C387.716 670.742 387.284 672.83 386.42 674.58C385.557 676.322 384.299 677.663 382.648 678.602C380.996 679.534 378.989 680 376.625 680ZM372.261 677.5H376.443C378.367 677.5 379.962 677.129 381.227 676.386C382.492 675.644 383.436 674.587 384.057 673.216C384.678 671.845 384.989 670.212 384.989 668.318C384.989 666.439 384.682 664.822 384.068 663.466C383.455 662.102 382.538 661.057 381.318 660.33C380.098 659.595 378.58 659.227 376.761 659.227H372.261V677.5ZM392.304 680H389.349L397.895 656.727H400.804L409.349 680H406.395L399.44 660.409H399.259L392.304 680ZM393.395 670.909H405.304V673.409H393.395V670.909ZM412.974 656.727H416.338L424.247 676.045H424.52L432.429 656.727H435.793V680H433.156V662.318H432.929L425.656 680H423.111L415.838 662.318H415.611V680H412.974V656.727ZM441.443 680V656.727H455.489V659.227H444.261V667.091H454.761V669.591H444.261V677.5H455.67V680H441.443ZM488.295 664H485.477C485.311 663.189 485.019 662.477 484.602 661.864C484.193 661.25 483.693 660.735 483.102 660.318C482.519 659.894 481.871 659.576 481.159 659.364C480.447 659.152 479.705 659.045 478.932 659.045C477.523 659.045 476.246 659.402 475.102 660.114C473.966 660.826 473.061 661.875 472.386 663.261C471.72 664.648 471.386 666.348 471.386 668.364C471.386 670.379 471.72 672.08 472.386 673.466C473.061 674.852 473.966 675.902 475.102 676.614C476.246 677.326 477.523 677.682 478.932 677.682C479.705 677.682 480.447 677.576 481.159 677.364C481.871 677.152 482.519 676.837 483.102 676.42C483.693 675.996 484.193 675.477 484.602 674.864C485.019 674.242 485.311 673.53 485.477 672.727H488.295C488.083 673.917 487.697 674.981 487.136 675.92C486.576 676.86 485.879 677.659 485.045 678.318C484.212 678.97 483.277 679.466 482.239 679.807C481.208 680.148 480.106 680.318 478.932 680.318C476.947 680.318 475.182 679.833 473.636 678.864C472.091 677.894 470.875 676.515 469.989 674.727C469.102 672.939 468.659 670.818 468.659 668.364C468.659 665.909 469.102 663.788 469.989 662C470.875 660.212 472.091 658.833 473.636 657.864C475.182 656.894 476.947 656.409 478.932 656.409C480.106 656.409 481.208 656.58 482.239 656.92C483.277 657.261 484.212 657.761 485.045 658.42C485.879 659.072 486.576 659.867 487.136 660.807C487.697 661.739 488.083 662.803 488.295 664ZM512.486 668.364C512.486 670.818 512.043 672.939 511.156 674.727C510.27 676.515 509.054 677.894 507.509 678.864C505.963 679.833 504.198 680.318 502.213 680.318C500.228 680.318 498.463 679.833 496.918 678.864C495.372 677.894 494.156 676.515 493.27 674.727C492.384 672.939 491.94 670.818 491.94 668.364C491.94 665.909 492.384 663.788 493.27 662C494.156 660.212 495.372 658.833 496.918 657.864C498.463 656.894 500.228 656.409 502.213 656.409C504.198 656.409 505.963 656.894 507.509 657.864C509.054 658.833 510.27 660.212 511.156 662C512.043 663.788 512.486 665.909 512.486 668.364ZM509.759 668.364C509.759 666.348 509.421 664.648 508.747 663.261C508.08 661.875 507.175 660.826 506.031 660.114C504.895 659.402 503.622 659.045 502.213 659.045C500.804 659.045 499.527 659.402 498.384 660.114C497.247 660.826 496.342 661.875 495.668 663.261C495.001 664.648 494.668 666.348 494.668 668.364C494.668 670.379 495.001 672.08 495.668 673.466C496.342 674.852 497.247 675.902 498.384 676.614C499.527 677.326 500.804 677.682 502.213 677.682C503.622 677.682 504.895 677.326 506.031 676.614C507.175 675.902 508.08 674.852 508.747 673.466C509.421 672.08 509.759 670.379 509.759 668.364ZM517.224 680V656.727H520.043V677.5H530.861V680H517.224ZM535.224 680V656.727H538.043V677.5H548.861V680H535.224ZM553.224 680V656.727H567.27V659.227H556.043V667.091H566.543V669.591H556.043V677.5H567.452V680H553.224ZM588.259 664C588.009 663.235 587.679 662.549 587.27 661.943C586.868 661.33 586.387 660.807 585.827 660.375C585.274 659.943 584.645 659.614 583.94 659.386C583.236 659.159 582.463 659.045 581.622 659.045C580.243 659.045 578.99 659.402 577.861 660.114C576.732 660.826 575.834 661.875 575.168 663.261C574.501 664.648 574.168 666.348 574.168 668.364C574.168 670.379 574.505 672.08 575.179 673.466C575.853 674.852 576.766 675.902 577.918 676.614C579.069 677.326 580.365 677.682 581.804 677.682C583.137 677.682 584.312 677.398 585.327 676.83C586.349 676.254 587.145 675.443 587.713 674.398C588.289 673.345 588.577 672.106 588.577 670.682L589.44 670.864H582.44V668.364H591.304V670.864C591.304 672.78 590.895 674.447 590.077 675.864C589.266 677.28 588.145 678.379 586.713 679.159C585.289 679.932 583.652 680.318 581.804 680.318C579.743 680.318 577.933 679.833 576.372 678.864C574.819 677.894 573.607 676.515 572.736 674.727C571.872 672.939 571.44 670.818 571.44 668.364C571.44 666.523 571.687 664.867 572.179 663.398C572.679 661.92 573.384 660.663 574.293 659.625C575.202 658.587 576.277 657.792 577.52 657.239C578.762 656.686 580.13 656.409 581.622 656.409C582.849 656.409 583.993 656.595 585.054 656.966C586.122 657.33 587.073 657.848 587.906 658.523C588.747 659.189 589.448 659.989 590.009 660.92C590.569 661.845 590.955 662.871 591.168 664H588.259ZM596.131 680V656.727H610.176V659.227H598.949V667.091H609.449V669.591H598.949V677.5H610.358V680H596.131ZM618.892 676.818L618.71 678.045C618.581 678.909 618.384 679.833 618.119 680.818C617.862 681.803 617.593 682.731 617.312 683.602C617.032 684.473 616.801 685.167 616.619 685.682H614.574C614.672 685.197 614.801 684.557 614.96 683.761C615.119 682.966 615.278 682.076 615.438 681.091C615.604 680.114 615.741 679.114 615.847 678.091L615.983 676.818H618.892ZM631.406 680H624.224V656.727H631.724C633.982 656.727 635.914 657.193 637.52 658.125C639.126 659.049 640.357 660.379 641.213 662.114C642.069 663.841 642.497 665.909 642.497 668.318C642.497 670.742 642.065 672.83 641.202 674.58C640.338 676.322 639.08 677.663 637.429 678.602C635.777 679.534 633.77 680 631.406 680ZM627.043 677.5H631.224C633.149 677.5 634.743 677.129 636.009 676.386C637.274 675.644 638.217 674.587 638.838 673.216C639.459 671.845 639.77 670.212 639.77 668.318C639.77 666.439 639.463 664.822 638.849 663.466C638.236 662.102 637.319 661.057 636.099 660.33C634.88 659.595 633.361 659.227 631.543 659.227H627.043V677.5ZM647.224 680V656.727H650.043V667.091H662.452V656.727H665.27V680H662.452V669.591H650.043V680H647.224ZM671.866 680H668.912L677.457 656.727H680.366L688.912 680H685.957L679.003 660.409H678.821L671.866 680ZM672.957 670.909H684.866V673.409H672.957V670.909ZM692.537 680V656.727H695.355V668.273H695.628L706.082 656.727H709.764L699.991 667.227L709.764 680H706.355L698.264 669.182L695.355 672.455V680H692.537ZM714.366 680H711.412L719.957 656.727H722.866L731.412 680H728.457L721.503 660.409H721.321L714.366 680ZM715.457 670.909H727.366V673.409H715.457V670.909Z" fill="white"/>
<path d="M69.267 394V384.864L93.5057 361.102C95.8239 358.761 97.7557 356.682 99.3011 354.864C100.847 353.045 102.006 351.284 102.778 349.58C103.551 347.875 103.938 346.057 103.938 344.125C103.938 341.92 103.438 340.034 102.438 338.466C101.438 336.875 100.062 335.648 98.3125 334.784C96.5625 333.92 94.5739 333.489 92.3466 333.489C90.0511 333.489 88.0398 333.966 86.3125 334.92C84.5852 335.852 83.2443 337.182 82.2898 338.909C81.358 340.636 80.892 342.693 80.892 345.08H68.858C68.858 340.648 69.8693 336.795 71.892 333.523C73.9148 330.25 76.6989 327.716 80.2443 325.92C83.8125 324.125 87.9034 323.227 92.517 323.227C97.1989 323.227 101.313 324.102 104.858 325.852C108.403 327.602 111.153 330 113.108 333.045C115.085 336.091 116.074 339.568 116.074 343.477C116.074 346.091 115.574 348.659 114.574 351.182C113.574 353.705 111.813 356.5 109.29 359.568C106.79 362.636 103.278 366.352 98.7557 370.716L86.7216 382.955V383.432H117.131V394H69.267ZM153.131 323.227C156.472 323.25 159.722 323.841 162.881 325C166.063 326.136 168.926 328 171.472 330.591C174.017 333.159 176.04 336.602 177.54 340.92C179.04 345.239 179.79 350.58 179.79 356.943C179.813 362.943 179.176 368.307 177.881 373.034C176.608 377.739 174.778 381.716 172.392 384.966C170.006 388.216 167.131 390.693 163.767 392.398C160.403 394.102 156.619 394.955 152.415 394.955C148.006 394.955 144.097 394.091 140.688 392.364C137.301 390.636 134.563 388.273 132.472 385.273C130.381 382.273 129.097 378.841 128.619 374.977H141.062C141.699 377.75 142.994 379.955 144.949 381.591C146.926 383.205 149.415 384.011 152.415 384.011C157.256 384.011 160.983 381.909 163.597 377.705C166.21 373.5 167.517 367.659 167.517 360.182H167.04C165.926 362.182 164.483 363.909 162.71 365.364C160.938 366.795 158.926 367.898 156.676 368.67C154.449 369.443 152.085 369.83 149.585 369.83C145.494 369.83 141.813 368.852 138.54 366.898C135.29 364.943 132.71 362.261 130.801 358.852C128.915 355.443 127.96 351.545 127.938 347.159C127.938 342.614 128.983 338.534 131.074 334.92C133.188 331.284 136.131 328.42 139.903 326.33C143.676 324.216 148.085 323.182 153.131 323.227ZM153.165 333.455C150.71 333.455 148.494 334.057 146.517 335.261C144.563 336.443 143.017 338.057 141.881 340.102C140.767 342.125 140.21 344.386 140.21 346.886C140.233 349.364 140.79 351.614 141.881 353.636C142.994 355.659 144.506 357.261 146.415 358.443C148.347 359.625 150.551 360.216 153.028 360.216C154.869 360.216 156.585 359.864 158.176 359.159C159.767 358.455 161.153 357.477 162.335 356.227C163.54 354.955 164.472 353.511 165.131 351.898C165.813 350.284 166.142 348.58 166.119 346.784C166.119 344.398 165.551 342.193 164.415 340.17C163.301 338.148 161.767 336.523 159.812 335.295C157.881 334.068 155.665 333.455 153.165 333.455ZM71.3404 444H65.4821L76.1483 413.703H82.9238L93.6047 444H87.7465L79.6544 419.916H79.4177L71.3404 444ZM71.5327 432.121H87.5098V436.529H71.5327V432.121ZM97.5953 444V413.703H108.957C111.284 413.703 113.237 414.137 114.815 415.005C116.403 415.872 117.601 417.066 118.41 418.585C119.228 420.094 119.638 421.81 119.638 423.733C119.638 425.676 119.228 427.402 118.41 428.911C117.591 430.419 116.383 431.608 114.785 432.476C113.188 433.334 111.22 433.763 108.883 433.763H101.353V429.251H108.143C109.504 429.251 110.619 429.014 111.486 428.541C112.354 428.067 112.995 427.416 113.41 426.588C113.834 425.76 114.046 424.808 114.046 423.733C114.046 422.658 113.834 421.711 113.41 420.892C112.995 420.074 112.349 419.438 111.472 418.984C110.604 418.521 109.484 418.289 108.114 418.289H103.084V444H97.5953ZM124.405 444V413.703H135.766C138.094 413.703 140.047 414.107 141.625 414.916C143.213 415.725 144.411 416.859 145.22 418.318C146.038 419.768 146.447 421.46 146.447 423.393C146.447 425.335 146.033 427.022 145.205 428.452C144.386 429.872 143.178 430.972 141.58 431.751C139.983 432.52 138.02 432.905 135.692 432.905H127.6V428.348H134.953C136.314 428.348 137.428 428.161 138.296 427.786C139.164 427.402 139.805 426.844 140.219 426.115C140.643 425.375 140.855 424.468 140.855 423.393C140.855 422.318 140.643 421.4 140.219 420.641C139.795 419.872 139.149 419.29 138.281 418.895C137.413 418.491 136.294 418.289 134.923 418.289H129.893V444H124.405ZM140.057 430.272L147.557 444H141.432L134.065 430.272H140.057ZM156.988 413.703V444H151.499V413.703H156.988ZM162.931 444V413.703H168.42V439.399H181.763V444H162.931Z" fill="#27BA89"/>
<path d="M93.2301 655.33C87.6165 655.33 82.7983 653.909 78.7756 651.068C74.7756 648.205 71.696 644.08 69.5369 638.693C67.4006 633.284 66.3324 626.773 66.3324 619.159C66.3551 611.545 67.4347 605.068 69.571 599.727C71.7301 594.364 74.8097 590.273 78.8097 587.455C82.8324 584.636 87.6392 583.227 93.2301 583.227C98.821 583.227 103.628 584.636 107.651 587.455C111.673 590.273 114.753 594.364 116.889 599.727C119.048 605.091 120.128 611.568 120.128 619.159C120.128 626.795 119.048 633.318 116.889 638.727C114.753 644.114 111.673 648.227 107.651 651.068C103.651 653.909 98.8438 655.33 93.2301 655.33ZM93.2301 644.659C97.5938 644.659 101.037 642.511 103.56 638.216C106.105 633.898 107.378 627.545 107.378 619.159C107.378 613.614 106.798 608.955 105.639 605.182C104.48 601.409 102.844 598.568 100.73 596.659C98.6165 594.727 96.1165 593.761 93.2301 593.761C88.8892 593.761 85.4574 595.92 82.9347 600.239C80.4119 604.534 79.1392 610.841 79.1165 619.159C79.0938 624.727 79.6506 629.409 80.7869 633.205C81.946 637 83.5824 639.864 85.696 641.795C87.8097 643.705 90.321 644.659 93.2301 644.659ZM156.511 654.955C151.602 654.955 147.239 654.114 143.42 652.432C139.625 650.75 136.625 648.409 134.42 645.409C132.216 642.409 131.045 638.943 130.909 635.011H143.727C143.841 636.898 144.466 638.545 145.602 639.955C146.739 641.341 148.25 642.42 150.136 643.193C152.023 643.966 154.136 644.352 156.477 644.352C158.977 644.352 161.193 643.92 163.125 643.057C165.057 642.17 166.568 640.943 167.659 639.375C168.75 637.807 169.284 636 169.261 633.955C169.284 631.841 168.739 629.977 167.625 628.364C166.511 626.75 164.898 625.489 162.784 624.58C160.693 623.67 158.17 623.216 155.216 623.216H149.045V613.466H155.216C157.648 613.466 159.773 613.045 161.591 612.205C163.432 611.364 164.875 610.182 165.92 608.659C166.966 607.114 167.477 605.33 167.455 603.307C167.477 601.33 167.034 599.614 166.125 598.159C165.239 596.682 163.977 595.534 162.341 594.716C160.727 593.898 158.83 593.489 156.648 593.489C154.511 593.489 152.534 593.875 150.716 594.648C148.898 595.42 147.432 596.523 146.318 597.955C145.205 599.364 144.614 601.045 144.545 603H132.375C132.466 599.091 133.591 595.659 135.75 592.705C137.932 589.727 140.841 587.409 144.477 585.75C148.114 584.068 152.193 583.227 156.716 583.227C161.375 583.227 165.42 584.102 168.852 585.852C172.307 587.58 174.977 589.909 176.864 592.841C178.75 595.773 179.693 599.011 179.693 602.557C179.716 606.489 178.557 609.784 176.216 612.443C173.898 615.102 170.852 616.841 167.08 617.659V618.205C171.989 618.886 175.75 620.705 178.364 623.659C181 626.591 182.307 630.239 182.284 634.602C182.284 638.511 181.17 642.011 178.943 645.102C176.739 648.17 173.693 650.58 169.807 652.33C165.943 654.08 161.511 654.955 156.511 654.955ZM80.4188 673.703H87.1351L96.1296 695.656H96.4846L105.479 673.703H112.195V704H106.929V683.185H106.648L98.2747 703.911H94.3396L85.9664 683.141H85.6853V704H80.4188V673.703ZM122.063 704H116.204L126.871 673.703H133.646L144.327 704H138.469L130.377 679.916H130.14L122.063 704ZM122.255 692.121H138.232V696.529H122.255V692.121ZM143.155 673.703H149.353L156.765 687.106H157.061L164.472 673.703H170.671L159.65 692.698V704H154.176V692.698L143.155 673.703Z" fill="white"/>
<path d="M218.167 299C218.167 298.355 217.645 297.833 217 297.833C216.355 297.833 215.833 298.355 215.833 299L218.167 299ZM215.833 299L215.833 456L218.167 456L218.167 299L215.833 299Z" fill="#27BA89"/>
<path d="M218.167 559C218.167 558.355 217.645 557.833 217 557.833C216.355 557.833 215.833 558.355 215.833 559L218.167 559ZM215.833 559L215.833 716L218.167 716L218.167 559L215.833 559Z" fill="white"/>
<defs>
<linearGradient id="paint0_linear_11_61" x1="0" y1="637" x2="818" y2="637" gradientUnits="userSpaceOnUse">
<stop stop-color="#27BA89"/>
<stop offset="1" stop-color="#78E899"/>
</linearGradient>
<linearGradient id="paint1_linear_11_61" x1="180.726" y1="121.967" x2="180.726" y2="63.9628" gradientUnits="userSpaceOnUse">
<stop stop-color="#27BA89"/>
</linearGradient>
<linearGradient id="paint2_linear_11_61" x1="230.025" y1="171.974" x2="230.025" y2="125.971" gradientUnits="userSpaceOnUse">
<stop stop-color="#27BA89"/>
</linearGradient>
<linearGradient id="paint3_linear_11_61" x1="177.468" y1="381.967" x2="177.468" y2="323.963" gradientUnits="userSpaceOnUse">
<stop stop-color="#27BA89"/>
</linearGradient>
<linearGradient id="paint4_linear_11_61" x1="230.025" y1="431.974" x2="230.025" y2="385.971" gradientUnits="userSpaceOnUse">
<stop stop-color="#27BA89"/>
</linearGradient>
<linearGradient id="paint5_linear_11_61" x1="188.518" y1="641.967" x2="188.518" y2="583.963" gradientUnits="userSpaceOnUse">
<stop stop-color="white"/>
</linearGradient>
</defs>
</svg>
