<svg width="1044" height="355" viewBox="0 0 1044 355" fill="none" xmlns="http://www.w3.org/2000/svg">
<rect width="1044" height="105" rx="35.0144" fill="#D1FFD9"/>
<path d="M311.954 68V37.7027H323.908C326.206 37.7027 328.163 38.1416 329.781 39.0194C331.398 39.8873 332.631 41.0954 333.479 42.6438C334.337 44.1823 334.766 45.9576 334.766 47.9695C334.766 49.9814 334.332 51.7566 333.464 53.2952C332.596 54.8337 331.339 56.032 329.692 56.89C328.055 57.748 326.072 58.1771 323.745 58.1771H316.126V53.0437H322.709C323.942 53.0437 324.958 52.8316 325.757 52.4076C326.565 51.9736 327.167 51.3769 327.562 50.6175C327.966 49.8483 328.168 48.9656 328.168 47.9695C328.168 46.9635 327.966 46.0858 327.562 45.3362C327.167 44.5768 326.565 43.99 325.757 43.5758C324.948 43.1517 323.922 42.9397 322.68 42.9397H318.36V68H311.954ZM338.927 68V37.7027H350.88C353.168 37.7027 355.121 38.112 356.738 38.9306C358.366 39.7393 359.603 40.8883 360.451 42.3775C361.309 43.8569 361.738 45.5976 361.738 47.5996C361.738 49.6116 361.305 51.3424 360.437 52.7922C359.569 54.2321 358.311 55.3367 356.664 56.106C355.027 56.8752 353.045 57.2599 350.717 57.2599H342.714V52.1117H349.682C350.905 52.1117 351.92 51.944 352.729 51.6087C353.538 51.2734 354.14 50.7704 354.534 50.0998C354.938 49.4291 355.141 48.5957 355.141 47.5996C355.141 46.5937 354.938 45.7455 354.534 45.0551C354.14 44.3648 353.533 43.8421 352.714 43.487C351.906 43.1221 350.885 42.9397 349.652 42.9397H345.332V68H338.927ZM355.288 54.2124L362.818 68H355.747L348.38 54.2124H355.288ZM371.487 68H364.623L375.082 37.7027H383.337L393.781 68H386.917L379.328 44.6261H379.091L371.487 68ZM371.058 56.0912H387.272V61.0914H371.058V56.0912ZM422.736 48.3097H416.257C416.138 47.4714 415.897 46.7268 415.532 46.0759C415.167 45.4151 414.698 44.853 414.126 44.3894C413.554 43.9259 412.893 43.5709 412.144 43.3243C411.404 43.0777 410.6 42.9545 409.733 42.9545C408.164 42.9545 406.799 43.344 405.635 44.1231C404.471 44.8924 403.569 46.0167 402.928 47.4961C402.286 48.9656 401.966 50.7507 401.966 52.8514C401.966 55.0112 402.286 56.8259 402.928 58.2954C403.578 59.7649 404.486 60.8744 405.65 61.624C406.813 62.3735 408.16 62.7483 409.688 62.7483C410.546 62.7483 411.34 62.6349 412.07 62.408C412.81 62.1812 413.466 61.8508 414.038 61.4169C414.61 60.973 415.083 60.4355 415.458 59.8044C415.842 59.1732 416.109 58.4532 416.257 57.6445L422.736 57.6741C422.568 59.0647 422.149 60.406 421.479 61.6979C420.818 62.98 419.925 64.129 418.801 65.1448C417.687 66.1508 416.355 66.9497 414.807 67.5414C413.268 68.1233 411.528 68.4142 409.585 68.4142C406.882 68.4142 404.466 67.8028 402.336 66.5798C400.215 65.3569 398.539 63.5866 397.306 61.2689C396.083 58.9513 395.472 56.1454 395.472 52.8514C395.472 49.5475 396.093 46.7367 397.336 44.419C398.578 42.1014 400.265 40.336 402.395 39.1229C404.525 37.9 406.922 37.2885 409.585 37.2885C411.34 37.2885 412.967 37.5351 414.467 38.0282C415.975 38.5213 417.312 39.2413 418.476 40.1881C419.639 41.125 420.586 42.2739 421.316 43.635C422.056 44.996 422.529 46.5542 422.736 48.3097ZM426.176 42.984V37.7027H451.058V42.984H441.783V68H435.451V42.984H426.176ZM461.562 37.7027V68H455.156V37.7027H461.562ZM493.564 48.3097H487.085C486.966 47.4714 486.725 46.7268 486.36 46.0759C485.995 45.4151 485.526 44.853 484.954 44.3894C484.382 43.9259 483.721 43.5709 482.972 43.3243C482.232 43.0777 481.428 42.9545 480.561 42.9545C478.992 42.9545 477.627 43.344 476.463 44.1231C475.299 44.8924 474.397 46.0167 473.756 47.4961C473.114 48.9656 472.794 50.7507 472.794 52.8514C472.794 55.0112 473.114 56.8259 473.756 58.2954C474.406 59.7649 475.314 60.8744 476.478 61.624C477.641 62.3735 478.988 62.7483 480.516 62.7483C481.374 62.7483 482.168 62.6349 482.898 62.408C483.638 62.1812 484.294 61.8508 484.866 61.4169C485.438 60.973 485.911 60.4355 486.286 59.8044C486.67 59.1732 486.937 58.4532 487.085 57.6445L493.564 57.6741C493.396 59.0647 492.977 60.406 492.307 61.6979C491.646 62.98 490.753 64.129 489.629 65.1448C488.515 66.1508 487.183 66.9497 485.635 67.5414C484.096 68.1233 482.356 68.4142 480.413 68.4142C477.71 68.4142 475.294 67.8028 473.164 66.5798C471.043 65.3569 469.367 63.5866 468.134 61.2689C466.911 58.9513 466.3 56.1454 466.3 52.8514C466.3 49.5475 466.921 46.7367 468.164 44.419C469.406 42.1014 471.093 40.336 473.223 39.1229C475.353 37.9 477.75 37.2885 480.413 37.2885C482.168 37.2885 483.795 37.5351 485.295 38.0282C486.803 38.5213 488.14 39.2413 489.304 40.1881C490.467 41.125 491.414 42.2739 492.144 43.635C492.884 44.996 493.357 46.5542 493.564 48.3097ZM498.158 68V37.7027H518.573V42.984H504.563V50.2033H517.522V55.4846H504.563V62.7187H518.632V68H498.158ZM560.039 48.3097H553.56C553.441 47.4714 553.2 46.7268 552.835 46.0759C552.47 45.4151 552.001 44.853 551.429 44.3894C550.857 43.9259 550.196 43.5709 549.447 43.3243C548.707 43.0777 547.903 42.9545 547.036 42.9545C545.467 42.9545 544.102 43.344 542.938 44.1231C541.774 44.8924 540.872 46.0167 540.231 47.4961C539.589 48.9656 539.269 50.7507 539.269 52.8514C539.269 55.0112 539.589 56.8259 540.231 58.2954C540.881 59.7649 541.789 60.8744 542.953 61.624C544.116 62.3735 545.463 62.7483 546.991 62.7483C547.849 62.7483 548.643 62.6349 549.373 62.408C550.113 62.1812 550.768 61.8508 551.341 61.4169C551.913 60.973 552.386 60.4355 552.761 59.8044C553.145 59.1732 553.412 58.4532 553.56 57.6445L560.039 57.6741C559.871 59.0647 559.452 60.406 558.782 61.6979C558.121 62.98 557.228 64.129 556.104 65.1448C554.99 66.1508 553.658 66.9497 552.11 67.5414C550.571 68.1233 548.831 68.4142 546.888 68.4142C544.185 68.4142 541.769 67.8028 539.639 66.5798C537.518 65.3569 535.842 63.5866 534.609 61.2689C533.386 58.9513 532.775 56.1454 532.775 52.8514C532.775 49.5475 533.396 46.7367 534.639 44.419C535.881 42.1014 537.568 40.336 539.698 39.1229C541.828 37.9 544.225 37.2885 546.888 37.2885C548.643 37.2885 550.27 37.5351 551.77 38.0282C553.278 38.5213 554.615 39.2413 555.779 40.1881C556.942 41.125 557.889 42.2739 558.619 43.635C559.359 44.996 559.832 46.5542 560.039 48.3097ZM592.474 52.8514C592.474 56.1553 591.848 58.966 590.595 61.2837C589.353 63.6014 587.656 65.3717 585.506 66.5946C583.366 67.8077 580.96 68.4142 578.287 68.4142C575.595 68.4142 573.178 67.8028 571.038 66.5798C568.898 65.3569 567.207 63.5866 565.964 61.2689C564.721 58.9513 564.1 56.1454 564.1 52.8514C564.1 49.5475 564.721 46.7367 565.964 44.419C567.207 42.1014 568.898 40.336 571.038 39.1229C573.178 37.9 575.595 37.2885 578.287 37.2885C580.96 37.2885 583.366 37.9 585.506 39.1229C587.656 40.336 589.353 42.1014 590.595 44.419C591.848 46.7367 592.474 49.5475 592.474 52.8514ZM585.98 52.8514C585.98 50.7112 585.659 48.9064 585.018 47.4369C584.387 45.9674 583.494 44.853 582.34 44.0936C581.187 43.3342 579.835 42.9545 578.287 42.9545C576.739 42.9545 575.387 43.3342 574.234 44.0936C573.08 44.853 572.182 45.9674 571.541 47.4369C570.91 48.9064 570.594 50.7112 570.594 52.8514C570.594 54.9915 570.91 56.7963 571.541 58.2658C572.182 59.7353 573.08 60.8498 574.234 61.6092C575.387 62.3686 576.739 62.7483 578.287 62.7483C579.835 62.7483 581.187 62.3686 582.34 61.6092C583.494 60.8498 584.387 59.7353 585.018 58.2658C585.659 56.7963 585.98 54.9915 585.98 52.8514ZM622.561 37.7027V68H617.028L603.847 48.9311H603.625V68H597.219V37.7027H602.841L615.918 56.7569H616.185V37.7027H622.561ZM626.699 42.984V37.7027H651.582V42.984H642.306V68H635.975V42.984H626.699ZM655.68 68V37.7027H676.095V42.984H662.085V50.2033H675.045V55.4846H662.085V62.7187H676.154V68H655.68ZM697.623 46.4162C697.505 45.2228 696.997 44.2957 696.099 43.635C695.202 42.9742 693.984 42.6438 692.445 42.6438C691.4 42.6438 690.517 42.7917 689.797 43.0876C689.077 43.3736 688.525 43.773 688.141 44.2859C687.766 44.7987 687.578 45.3806 687.578 46.0315C687.559 46.574 687.672 47.0473 687.919 47.4517C688.175 47.8561 688.525 48.2062 688.969 48.5021C689.413 48.7881 689.926 49.0396 690.508 49.2565C691.089 49.4636 691.711 49.6412 692.372 49.7891L695.094 50.44C696.415 50.7359 697.628 51.1304 698.733 51.6235C699.837 52.1166 700.794 52.7232 701.603 53.4431C702.411 54.1631 703.038 55.0112 703.481 55.9876C703.935 56.964 704.167 58.0834 704.177 59.3458C704.167 61.1999 703.694 62.8075 702.757 64.1685C701.83 65.5196 700.488 66.57 698.733 67.3195C696.987 68.0592 694.881 68.429 692.416 68.429C689.97 68.429 687.84 68.0542 686.025 67.3047C684.22 66.5552 682.81 65.4456 681.794 63.9761C680.788 62.4968 680.26 60.6673 680.211 58.4877H686.41C686.479 59.5035 686.77 60.3517 687.283 61.0322C687.805 61.7029 688.501 62.2108 689.368 62.556C690.246 62.8913 691.237 63.0589 692.342 63.0589C693.427 63.0589 694.369 62.9011 695.167 62.5855C695.976 62.2699 696.602 61.8311 697.046 61.2689C697.49 60.7068 697.712 60.0608 697.712 59.331C697.712 58.6505 697.51 58.0784 697.105 57.6149C696.711 57.1514 696.129 56.7569 695.36 56.4314C694.6 56.106 693.668 55.8101 692.564 55.5438L689.265 54.7154C686.71 54.094 684.694 53.1226 683.214 51.801C681.735 50.4795 681 48.6993 681.01 46.4605C681 44.6261 681.488 43.0235 682.475 41.6526C683.471 40.2817 684.837 39.2117 686.572 38.4424C688.308 37.6731 690.281 37.2885 692.49 37.2885C694.738 37.2885 696.701 37.6731 698.378 38.4424C700.064 39.2117 701.376 40.2817 702.313 41.6526C703.25 43.0235 703.733 44.6113 703.763 46.4162H697.623ZM707.332 42.984V37.7027H732.214V42.984H722.939V68H716.607V42.984H707.332Z" fill="url(#paint0_linear_8_11)"/>
<path d="M827.061 52.8514C827.061 56.1158 826.449 58.9118 825.226 61.2393C824.013 63.557 822.356 65.3322 820.256 66.565C818.165 67.7978 815.793 68.4142 813.14 68.4142C810.487 68.4142 808.11 67.7978 806.009 66.565C803.918 65.3224 802.262 63.5422 801.039 61.2245C799.826 58.897 799.219 56.106 799.219 52.8514C799.219 49.5869 799.826 46.7959 801.039 44.4782C802.262 42.1507 803.918 40.3705 806.009 39.1377C808.11 37.9049 810.487 37.2885 813.14 37.2885C815.793 37.2885 818.165 37.9049 820.256 39.1377C822.356 40.3705 824.013 42.1507 825.226 44.4782C826.449 46.7959 827.061 49.5869 827.061 52.8514ZM821.543 52.8514C821.543 50.5534 821.183 48.6155 820.463 47.0375C819.753 45.4496 818.766 44.2514 817.504 43.4426C816.242 42.6241 814.787 42.2148 813.14 42.2148C811.493 42.2148 810.038 42.6241 808.776 43.4426C807.513 44.2514 806.522 45.4496 805.802 47.0375C805.092 48.6155 804.737 50.5534 804.737 52.8514C804.737 55.1493 805.092 57.0922 805.802 58.68C806.522 60.258 807.513 61.4563 808.776 62.2749C810.038 63.0836 811.493 63.488 813.14 63.488C814.787 63.488 816.242 63.0836 817.504 62.2749C818.766 61.4563 819.753 60.258 820.463 58.68C821.183 57.0922 821.543 55.1493 821.543 52.8514ZM857.147 37.7027V68H852.265L837.989 47.3629H837.738V68H832.249V37.7027H837.161L851.422 58.3546H851.688V37.7027H857.147ZM863.127 68V37.7027H868.616V63.3992H881.96V68H863.127ZM892.212 37.7027V68H886.723V37.7027H892.212ZM923.052 37.7027V68H918.171L903.895 47.3629H903.643V68H898.155V37.7027H903.066L917.327 58.3546H917.594V37.7027H923.052ZM929.033 68V37.7027H948.738V42.3035H934.521V50.5288H947.717V55.1296H934.521V63.3992H948.856V68H929.033Z" fill="url(#paint1_linear_8_11)"/>
<path d="M51.6924 67.5044V63.5397L62.2107 53.2286C63.2166 52.2128 64.0549 51.3103 64.7256 50.5214C65.3962 49.7324 65.8992 48.968 66.2345 48.2283C66.5699 47.4887 66.7375 46.6997 66.7375 45.8614C66.7375 44.9047 66.5205 44.0861 66.0866 43.4056C65.6526 42.7153 65.056 42.1827 64.2966 41.8079C63.5372 41.4332 62.6742 41.2458 61.7077 41.2458C60.7116 41.2458 59.8388 41.4529 59.0892 41.8671C58.3397 42.2715 57.7578 42.8484 57.3436 43.598C56.9392 44.3475 56.737 45.24 56.737 46.2756H51.5149C51.5149 44.3524 51.9538 42.6808 52.8315 41.2606C53.7093 39.8404 54.9174 38.7407 56.456 37.9616C58.0044 37.1825 59.7796 36.7929 61.7817 36.7929C63.8133 36.7929 65.5984 37.1726 67.1369 37.932C68.6755 38.6914 69.8688 39.7319 70.717 41.0535C71.575 42.375 72.004 43.884 72.004 45.5803C72.004 46.7145 71.7871 47.8289 71.3531 48.9236C70.9192 50.0184 70.1548 51.2314 69.0601 52.5629C67.9752 53.8943 66.4515 55.5068 64.4889 57.4004L59.2668 62.7113V62.9184H72.4626V67.5044H51.6924ZM88.3362 67.9186C86.1368 67.9186 84.1841 67.5488 82.4779 66.8091C80.7816 66.0694 79.4501 65.0585 78.4836 63.7764C77.527 62.4844 77.0536 61.0199 77.0634 59.3827C77.0536 58.1105 77.3297 56.9418 77.8919 55.8766C78.454 54.8115 79.2134 53.9239 80.1701 53.2138C81.1366 52.4938 82.2116 52.0352 83.3951 51.838V51.6309C81.8368 51.2857 80.5744 50.4918 79.6079 49.2491C78.6513 47.9966 78.1779 46.5517 78.1877 44.9146C78.1779 43.3563 78.6118 41.9657 79.4896 40.7428C80.3673 39.5199 81.5705 38.5583 83.0992 37.858C84.6279 37.148 86.3735 36.7929 88.3362 36.7929C90.279 36.7929 92.0099 37.148 93.5287 37.858C95.0574 38.5583 96.2606 39.5199 97.1383 40.7428C98.026 41.9657 98.4698 43.3563 98.4698 44.9146C98.4698 46.5517 97.9816 47.9966 97.0052 49.2491C96.0387 50.4918 94.7911 51.2857 93.2624 51.6309V51.838C94.4459 52.0352 95.511 52.4938 96.4578 53.2138C97.4145 53.9239 98.1739 54.8115 98.736 55.8766C99.3081 56.9418 99.5941 58.1105 99.5941 59.3827C99.5941 61.0199 99.1108 62.4844 98.1443 63.7764C97.1778 65.0585 95.8464 66.0694 94.15 66.8091C92.4636 67.5488 90.5256 67.9186 88.3362 67.9186ZM88.3362 63.6876C89.4703 63.6876 90.4566 63.4953 91.2949 63.1107C92.1332 62.7162 92.7841 62.1639 93.2476 61.4538C93.7112 60.7437 93.9479 59.9251 93.9577 58.9981C93.9479 58.0316 93.6964 57.1785 93.2032 56.4388C92.72 55.6892 92.0543 55.1024 91.2061 54.6784C90.3678 54.2543 89.4112 54.0422 88.3362 54.0422C87.2513 54.0422 86.2848 54.2543 85.4366 54.6784C84.5884 55.1024 83.9178 55.6892 83.4247 56.4388C82.9414 57.1785 82.7047 58.0316 82.7146 58.9981C82.7047 59.9251 82.9316 60.7437 83.3951 61.4538C83.8586 62.154 84.5095 62.7014 85.3478 63.0959C86.196 63.4904 87.1921 63.6876 88.3362 63.6876ZM88.3362 49.8852C89.2632 49.8852 90.0818 49.6978 90.7919 49.3231C91.5118 48.9483 92.0789 48.4256 92.4931 47.755C92.9074 47.0843 93.1194 46.3101 93.1293 45.4324C93.1194 44.5645 92.9123 43.8051 92.5079 43.1541C92.1036 42.4934 91.5414 41.9855 90.8215 41.6304C90.1015 41.2655 89.2731 41.083 88.3362 41.083C87.3795 41.083 86.5363 41.2655 85.8064 41.6304C85.0865 41.9855 84.5243 42.4934 84.12 43.1541C83.7255 43.8051 83.5332 44.5645 83.543 45.4324C83.5332 46.3101 83.7304 47.0843 84.1348 47.755C84.549 48.4157 85.1161 48.9384 85.836 49.3231C86.5659 49.6978 87.3992 49.8852 88.3362 49.8852ZM118.977 67.5044H113.119L123.785 37.2071H130.561L141.242 67.5044H135.383L127.291 43.4204H127.055L118.977 67.5044ZM119.17 55.6251H135.147V60.0336H119.17V55.6251ZM145.232 67.5044V37.2071H156.594C158.921 37.2071 160.874 37.6411 162.452 38.509C164.04 39.3769 165.238 40.5702 166.047 42.089C166.865 43.598 167.275 45.314 167.275 47.2372C167.275 49.1801 166.865 50.906 166.047 52.4149C165.228 53.9239 164.02 55.1123 162.422 55.9802C160.825 56.8382 158.857 57.2672 156.52 57.2672H148.99V52.7552H155.78C157.141 52.7552 158.256 52.5185 159.123 52.0451C159.991 51.5717 160.632 50.9208 161.047 50.0923C161.471 49.2639 161.683 48.3122 161.683 47.2372C161.683 46.1622 161.471 45.2154 161.047 44.3968C160.632 43.5782 159.986 42.9421 159.109 42.4884C158.241 42.0249 157.121 41.7931 155.751 41.7931H150.721V67.5044H145.232ZM172.042 67.5044V37.2071H183.403C185.731 37.2071 187.684 37.6115 189.262 38.4202C190.85 39.2289 192.048 40.3631 192.857 41.8227C193.675 43.2725 194.084 44.9639 194.084 46.8969C194.084 48.8398 193.67 50.5263 192.842 51.9563C192.023 53.3765 190.815 54.4762 189.217 55.2553C187.62 56.0246 185.657 56.4092 183.329 56.4092H175.237V51.8528H182.59C183.951 51.8528 185.065 51.6654 185.933 51.2906C186.801 50.906 187.442 50.3488 187.856 49.6189C188.28 48.8793 188.492 47.9719 188.492 46.8969C188.492 45.8219 188.28 44.9047 187.856 44.1453C187.432 43.3761 186.786 42.7942 185.918 42.3997C185.05 41.9953 183.931 41.7931 182.56 41.7931H177.53V67.5044H172.042ZM187.694 53.7759L195.194 67.5044H189.069L181.702 53.7759H187.694ZM204.625 37.2071V67.5044H199.136V37.2071H204.625ZM210.568 67.5044V37.2071H216.057V62.9036H229.4V67.5044H210.568Z" fill="#27BA89"/>
<path d="M258.167 17C258.167 16.3554 257.645 15.8329 257 15.8329C256.355 15.8329 255.833 16.3554 255.833 17H258.167ZM255.833 17V87.1163H258.167V17H255.833Z" fill="#27BA89"/>
<path d="M763.167 17C763.167 16.3554 762.645 15.8329 762 15.8329C761.355 15.8329 760.833 16.3554 760.833 17H763.167ZM760.833 17V87.1163H763.167V17H760.833Z" fill="#27BA89"/>
<rect y="250" width="1044" height="105" rx="35.0144" fill="url(#paint2_linear_8_11)"/>
<path d="M347.975 287.703V318H342.442L329.261 298.931H329.039V318H322.633V287.703H328.255L341.332 306.757H341.599V287.703H347.975ZM358.489 318H351.625L362.084 287.703H370.339L380.783 318H373.919L366.33 294.626H366.093L358.489 318ZM358.06 306.091H374.274V311.091H358.06V306.091ZM379.574 292.984V287.703H404.457V292.984H395.181V318H388.849V292.984H379.574ZM414.96 287.703V318H408.554V287.703H414.96ZM448.072 302.851C448.072 306.155 447.446 308.966 446.193 311.284C444.95 313.601 443.254 315.372 441.104 316.595C438.964 317.808 436.557 318.414 433.885 318.414C431.192 318.414 428.776 317.803 426.636 316.58C424.496 315.357 422.804 313.587 421.562 311.269C420.319 308.951 419.698 306.145 419.698 302.851C419.698 299.547 420.319 296.737 421.562 294.419C422.804 292.101 424.496 290.336 426.636 289.123C428.776 287.9 431.192 287.289 433.885 287.289C436.557 287.289 438.964 287.9 441.104 289.123C443.254 290.336 444.95 292.101 446.193 294.419C447.446 296.737 448.072 299.547 448.072 302.851ZM441.577 302.851C441.577 300.711 441.257 298.906 440.616 297.437C439.985 295.967 439.092 294.853 437.938 294.094C436.784 293.334 435.433 292.954 433.885 292.954C432.336 292.954 430.985 293.334 429.831 294.094C428.677 294.853 427.78 295.967 427.139 297.437C426.508 298.906 426.192 300.711 426.192 302.851C426.192 304.992 426.508 306.796 427.139 308.266C427.78 309.735 428.677 310.85 429.831 311.609C430.985 312.369 432.336 312.748 433.885 312.748C435.433 312.748 436.784 312.369 437.938 311.609C439.092 310.85 439.985 309.735 440.616 308.266C441.257 306.796 441.577 304.992 441.577 302.851ZM478.158 287.703V318H472.625L459.444 298.931H459.222V318H452.817V287.703H458.438L471.516 306.757H471.782V287.703H478.158ZM488.673 318H481.809L492.268 287.703H500.522L510.967 318H504.103L496.513 294.626H496.277L488.673 318ZM488.244 306.091H504.458V311.091H488.244V306.091ZM514.613 318V287.703H521.019V312.719H534.008V318H514.613ZM547.892 318V287.703H559.845C562.133 287.703 564.086 288.112 565.703 288.931C567.33 289.739 568.568 290.888 569.416 292.378C570.274 293.857 570.703 295.598 570.703 297.6C570.703 299.612 570.269 301.342 569.401 302.792C568.534 304.232 567.276 305.337 565.629 306.106C563.992 306.875 562.01 307.26 559.682 307.26H551.679V302.112H558.646C559.869 302.112 560.885 301.944 561.694 301.609C562.503 301.273 563.104 300.77 563.499 300.1C563.903 299.429 564.105 298.596 564.105 297.6C564.105 296.594 563.903 295.746 563.499 295.055C563.104 294.365 562.498 293.842 561.679 293.487C560.87 293.122 559.85 292.94 558.617 292.94H554.297V318H547.892ZM564.253 304.212L571.783 318H564.712L557.345 304.212H564.253ZM603.072 302.851C603.072 306.155 602.445 308.966 601.193 311.284C599.95 313.601 598.254 315.372 596.104 316.595C593.964 317.808 591.557 318.414 588.885 318.414C586.192 318.414 583.776 317.803 581.636 316.58C579.496 315.357 577.804 313.587 576.561 311.269C575.319 308.951 574.698 306.145 574.698 302.851C574.698 299.547 575.319 296.737 576.561 294.419C577.804 292.101 579.496 290.336 581.636 289.123C583.776 287.9 586.192 287.289 588.885 287.289C591.557 287.289 593.964 287.9 596.104 289.123C598.254 290.336 599.95 292.101 601.193 294.419C602.445 296.737 603.072 299.547 603.072 302.851ZM596.577 302.851C596.577 300.711 596.257 298.906 595.616 297.437C594.984 295.967 594.092 294.853 592.938 294.094C591.784 293.334 590.433 292.954 588.885 292.954C587.336 292.954 585.985 293.334 584.831 294.094C583.677 294.853 582.78 295.967 582.139 297.437C581.507 298.906 581.192 300.711 581.192 302.851C581.192 304.992 581.507 306.796 582.139 308.266C582.78 309.735 583.677 310.85 584.831 311.609C585.985 312.369 587.336 312.748 588.885 312.748C590.433 312.748 591.784 312.369 592.938 311.609C594.092 310.85 594.984 309.735 595.616 308.266C596.257 306.796 596.577 304.992 596.577 302.851ZM626.531 287.703H632.936V307.378C632.936 309.587 632.409 311.52 631.353 313.177C630.308 314.834 628.843 316.126 626.96 317.053C625.076 317.97 622.881 318.429 620.376 318.429C617.862 318.429 615.662 317.97 613.778 317.053C611.895 316.126 610.43 314.834 609.385 313.177C608.339 311.52 607.817 309.587 607.817 307.378V287.703H614.222V306.831C614.222 307.985 614.474 309.01 614.977 309.908C615.49 310.805 616.21 311.511 617.137 312.023C618.064 312.536 619.144 312.793 620.376 312.793C621.619 312.793 622.699 312.536 623.616 312.023C624.543 311.511 625.258 310.805 625.761 309.908C626.274 309.01 626.531 307.985 626.531 306.831V287.703ZM663.548 287.703V318H658.015L644.834 298.931H644.612V318H638.206V287.703H643.828L656.905 306.757H657.172V287.703H663.548ZM679.58 318H668.84V287.703H679.669C682.717 287.703 685.34 288.309 687.539 289.522C689.739 290.726 691.43 292.456 692.613 294.715C693.807 296.973 694.404 299.676 694.404 302.822C694.404 305.978 693.807 308.69 692.613 310.958C691.43 313.227 689.729 314.967 687.51 316.18C685.301 317.393 682.657 318 679.58 318ZM675.246 312.512H679.314C681.208 312.512 682.8 312.176 684.092 311.506C685.394 310.825 686.371 309.775 687.022 308.355C687.682 306.925 688.013 305.08 688.013 302.822C688.013 300.583 687.682 298.754 687.022 297.333C686.371 295.913 685.399 294.868 684.107 294.197C682.815 293.526 681.222 293.191 679.329 293.191H675.246V312.512Z" fill="url(#paint3_linear_8_11)"/>
<path d="M813.672 278.886V297H810.753L802.218 284.662H802.068V297H798.787V278.886H801.723L810.249 291.233H810.408V278.886H813.672ZM833.433 287.943C833.433 289.895 833.067 291.567 832.336 292.958C831.611 294.344 830.62 295.405 829.364 296.142C828.114 296.879 826.696 297.248 825.11 297.248C823.524 297.248 822.103 296.879 820.847 296.142C819.597 295.399 818.606 294.335 817.875 292.949C817.15 291.558 816.787 289.889 816.787 287.943C816.787 285.992 817.15 284.323 817.875 282.937C818.606 281.546 819.597 280.481 820.847 279.744C822.103 279.007 823.524 278.639 825.11 278.639C826.696 278.639 828.114 279.007 829.364 279.744C830.62 280.481 831.611 281.546 832.336 282.937C833.067 284.323 833.433 285.992 833.433 287.943ZM830.134 287.943C830.134 286.569 829.919 285.411 829.488 284.467C829.064 283.518 828.474 282.802 827.719 282.318C826.964 281.829 826.095 281.584 825.11 281.584C824.125 281.584 823.256 281.829 822.501 282.318C821.746 282.802 821.154 283.518 820.723 284.467C820.299 285.411 820.086 286.569 820.086 287.943C820.086 289.317 820.299 290.479 820.723 291.428C821.154 292.371 821.746 293.088 822.501 293.577C823.256 294.061 824.125 294.302 825.11 294.302C826.095 294.302 826.964 294.061 827.719 293.577C828.474 293.088 829.064 292.371 829.488 291.428C829.919 290.479 830.134 289.317 830.134 287.943ZM834.936 281.637V278.886H849.388V281.637H843.79V297H840.535V281.637H834.936ZM852.174 297V278.886H858.967C860.358 278.886 861.526 279.128 862.469 279.612C863.419 280.095 864.135 280.773 864.618 281.646C865.108 282.513 865.353 283.524 865.353 284.68C865.353 285.841 865.105 286.849 864.61 287.704C864.12 288.553 863.398 289.211 862.443 289.677C861.488 290.137 860.314 290.367 858.923 290.367H854.085V287.643H858.48C859.294 287.643 859.96 287.53 860.479 287.306C860.998 287.076 861.381 286.743 861.629 286.307C861.883 285.865 862.009 285.322 862.009 284.68C862.009 284.037 861.883 283.489 861.629 283.035C861.375 282.575 860.989 282.227 860.47 281.991C859.952 281.749 859.282 281.628 858.463 281.628H855.456V297H852.174ZM861.532 288.792L866.016 297H862.354L857.95 288.792H861.532ZM868.373 297V278.886H880.154V281.637H871.654V286.555H879.544V289.305H871.654V294.249H880.225V297H868.373ZM895.817 297H889.679V278.886H895.941C897.74 278.886 899.285 279.249 900.576 279.974C901.873 280.694 902.869 281.728 903.565 283.079C904.261 284.429 904.609 286.045 904.609 287.926C904.609 289.812 904.258 291.434 903.556 292.79C902.861 294.146 901.855 295.187 900.54 295.912C899.231 296.637 897.657 297 895.817 297ZM892.961 294.161H895.658C896.92 294.161 897.973 293.931 898.816 293.471C899.659 293.005 900.293 292.312 900.717 291.393C901.142 290.467 901.354 289.311 901.354 287.926C901.354 286.54 901.142 285.39 900.717 284.476C900.293 283.556 899.665 282.869 898.833 282.415C898.008 281.955 896.982 281.726 895.756 281.726H892.961V294.161ZM909.08 297H905.577L911.954 278.886H916.005L922.391 297H918.888L914.05 282.601H913.909L909.08 297ZM909.195 289.898H918.747V292.534H909.195V289.898ZM924.777 278.886H928.792L934.169 292.012H934.382L939.759 278.886H943.775V297H940.626V284.556H940.458L935.452 296.947H933.099L928.093 284.529H927.925V297H924.777V278.886ZM947.348 297V278.886H959.129V281.637H950.629V286.555H958.518V289.305H950.629V294.249H959.199V297H947.348ZM814.291 314.998H810.983C810.889 314.456 810.715 313.975 810.461 313.556C810.208 313.132 809.892 312.772 809.515 312.477C809.138 312.183 808.707 311.961 808.224 311.814C807.746 311.661 807.23 311.584 806.676 311.584C805.691 311.584 804.819 311.832 804.058 312.327C803.297 312.816 802.702 313.536 802.271 314.485C801.841 315.428 801.626 316.581 801.626 317.943C801.626 319.329 801.841 320.496 802.271 321.446C802.708 322.389 803.303 323.103 804.058 323.586C804.819 324.064 805.688 324.302 806.667 324.302C807.21 324.302 807.717 324.232 808.188 324.09C808.666 323.943 809.093 323.728 809.471 323.445C809.854 323.161 810.175 322.814 810.435 322.401C810.7 321.988 810.883 321.516 810.983 320.986L814.291 321.003C814.167 321.864 813.899 322.672 813.486 323.427C813.079 324.182 812.546 324.848 811.885 325.426C811.225 325.998 810.452 326.446 809.568 326.77C808.684 327.088 807.702 327.248 806.623 327.248C805.031 327.248 803.61 326.879 802.36 326.142C801.11 325.405 800.125 324.341 799.406 322.949C798.686 321.558 798.327 319.889 798.327 317.943C798.327 315.992 798.689 314.323 799.415 312.937C800.14 311.546 801.127 310.481 802.377 309.744C803.627 309.007 805.043 308.639 806.623 308.639C807.631 308.639 808.569 308.78 809.435 309.063C810.302 309.346 811.075 309.762 811.753 310.31C812.431 310.853 812.988 311.519 813.424 312.309C813.866 313.093 814.155 313.99 814.291 314.998ZM833.481 317.943C833.481 319.895 833.116 321.567 832.385 322.958C831.659 324.344 830.669 325.405 829.413 326.142C828.163 326.879 826.745 327.248 825.159 327.248C823.573 327.248 822.152 326.879 820.896 326.142C819.646 325.399 818.655 324.335 817.924 322.949C817.199 321.558 816.836 319.889 816.836 317.943C816.836 315.992 817.199 314.323 817.924 312.937C818.655 311.546 819.646 310.481 820.896 309.744C822.152 309.007 823.573 308.639 825.159 308.639C826.745 308.639 828.163 309.007 829.413 309.744C830.669 310.481 831.659 311.546 832.385 312.937C833.116 314.323 833.481 315.992 833.481 317.943ZM830.182 317.943C830.182 316.569 829.967 315.411 829.537 314.467C829.112 313.518 828.523 312.802 827.768 312.318C827.013 311.829 826.143 311.584 825.159 311.584C824.174 311.584 823.304 311.829 822.55 312.318C821.795 312.802 821.202 313.518 820.772 314.467C820.347 315.411 820.135 316.569 820.135 317.943C820.135 319.317 820.347 320.479 820.772 321.428C821.202 322.371 821.795 323.088 822.55 323.577C823.304 324.061 824.174 324.302 825.159 324.302C826.143 324.302 827.013 324.061 827.768 323.577C828.523 323.088 829.112 322.371 829.537 321.428C829.967 320.479 830.182 319.317 830.182 317.943ZM836.584 327V308.886H839.865V324.249H847.843V327H836.584ZM850.691 327V308.886H853.972V324.249H861.95V327H850.691ZM864.798 327V308.886H876.578V311.637H868.079V316.555H875.968V319.305H868.079V324.249H876.649V327H864.798ZM892.061 314.671C891.913 314.193 891.71 313.766 891.45 313.388C891.197 313.005 890.89 312.678 890.531 312.407C890.177 312.135 889.77 311.932 889.31 311.796C888.85 311.655 888.349 311.584 887.807 311.584C886.834 311.584 885.967 311.829 885.206 312.318C884.446 312.808 883.847 313.527 883.411 314.476C882.98 315.42 882.765 316.569 882.765 317.926C882.765 319.293 882.98 320.452 883.411 321.401C883.841 322.351 884.44 323.073 885.206 323.568C885.973 324.058 886.863 324.302 887.877 324.302C888.797 324.302 889.593 324.126 890.265 323.772C890.943 323.418 891.465 322.917 891.831 322.268C892.196 321.614 892.379 320.847 892.379 319.969L893.122 320.084H888.205V317.519H895.554V319.694C895.554 321.245 895.224 322.587 894.564 323.719C893.903 324.851 892.995 325.723 891.84 326.337C890.684 326.944 889.357 327.248 887.86 327.248C886.191 327.248 884.726 326.873 883.464 326.124C882.208 325.37 881.226 324.299 880.519 322.914C879.817 321.522 879.466 319.871 879.466 317.961C879.466 316.499 879.673 315.193 880.085 314.043C880.504 312.893 881.088 311.917 881.837 311.115C882.585 310.307 883.464 309.694 884.472 309.276C885.48 308.851 886.577 308.639 887.762 308.639C888.765 308.639 889.699 308.786 890.566 309.081C891.433 309.37 892.202 309.783 892.874 310.319C893.553 310.856 894.11 311.493 894.546 312.23C894.982 312.967 895.268 313.78 895.404 314.671H892.061ZM898.727 327V308.886H910.508V311.637H902.009V316.555H909.898V319.305H902.009V324.249H910.579V327H898.727ZM917.473 324.524L917.358 325.496C917.276 326.239 917.128 326.994 916.916 327.761C916.71 328.533 916.492 329.244 916.262 329.892C916.032 330.541 915.846 331.051 915.704 331.422H913.546C913.629 331.063 913.741 330.573 913.882 329.954C914.03 329.335 914.171 328.639 914.307 327.867C914.443 327.094 914.534 326.31 914.581 325.514L914.643 324.524H917.473ZM927.339 327H921.201V308.886H927.463C929.262 308.886 930.806 309.249 932.098 309.974C933.395 310.694 934.391 311.728 935.087 313.079C935.783 314.429 936.131 316.045 936.131 317.926C936.131 319.812 935.78 321.434 935.078 322.79C934.382 324.146 933.377 325.187 932.062 325.912C930.753 326.637 929.179 327 927.339 327ZM924.483 324.161H927.18C928.442 324.161 929.494 323.931 930.338 323.471C931.181 323.005 931.815 322.312 932.239 321.393C932.664 320.467 932.876 319.311 932.876 317.926C932.876 316.54 932.664 315.39 932.239 314.476C931.815 313.556 931.187 312.869 930.355 312.415C929.53 311.955 928.504 311.726 927.277 311.726H924.483V324.161ZM939.248 327V308.886H942.53V316.555H950.923V308.886H954.213V327H950.923V319.305H942.53V327H939.248ZM960.108 327H956.606L962.983 308.886H967.033L973.419 327H969.917L965.079 312.601H964.937L960.108 327ZM960.223 319.898H969.775V322.534H960.223V319.898ZM975.805 327V308.886H979.086V317.209H979.307L986.374 308.886H990.381L983.376 317.015L990.443 327H986.498L981.094 319.235L979.086 321.605V327H975.805ZM994.987 327H991.484L997.861 308.886H1001.91L1008.3 327H1004.8L999.957 312.601H999.816L994.987 327ZM995.101 319.898H1004.65V322.534H995.101V319.898Z" fill="white"/>
<path d="M80.8912 319.577C78.4552 319.577 76.3643 318.961 74.6187 317.728C72.8829 316.485 71.5466 314.695 70.6096 312.358C69.6826 310.01 69.219 307.185 69.219 303.881C69.2289 300.577 69.6974 297.766 70.6244 295.449C71.5614 293.121 72.8977 291.346 74.6335 290.123C76.3791 288.9 78.465 288.289 80.8912 288.289C83.3173 288.289 85.4032 288.9 87.1489 290.123C88.8945 291.346 90.2309 293.121 91.1579 295.449C92.0949 297.776 92.5633 300.587 92.5633 303.881C92.5633 307.195 92.0949 310.025 91.1579 312.372C90.2309 314.71 88.8945 316.495 87.1489 317.728C85.4131 318.961 83.3272 319.577 80.8912 319.577ZM80.8912 314.947C82.7848 314.947 84.2789 314.015 85.3736 312.151C86.4782 310.277 87.0305 307.52 87.0305 303.881C87.0305 301.475 86.779 299.453 86.276 297.816C85.7731 296.178 85.063 294.946 84.1458 294.117C83.2286 293.279 82.1437 292.86 80.8912 292.86C79.0075 292.86 77.5182 293.797 76.4235 295.671C75.3288 297.535 74.7765 300.271 74.7666 303.881C74.7568 306.297 74.9984 308.329 75.4915 309.976C75.9945 311.623 76.7046 312.866 77.6218 313.704C78.539 314.532 79.6288 314.947 80.8912 314.947ZM96.9311 313.378V309.014L109.787 288.703H113.426V294.916H111.207L102.553 308.63V308.866H120.497V313.378H96.9311ZM111.384 319V312.047L111.444 310.094V288.703H116.621V319H111.384ZM135.853 288.703H142.569L151.564 310.656H151.919L160.913 288.703H167.63V319H162.363V298.185H162.082L153.709 318.911H149.774L141.401 298.141H141.12V319H135.853V288.703ZM177.497 319H171.639L182.305 288.703H189.08L199.761 319H193.903L185.811 294.916H185.574L177.497 319ZM177.689 307.121H193.666V311.529H177.689V307.121ZM198.589 288.703H204.787L212.199 302.106H212.495L219.907 288.703H226.105L215.084 307.698V319H209.61V307.698L198.589 288.703Z" fill="white"/>
<path d="M258.167 269C258.167 268.355 257.645 267.833 257 267.833C256.355 267.833 255.833 268.355 255.833 269H258.167ZM255.833 269V339.116H258.167V269H255.833Z" fill="white"/>
<path d="M763.167 269C763.167 268.355 762.645 267.833 762 267.833C761.355 267.833 760.833 268.355 760.833 269H763.167ZM760.833 269V339.116H763.167V269H760.833Z" fill="white"/>
<rect y="125" width="1044" height="105" rx="35.0144" fill="#D1FFD9"/>
<path d="M258.167 143C258.167 142.355 257.645 141.833 257 141.833C256.355 141.833 255.833 142.355 255.833 143H258.167ZM255.833 143V213.116H258.167V143H255.833Z" fill="#27BA89"/>
<path d="M763.167 143C763.167 142.355 762.645 141.833 762 141.833C761.355 141.833 760.833 142.355 760.833 143H763.167ZM760.833 143V213.116H763.167V143H760.833Z" fill="#27BA89"/>
<path d="M289.633 187V156.703H301.586C303.884 156.703 305.842 157.142 307.46 158.019C309.077 158.887 310.31 160.095 311.158 161.644C312.016 163.182 312.445 164.958 312.445 166.969C312.445 168.981 312.011 170.757 311.143 172.295C310.275 173.834 309.018 175.032 307.371 175.89C305.734 176.748 303.751 177.177 301.424 177.177H293.805V172.044H300.388C301.621 172.044 302.637 171.832 303.436 171.408C304.244 170.974 304.846 170.377 305.24 169.618C305.645 168.848 305.847 167.966 305.847 166.969C305.847 165.964 305.645 165.086 305.24 164.336C304.846 163.577 304.244 162.99 303.436 162.576C302.627 162.152 301.601 161.94 300.359 161.94H296.039V187H289.633ZM316.606 187V156.703H328.559C330.847 156.703 332.8 157.112 334.417 157.931C336.044 158.739 337.282 159.888 338.13 161.378C338.988 162.857 339.417 164.598 339.417 166.6C339.417 168.612 338.983 170.342 338.116 171.792C337.248 173.232 335.99 174.337 334.343 175.106C332.706 175.875 330.724 176.26 328.396 176.26H320.393V171.112H327.361C328.584 171.112 329.599 170.944 330.408 170.609C331.217 170.273 331.818 169.77 332.213 169.1C332.617 168.429 332.819 167.596 332.819 166.6C332.819 165.594 332.617 164.746 332.213 164.055C331.818 163.365 331.212 162.842 330.393 162.487C329.585 162.122 328.564 161.94 327.331 161.94H323.011V187H316.606ZM332.967 173.212L340.497 187H333.426L326.059 173.212H332.967ZM343.944 187V156.703H364.359V161.984H350.35V169.203H363.309V174.485H350.35V181.719H364.419V187H343.944ZM369.452 187V156.703H375.858V181.719H388.846V187H369.452ZM399.494 156.703V187H393.089V156.703H399.494ZM404.764 156.703H412.664L421.008 177.059H421.363L429.706 156.703H437.606V187H431.393V167.28H431.141L423.301 186.852H419.07L411.229 167.206H410.978V187H404.764V156.703ZM449.289 156.703V187H442.884V156.703H449.289ZM479.901 156.703V187H474.368L461.187 167.931H460.965V187H454.56V156.703H460.181L473.259 175.757H473.525V156.703H479.901ZM490.416 187H483.551L494.01 156.703H502.265L512.709 187H505.845L498.256 163.626H498.019L490.416 187ZM489.987 175.091H506.2V180.091H489.987V175.091ZM516.356 187V156.703H528.309C530.597 156.703 532.55 157.112 534.168 157.931C535.795 158.739 537.033 159.888 537.881 161.378C538.739 162.857 539.168 164.598 539.168 166.6C539.168 168.612 538.734 170.342 537.866 171.792C536.998 173.232 535.741 174.337 534.094 175.106C532.456 175.875 530.474 176.26 528.147 176.26H520.143V171.112H527.111C528.334 171.112 529.35 170.944 530.159 170.609C530.967 170.273 531.569 169.77 531.963 169.1C532.368 168.429 532.57 167.596 532.57 166.6C532.57 165.594 532.368 164.746 531.963 164.055C531.569 163.365 530.962 162.842 530.144 162.487C529.335 162.122 528.314 161.94 527.081 161.94H522.762V187H516.356ZM532.718 173.212L540.248 187H533.176L525.809 173.212H532.718ZM540.658 156.703H547.833L554.742 169.751H555.038L561.946 156.703H569.121L558.07 176.289V187H551.709V176.289L540.658 156.703ZM582.262 187V156.703H594.215C596.503 156.703 598.456 157.112 600.073 157.931C601.7 158.739 602.938 159.888 603.786 161.378C604.644 162.857 605.073 164.598 605.073 166.6C605.073 168.612 604.639 170.342 603.771 171.792C602.904 173.232 601.646 174.337 599.999 175.106C598.362 175.875 596.38 176.26 594.052 176.26H586.049V171.112H593.016C594.239 171.112 595.255 170.944 596.064 170.609C596.873 170.273 597.474 169.77 597.869 169.1C598.273 168.429 598.475 167.596 598.475 166.6C598.475 165.594 598.273 164.746 597.869 164.055C597.474 163.365 596.868 162.842 596.049 162.487C595.24 162.122 594.22 161.94 592.987 161.94H588.667V187H582.262ZM598.623 173.212L606.153 187H599.082L591.715 173.212H598.623ZM637.442 171.851C637.442 175.155 636.815 177.966 635.563 180.284C634.32 182.601 632.624 184.372 630.474 185.595C628.334 186.808 625.927 187.414 623.255 187.414C620.562 187.414 618.146 186.803 616.006 185.58C613.866 184.357 612.174 182.587 610.932 180.269C609.689 177.951 609.068 175.145 609.068 171.851C609.068 168.547 609.689 165.737 610.932 163.419C612.174 161.101 613.866 159.336 616.006 158.123C618.146 156.9 620.562 156.289 623.255 156.289C625.927 156.289 628.334 156.9 630.474 158.123C632.624 159.336 634.32 161.101 635.563 163.419C636.815 165.737 637.442 168.547 637.442 171.851ZM630.947 171.851C630.947 169.711 630.627 167.906 629.986 166.437C629.354 164.967 628.462 163.853 627.308 163.094C626.154 162.334 624.803 161.954 623.255 161.954C621.706 161.954 620.355 162.334 619.201 163.094C618.047 163.853 617.15 164.967 616.509 166.437C615.877 167.906 615.562 169.711 615.562 171.851C615.562 173.992 615.877 175.796 616.509 177.266C617.15 178.735 618.047 179.85 619.201 180.609C620.355 181.369 621.706 181.748 623.255 181.748C624.803 181.748 626.154 181.369 627.308 180.609C628.462 179.85 629.354 178.735 629.986 177.266C630.627 175.796 630.947 173.992 630.947 171.851ZM660.901 156.703H667.306V176.378C667.306 178.587 666.779 180.52 665.723 182.177C664.678 183.834 663.213 185.126 661.33 186.053C659.446 186.97 657.251 187.429 654.746 187.429C652.232 187.429 650.032 186.97 648.148 186.053C646.265 185.126 644.8 183.834 643.755 182.177C642.709 180.52 642.187 178.587 642.187 176.378V156.703H648.592V175.831C648.592 176.985 648.844 178.01 649.347 178.908C649.86 179.805 650.58 180.511 651.507 181.023C652.434 181.536 653.514 181.793 654.746 181.793C655.989 181.793 657.069 181.536 657.986 181.023C658.913 180.511 659.628 179.805 660.131 178.908C660.644 178.01 660.901 176.985 660.901 175.831V156.703ZM697.918 156.703V187H692.385L679.204 167.931H678.982V187H672.576V156.703H678.198L691.275 175.757H691.542V156.703H697.918ZM713.95 187H703.21V156.703H714.039C717.087 156.703 719.71 157.309 721.909 158.522C724.109 159.726 725.8 161.456 726.984 163.715C728.177 165.973 728.774 168.676 728.774 171.822C728.774 174.978 728.177 177.69 726.984 179.958C725.8 182.227 724.099 183.967 721.88 185.18C719.671 186.393 717.027 187 713.95 187ZM709.616 181.512H713.684C715.578 181.512 717.17 181.176 718.462 180.506C719.764 179.825 720.741 178.775 721.392 177.355C722.052 175.925 722.383 174.08 722.383 171.822C722.383 169.583 722.052 167.754 721.392 166.333C720.741 164.913 719.769 163.868 718.477 163.197C717.185 162.526 715.592 162.191 713.699 162.191H709.616V181.512Z" fill="url(#paint4_linear_8_11)"/>
<path d="M827.061 177.851C827.061 181.116 826.449 183.912 825.226 186.239C824.013 188.557 822.356 190.332 820.256 191.565C818.165 192.798 815.793 193.414 813.14 193.414C810.487 193.414 808.11 192.798 806.009 191.565C803.918 190.322 802.262 188.542 801.039 186.225C799.826 183.897 799.219 181.106 799.219 177.851C799.219 174.587 799.826 171.796 801.039 169.478C802.262 167.151 803.918 165.371 806.009 164.138C808.11 162.905 810.487 162.289 813.14 162.289C815.793 162.289 818.165 162.905 820.256 164.138C822.356 165.371 824.013 167.151 825.226 169.478C826.449 171.796 827.061 174.587 827.061 177.851ZM821.543 177.851C821.543 175.553 821.183 173.615 820.463 172.037C819.753 170.45 818.766 169.251 817.504 168.443C816.242 167.624 814.787 167.215 813.14 167.215C811.493 167.215 810.038 167.624 808.776 168.443C807.513 169.251 806.522 170.45 805.802 172.037C805.092 173.615 804.737 175.553 804.737 177.851C804.737 180.149 805.092 182.092 805.802 183.68C806.522 185.258 807.513 186.456 808.776 187.275C810.038 188.084 811.493 188.488 813.14 188.488C814.787 188.488 816.242 188.084 817.504 187.275C818.766 186.456 819.753 185.258 820.463 183.68C821.183 182.092 821.543 180.149 821.543 177.851ZM857.147 162.703V193H852.265L837.989 172.363H837.738V193H832.249V162.703H837.161L851.422 183.355H851.688V162.703H857.147ZM863.127 193V162.703H868.616V188.399H881.96V193H863.127ZM892.212 162.703V193H886.723V162.703H892.212ZM923.052 162.703V193H918.171L903.895 172.363H903.643V193H898.155V162.703H903.066L917.327 183.355H917.594V162.703H923.052ZM929.033 193V162.703H948.738V167.304H934.521V175.529H947.717V180.13H934.521V188.399H948.856V193H929.033Z" fill="url(#paint5_linear_8_11)"/>
<path d="M47.6924 187V183.035L58.2107 172.724C59.2166 171.708 60.0549 170.806 60.7256 170.017C61.3962 169.228 61.8992 168.464 62.2345 167.724C62.5699 166.984 62.7375 166.195 62.7375 165.357C62.7375 164.4 62.5205 163.582 62.0866 162.901C61.6526 162.211 61.056 161.678 60.2966 161.304C59.5372 160.929 58.6742 160.741 57.7077 160.741C56.7116 160.741 55.8388 160.948 55.0892 161.363C54.3397 161.767 53.7578 162.344 53.3436 163.094C52.9392 163.843 52.737 164.736 52.737 165.771H47.5149C47.5149 163.848 47.9538 162.176 48.8315 160.756C49.7093 159.336 50.9174 158.236 52.456 157.457C54.0044 156.678 55.7796 156.289 57.7817 156.289C59.8133 156.289 61.5984 156.668 63.1369 157.428C64.6755 158.187 65.8688 159.228 66.717 160.549C67.575 161.871 68.004 163.38 68.004 165.076C68.004 166.21 67.7871 167.325 67.3531 168.419C66.9192 169.514 66.1548 170.727 65.0601 172.058C63.9752 173.39 62.4515 175.002 60.4889 176.896L55.2668 182.207V182.414H68.4626V187H47.6924ZM84.0847 156.289C85.5344 156.298 86.9448 156.555 88.3156 157.058C89.6964 157.551 90.939 158.36 92.0436 159.484C93.1482 160.598 94.026 162.093 94.6769 163.966C95.3278 165.84 95.6532 168.158 95.6532 170.919C95.6631 173.523 95.387 175.851 94.8248 177.902C94.2725 179.943 93.4786 181.669 92.443 183.08C91.4075 184.49 90.1599 185.565 88.7003 186.305C87.2406 187.044 85.5985 187.414 83.774 187.414C81.8607 187.414 80.1644 187.039 78.685 186.29C77.2155 185.54 76.0271 184.515 75.1197 183.213C74.2124 181.911 73.6552 180.422 73.4481 178.745H78.8477C79.1239 179.948 79.686 180.905 80.5342 181.615C81.3922 182.315 82.4722 182.665 83.774 182.665C85.8747 182.665 87.4921 181.753 88.6263 179.929C89.7605 178.104 90.3276 175.569 90.3276 172.325H90.1204C89.6372 173.193 89.0109 173.942 88.2417 174.573C87.4724 175.195 86.5996 175.673 85.6232 176.008C84.6567 176.344 83.631 176.511 82.5461 176.511C80.7709 176.511 79.1732 176.087 77.753 175.239C76.3427 174.391 75.2233 173.227 74.3949 171.748C73.5763 170.268 73.1621 168.577 73.1522 166.674C73.1522 164.701 73.6059 162.931 74.5132 161.363C75.4304 159.785 76.7076 158.542 78.3447 157.635C79.9819 156.718 81.8952 156.269 84.0847 156.289ZM84.0995 160.727C83.0343 160.727 82.0727 160.988 81.2147 161.511C80.3665 162.023 79.6959 162.724 79.2028 163.611C78.7195 164.489 78.4779 165.47 78.4779 166.555C78.4878 167.63 78.7294 168.607 79.2028 169.484C79.686 170.362 80.3419 171.057 81.1703 171.57C82.0086 172.083 82.9653 172.34 84.0403 172.34C84.8391 172.34 85.5837 172.187 86.2741 171.881C86.9645 171.575 87.5661 171.151 88.0789 170.609C88.6016 170.056 89.006 169.43 89.292 168.73C89.5879 168.03 89.7309 167.29 89.721 166.511C89.721 165.475 89.4745 164.519 88.9813 163.641C88.4981 162.763 87.8324 162.058 86.9842 161.525C86.1459 160.993 85.1843 160.727 84.0995 160.727ZM115.099 187H109.241L119.907 156.703H126.683L137.364 187H131.506L123.413 162.916H123.177L115.099 187ZM115.292 175.121H131.269V179.529H115.292V175.121ZM141.354 187V156.703H152.716C155.043 156.703 156.996 157.137 158.574 158.005C160.162 158.872 161.36 160.066 162.169 161.585C162.987 163.094 163.397 164.81 163.397 166.733C163.397 168.676 162.987 170.402 162.169 171.911C161.35 173.419 160.142 174.608 158.544 175.476C156.947 176.334 154.979 176.763 152.642 176.763H145.112V172.251H151.902C153.263 172.251 154.378 172.014 155.246 171.541C156.113 171.067 156.754 170.416 157.169 169.588C157.593 168.76 157.805 167.808 157.805 166.733C157.805 165.658 157.593 164.711 157.169 163.892C156.754 163.074 156.108 162.438 155.231 161.984C154.363 161.521 153.243 161.289 151.873 161.289H146.843V187H141.354ZM168.164 187V156.703H179.525C181.853 156.703 183.806 157.107 185.384 157.916C186.972 158.725 188.17 159.859 188.979 161.318C189.797 162.768 190.206 164.46 190.206 166.393C190.206 168.335 189.792 170.022 188.964 171.452C188.145 172.872 186.937 173.972 185.339 174.751C183.742 175.52 181.779 175.905 179.452 175.905H171.359V171.348H178.712C180.073 171.348 181.187 171.161 182.055 170.786C182.923 170.402 183.564 169.844 183.978 169.115C184.402 168.375 184.614 167.468 184.614 166.393C184.614 165.318 184.402 164.4 183.978 163.641C183.554 162.872 182.908 162.29 182.04 161.895C181.173 161.491 180.053 161.289 178.682 161.289H173.652V187H168.164ZM183.816 173.272L191.316 187H185.191L177.824 173.272H183.816ZM200.747 156.703V187H195.258V156.703H200.747ZM206.69 187V156.703H212.179V182.399H225.522V187H206.69Z" fill="#27BA89"/>
<defs>
<linearGradient id="paint0_linear_8_11" x1="248.793" y1="77.9719" x2="248.793" y2="27.968" gradientUnits="userSpaceOnUse">
<stop stop-color="#27BA89"/>
</linearGradient>
<linearGradient id="paint1_linear_8_11" x1="775.042" y1="77.9719" x2="775.042" y2="27.968" gradientUnits="userSpaceOnUse">
<stop stop-color="#27BA89"/>
</linearGradient>
<linearGradient id="paint2_linear_8_11" x1="646.5" y1="250" x2="-147.897" y2="249.933" gradientUnits="userSpaceOnUse">
<stop stop-color="#27BA89"/>
<stop offset="1" stop-color="#90F59E"/>
</linearGradient>
<linearGradient id="paint3_linear_8_11" x1="266.593" y1="327.972" x2="266.593" y2="277.968" gradientUnits="userSpaceOnUse">
<stop stop-color="white"/>
</linearGradient>
<linearGradient id="paint4_linear_8_11" x1="224.101" y1="196.972" x2="224.101" y2="146.968" gradientUnits="userSpaceOnUse">
<stop stop-color="#27BA89"/>
</linearGradient>
<linearGradient id="paint5_linear_8_11" x1="775.042" y1="202.972" x2="775.042" y2="152.968" gradientUnits="userSpaceOnUse">
<stop stop-color="#27BA89"/>
</linearGradient>
</defs>
</svg>
