<?xml version="1.0" encoding="utf-8"?>
<!-- Generator: Adobe Illustrator 26.0.0, SVG Export Plug-In . SVG Version: 6.00 Build 0)  -->
<svg version="1.1" id="Layer_1" xmlns="http://www.w3.org/2000/svg" xmlns:xlink="http://www.w3.org/1999/xlink" x="0px" y="0px"
	 viewBox="0 0 818 755" style="enable-background:new 0 0 818 755;" xml:space="preserve">
<style type="text/css">
	.st0{fill:#C2EAF6;}
	.st1{fill:url(#SVGID_1_);}
	.st2{fill:#0A76C6;}
	.st3{fill:#FFFFFF;}
</style>
<path class="st0" d="M35,0h748c19.3,0,35,15.7,35,35v166c0,19.3-15.7,35-35,35H35c-19.3,0-35-15.7-35-35V35C0,15.7,15.7,0,35,0z"/>
<path class="st0" d="M35,260h748c19.3,0,35,15.7,35,35v166c0,19.3-15.7,35-35,35H35c-19.3,0-35-15.7-35-35V295
	C0,275.7,15.7,260,35,260z"/>
<linearGradient id="SVGID_1_" gradientUnits="userSpaceOnUse" x1="0" y1="723.0001" x2="818" y2="723.0001" gradientTransform="matrix(1 0 0 1 0 -86.0001)">
	<stop  offset="0" style="stop-color:#0A76C6"/>
	<stop  offset="1" style="stop-color:#84D6EE"/>
</linearGradient>
<path class="st1" d="M35,519h748c19.3,0,35,15.7,35,35v166c0,19.3-15.7,35-35,35H35c-19.3,0-35-15.7-35-35V554
	C0,534.7,15.7,519,35,519z"/>
<path class="st2" d="M253.1,110V75.1h13.8c2.6,0,4.9,0.5,6.8,1.5s3.3,2.4,4.3,4.2c1,1.8,1.5,3.8,1.5,6.1c0,2.3-0.5,4.4-1.5,6.1
	s-2.4,3.2-4.3,4.1c-1.9,1-4.2,1.5-6.9,1.5H258v-5.9h7.6c1.4,0,2.6-0.2,3.5-0.7s1.6-1.2,2.1-2.1s0.7-1.9,0.7-3.1s-0.2-2.2-0.7-3
	c-0.5-0.9-1.1-1.6-2.1-2c-0.9-0.5-2.1-0.7-3.5-0.7h-5V110H253.1z M284.1,110V75.1h13.8c2.6,0,4.9,0.5,6.8,1.4s3.3,2.3,4.3,4
	s1.5,3.7,1.5,6s-0.5,4.3-1.5,6s-2.4,2.9-4.3,3.8s-4.2,1.3-6.9,1.3h-9.2v-5.9h8c1.4,0,2.6-0.2,3.5-0.6s1.6-1,2.1-1.7
	c0.5-0.8,0.7-1.7,0.7-2.9c0-1.2-0.2-2.1-0.7-2.9s-1.2-1.4-2.1-1.8s-2.1-0.6-3.5-0.6h-5V110H284.1z M303,94.1l8.7,15.9h-8.1L295,94.1
	H303z M321.7,110h-7.9l12.1-34.9h9.5l12,34.9h-7.9l-8.7-26.9h-0.3L321.7,110z M321.2,96.3h18.7v5.8h-18.7V96.3z M380.7,87.3h-7.5
	c-0.1-1-0.4-1.8-0.8-2.6c-0.4-0.8-1-1.4-1.6-1.9c-0.7-0.5-1.4-0.9-2.3-1.2c-0.9-0.3-1.8-0.4-2.8-0.4c-1.8,0-3.4,0.4-4.7,1.3
	c-1.3,0.9-2.4,2.2-3.1,3.9c-0.7,1.7-1.1,3.8-1.1,6.2c0,2.5,0.4,4.6,1.1,6.3c0.8,1.7,1.8,3,3.1,3.8c1.3,0.9,2.9,1.3,4.7,1.3
	c1,0,1.9-0.1,2.7-0.4c0.9-0.3,1.6-0.6,2.3-1.1c0.7-0.5,1.2-1.1,1.6-1.9c0.4-0.7,0.8-1.6,0.9-2.5h7.5c-0.2,1.6-0.7,3.1-1.4,4.6
	c-0.8,1.5-1.8,2.8-3.1,4c-1.3,1.2-2.8,2.1-4.6,2.8c-1.8,0.7-3.8,1-6,1c-3.1,0-5.9-0.7-8.4-2.1c-2.4-1.4-4.4-3.4-5.8-6.1
	s-2.1-5.9-2.1-9.7c0-3.8,0.7-7,2.1-9.7s3.4-4.7,5.8-6.1c2.5-1.4,5.2-2.1,8.3-2.1c2,0,3.9,0.3,5.6,0.9s3.3,1.4,4.6,2.5
	c1.3,1.1,2.4,2.4,3.3,4C379.9,83.5,380.5,85.3,380.7,87.3z M384.7,81.2v-6.1h28.7v6.1h-10.7V110h-7.3V81.2H384.7z M425.4,75.1V110
	H418V75.1H425.4z M462.3,87.3h-7.5c-0.1-1-0.4-1.8-0.8-2.6c-0.4-0.8-1-1.4-1.6-1.9c-0.7-0.5-1.4-0.9-2.3-1.2
	c-0.9-0.3-1.8-0.4-2.8-0.4c-1.8,0-3.4,0.4-4.7,1.3c-1.3,0.9-2.4,2.2-3.1,3.9c-0.7,1.7-1.1,3.8-1.1,6.2c0,2.5,0.4,4.6,1.1,6.3
	c0.8,1.7,1.8,3,3.1,3.8c1.3,0.9,2.9,1.3,4.7,1.3c1,0,1.9-0.1,2.7-0.4c0.9-0.3,1.6-0.6,2.3-1.1c0.7-0.5,1.2-1.1,1.6-1.9
	c0.4-0.7,0.8-1.6,0.9-2.5h7.5c-0.2,1.6-0.7,3.1-1.4,4.6c-0.8,1.5-1.8,2.8-3.1,4c-1.3,1.2-2.8,2.1-4.6,2.8c-1.8,0.7-3.8,1-6,1
	c-3.1,0-5.9-0.7-8.4-2.1c-2.4-1.4-4.4-3.4-5.8-6.1s-2.1-5.9-2.1-9.7c0-3.8,0.7-7,2.1-9.7s3.4-4.7,5.8-6.1c2.5-1.4,5.2-2.1,8.3-2.1
	c2,0,3.9,0.3,5.6,0.9s3.3,1.4,4.6,2.5c1.3,1.1,2.4,2.4,3.3,4C461.5,83.5,462.1,85.3,462.3,87.3z M467.6,110V75.1h23.5v6.1H475v8.3
	h14.9v6.1H475v8.3h16.2v6.1H467.6z M538.9,87.3h-7.5c-0.1-1-0.4-1.8-0.8-2.6c-0.4-0.8-1-1.4-1.6-1.9c-0.7-0.5-1.4-0.9-2.3-1.2
	c-0.9-0.3-1.8-0.4-2.8-0.4c-1.8,0-3.4,0.4-4.7,1.3s-2.4,2.2-3.1,3.9c-0.7,1.7-1.1,3.8-1.1,6.2c0,2.5,0.4,4.6,1.1,6.3
	c0.8,1.7,1.8,3,3.1,3.8c1.3,0.9,2.9,1.3,4.7,1.3c1,0,1.9-0.1,2.7-0.4c0.9-0.3,1.6-0.6,2.3-1.1s1.2-1.1,1.6-1.9
	c0.4-0.7,0.8-1.6,0.9-2.5h7.5c-0.2,1.6-0.7,3.1-1.4,4.6c-0.8,1.5-1.8,2.8-3.1,4s-2.8,2.1-4.6,2.8c-1.8,0.7-3.8,1-6,1
	c-3.1,0-5.9-0.7-8.4-2.1c-2.4-1.4-4.4-3.4-5.8-6.1s-2.1-5.9-2.1-9.7c0-3.8,0.7-7,2.1-9.7s3.4-4.7,5.8-6.1c2.5-1.4,5.2-2.1,8.3-2.1
	c2,0,3.9,0.3,5.6,0.9c1.7,0.6,3.3,1.4,4.6,2.5s2.4,2.4,3.3,4C538.1,83.5,538.7,85.3,538.9,87.3z M576.3,92.5c0,3.8-0.7,7-2.2,9.7
	c-1.4,2.7-3.4,4.7-5.9,6.1s-5.2,2.1-8.3,2.1s-5.9-0.7-8.4-2.1s-4.4-3.4-5.8-6.1c-1.4-2.7-2.1-5.9-2.1-9.7c0-3.8,0.7-7,2.1-9.7
	c1.4-2.7,3.4-4.7,5.8-6.1c2.5-1.4,5.2-2.1,8.4-2.1c3.1,0,5.9,0.7,8.3,2.1c2.5,1.4,4.4,3.4,5.9,6.1S576.3,88.7,576.3,92.5z
	 M568.8,92.5c0-2.5-0.4-4.5-1.1-6.2c-0.7-1.7-1.8-3-3.1-3.9s-2.9-1.3-4.7-1.3s-3.3,0.4-4.7,1.3c-1.3,0.9-2.4,2.2-3.1,3.9
	c-0.7,1.7-1.1,3.8-1.1,6.2c0,2.5,0.4,4.5,1.1,6.2c0.7,1.7,1.8,3,3.1,3.9s2.9,1.3,4.7,1.3s3.3-0.4,4.7-1.3c1.3-0.9,2.4-2.2,3.1-3.9
	C568.4,97.1,568.8,95,568.8,92.5z M610.9,75.1V110h-6.4l-15.2-22H589v22h-7.4V75.1h6.5l15.1,22h0.3v-22H610.9z M615.7,81.2v-6.1
	h28.7v6.1h-10.7V110h-7.3V81.2H615.7z M649.1,110V75.1h23.5v6.1h-16.1v8.3h14.9v6.1h-14.9v8.3h16.2v6.1H649.1z M697.4,85.1
	c-0.1-1.4-0.7-2.4-1.8-3.2c-1-0.8-2.4-1.1-4.2-1.1c-1.2,0-2.2,0.2-3.1,0.5c-0.8,0.3-1.5,0.8-1.9,1.4s-0.6,1.3-0.6,2
	c0,0.6,0.1,1.2,0.4,1.6c0.3,0.5,0.7,0.9,1.2,1.2c0.5,0.3,1.1,0.6,1.8,0.9c0.7,0.2,1.4,0.4,2.1,0.6l3.1,0.8c1.5,0.3,2.9,0.8,4.2,1.4
	s2.4,1.3,3.3,2.1c0.9,0.8,1.7,1.8,2.2,2.9s0.8,2.4,0.8,3.9c0,2.1-0.6,4-1.6,5.6c-1.1,1.6-2.6,2.8-4.6,3.6c-2,0.9-4.4,1.3-7.3,1.3
	c-2.8,0-5.3-0.4-7.4-1.3c-2.1-0.9-3.7-2.1-4.9-3.8c-1.2-1.7-1.8-3.8-1.8-6.3h7.1c0.1,1.2,0.4,2.1,1,2.9s1.4,1.4,2.4,1.8
	s2.2,0.6,3.4,0.6s2.3-0.2,3.3-0.5c0.9-0.4,1.7-0.9,2.2-1.5s0.8-1.4,0.8-2.2c0-0.8-0.2-1.4-0.7-2c-0.5-0.5-1.1-1-2-1.4
	s-1.9-0.7-3.2-1l-3.8-1c-2.9-0.7-5.3-1.8-7-3.4c-1.7-1.5-2.6-3.6-2.5-6.2c0-2.1,0.6-4,1.7-5.5c1.1-1.6,2.7-2.8,4.7-3.7
	c2-0.9,4.3-1.3,6.8-1.3c2.6,0,4.9,0.4,6.8,1.3c1.9,0.9,3.5,2.1,4.5,3.7c1.1,1.6,1.6,3.4,1.7,5.5h-7.1V85.1z M708.6,81.2v-6.1h28.7
	v6.1h-10.7V110h-7.3V81.2H708.6z"/>
<path class="st2" d="M276.7,149.2c0,2.9-0.5,5.4-1.6,7.6c-1.1,2.1-2.5,3.8-4.3,4.9c-1.8,1.2-3.9,1.7-6.3,1.7s-4.5-0.6-6.3-1.7
	c-1.8-1.2-3.3-2.8-4.3-4.9c-1.1-2.1-1.6-4.6-1.6-7.6c0-2.9,0.5-5.4,1.6-7.6c1.1-2.1,2.5-3.8,4.3-4.9c1.8-1.2,3.9-1.7,6.3-1.7
	s4.5,0.6,6.3,1.7c1.8,1.2,3.3,2.8,4.3,4.9C276.1,143.7,276.7,146.3,276.7,149.2z M273.4,149.2c0-2.4-0.4-4.4-1.2-6.1
	c-0.8-1.6-1.9-2.9-3.2-3.7c-1.3-0.8-2.9-1.3-4.5-1.3s-3.2,0.4-4.5,1.3c-1.3,0.8-2.4,2.1-3.2,3.7c-0.8,1.6-1.2,3.7-1.2,6.1
	c0,2.4,0.4,4.4,1.2,6.1c0.8,1.6,1.9,2.9,3.2,3.7c1.4,0.8,2.9,1.3,4.5,1.3s3.2-0.4,4.5-1.3c1.4-0.8,2.4-2.1,3.2-3.7
	C273,153.6,273.4,151.6,273.4,149.2z M304.2,135.4V163H301l-15.1-21.7h-0.3V163h-3.3v-27.6h3.2l15.1,21.8h0.3v-21.8H304.2z
	 M310.9,163v-27.6h3.3V160H327v3H310.9z M335.6,135.4V163h-3.3v-27.6H335.6z M364.2,135.4V163H361l-15-21.7h-0.3V163h-3.3v-27.6h3.2
	l15.1,21.8h0.3v-21.8H364.2z M370.9,163v-27.6h16.7v3h-13.3v9.3h12.5v3h-12.5v9.4h13.5v3L370.9,163L370.9,163z"/>
<path class="st2" d="M218.2,39c0-0.6-0.5-1.2-1.2-1.2s-1.2,0.5-1.2,1.2H218.2z M215.8,39v157h2.3V39H215.8z"/>
<path class="st2" d="M253.3,370v-34.9h13.8c2.6,0,4.9,0.5,6.8,1.5s3.3,2.4,4.3,4.2c1,1.8,1.5,3.8,1.5,6.1c0,2.3-0.5,4.4-1.5,6.1
	c-1,1.8-2.4,3.2-4.3,4.1c-1.9,1-4.2,1.5-6.9,1.5h-8.8v-5.9h7.6c1.4,0,2.6-0.2,3.5-0.7s1.6-1.2,2.1-2.1s0.7-1.9,0.7-3.1
	s-0.2-2.2-0.7-3c-0.5-0.9-1.1-1.6-2.1-2c-0.9-0.5-2.1-0.7-3.5-0.7h-5V370H253.3z M284.4,370v-34.9h13.8c2.6,0,4.9,0.5,6.8,1.4
	s3.3,2.3,4.3,4s1.5,3.7,1.5,6s-0.5,4.3-1.5,6s-2.4,2.9-4.3,3.8s-4.2,1.3-6.9,1.3h-9.2v-5.9h8c1.4,0,2.6-0.2,3.5-0.6s1.6-1,2.1-1.7
	c0.5-0.8,0.7-1.7,0.7-2.9c0-1.2-0.2-2.1-0.7-2.9s-1.2-1.4-2.1-1.8s-2.1-0.6-3.5-0.6h-5V370H284.4z M303.2,354.1l8.7,15.9h-8.1
	l-8.5-15.9H303.2z M315.9,370v-34.9h23.5v6.1h-16.1v8.3h14.9v6.1h-14.9v8.3h16.2v6.1H315.9z M345.3,370v-34.9h7.4v28.8h15v6.1H345.3
	z M379.9,335.1V370h-7.4v-34.9H379.9z M386,335.1h9.1l9.6,23.5h0.4l9.6-23.5h9.1V370h-7.2v-22.7h-0.3l-9,22.6h-4.9l-9-22.6h-0.3V370
	H386V335.1z M437.3,335.1V370h-7.4v-34.9H437.3z M472.5,335.1V370h-6.4L451,348h-0.3v22h-7.4v-34.9h6.5l15.1,22h0.3v-22H472.5z
	 M484.7,370h-7.9l12.1-34.9h9.5l12,34.9h-7.9l-8.7-26.9h-0.3L484.7,370z M484.2,356.3h18.7v5.8h-18.7V356.3z M514.5,370v-34.9h13.8
	c2.6,0,4.9,0.5,6.8,1.4c1.9,0.9,3.3,2.3,4.3,4s1.5,3.7,1.5,6s-0.5,4.3-1.5,6s-2.4,2.9-4.3,3.8c-1.9,0.9-4.2,1.3-6.9,1.3H519v-5.9h8
	c1.4,0,2.6-0.2,3.5-0.6s1.6-1,2.1-1.7c0.5-0.8,0.7-1.7,0.7-2.9c0-1.2-0.2-2.1-0.7-2.9s-1.2-1.4-2.1-1.8c-0.9-0.4-2.1-0.6-3.5-0.6h-5
	V370H514.5z M533.4,354.1l8.7,15.9H534l-8.5-15.9H533.4z M542.5,335.1h8.3l8,15h0.3l8-15h8.3l-12.7,22.6V370h-7.3v-12.3L542.5,335.1
	z M590.5,370v-34.9h13.8c2.6,0,4.9,0.5,6.8,1.4c1.9,0.9,3.3,2.3,4.3,4s1.5,3.7,1.5,6s-0.5,4.3-1.5,6s-2.4,2.9-4.3,3.8
	c-1.9,0.9-4.2,1.3-6.9,1.3H595v-5.9h8c1.4,0,2.6-0.2,3.5-0.6s1.6-1,2.1-1.7c0.5-0.8,0.7-1.7,0.7-2.9c0-1.2-0.2-2.1-0.7-2.9
	s-1.2-1.4-2.1-1.8c-0.9-0.4-2.1-0.6-3.5-0.6h-5V370H590.5z M609.3,354.1L618,370h-8.1l-8.5-15.9H609.3z M654.1,352.5
	c0,3.8-0.7,7-2.2,9.7c-1.4,2.7-3.4,4.7-5.9,6.1s-5.2,2.1-8.3,2.1s-5.9-0.7-8.4-2.1s-4.4-3.4-5.8-6.1c-1.4-2.7-2.1-5.9-2.1-9.7
	c0-3.8,0.7-7,2.1-9.7c1.4-2.7,3.4-4.7,5.8-6.1c2.5-1.4,5.2-2.1,8.4-2.1c3.1,0,5.9,0.7,8.3,2.1c2.5,1.4,4.4,3.4,5.9,6.1
	C653.3,345.5,654.1,348.7,654.1,352.5z M646.6,352.5c0-2.5-0.4-4.5-1.1-6.2c-0.7-1.7-1.8-3-3.1-3.9s-2.9-1.3-4.7-1.3
	s-3.3,0.4-4.7,1.3c-1.3,0.9-2.4,2.2-3.1,3.9c-0.7,1.7-1.1,3.8-1.1,6.2c0,2.5,0.4,4.5,1.1,6.2c0.7,1.7,1.8,3,3.1,3.9s2.9,1.3,4.7,1.3
	s3.3-0.4,4.7-1.3c1.3-0.9,2.4-2.2,3.1-3.9C646.2,357.1,646.6,355,646.6,352.5z M681.1,335.1h7.4v22.7c0,2.5-0.6,4.8-1.8,6.7
	c-1.2,1.9-2.9,3.4-5.1,4.5c-2.2,1.1-4.7,1.6-7.6,1.6c-2.9,0-5.4-0.5-7.6-1.6c-2.2-1.1-3.9-2.6-5.1-4.5c-1.2-1.9-1.8-4.1-1.8-6.7
	v-22.7h7.4v22c0,1.3,0.3,2.5,0.9,3.5c0.6,1,1.4,1.8,2.5,2.4s2.3,0.9,3.7,0.9s2.7-0.3,3.7-0.9c1.1-0.6,1.9-1.4,2.5-2.4
	s0.9-2.2,0.9-3.5L681.1,335.1L681.1,335.1z M723.7,335.1V370h-6.4l-15.2-22h-0.3v22h-7.4v-34.9h6.5l15.1,22h0.3v-22H723.7z
	 M742.2,370h-12.4v-34.9h12.5c3.5,0,6.5,0.7,9.1,2.1c2.5,1.4,4.5,3.4,5.8,6c1.4,2.6,2.1,5.7,2.1,9.3c0,3.6-0.7,6.8-2.1,9.4
	c-1.4,2.6-3.3,4.6-5.9,6C748.8,369.3,745.8,370,742.2,370z M737.2,363.7h4.7c2.2,0,4-0.4,5.5-1.2c1.5-0.8,2.6-2,3.4-3.6
	c0.8-1.6,1.1-3.8,1.1-6.4s-0.4-4.7-1.1-6.3c-0.8-1.6-1.9-2.8-3.4-3.6c-1.5-0.8-3.3-1.2-5.5-1.2h-4.7V363.7z"/>
<path class="st2" d="M276.7,409.2c0,2.9-0.5,5.4-1.6,7.6c-1.1,2.1-2.5,3.8-4.3,4.9c-1.8,1.2-3.9,1.7-6.3,1.7s-4.5-0.6-6.3-1.7
	c-1.8-1.2-3.3-2.8-4.3-4.9c-1.1-2.1-1.6-4.6-1.6-7.6c0-2.9,0.5-5.4,1.6-7.6c1.1-2.1,2.5-3.8,4.3-4.9c1.8-1.2,3.9-1.7,6.3-1.7
	s4.5,0.6,6.3,1.7c1.8,1.2,3.3,2.8,4.3,4.9S276.7,406.3,276.7,409.2z M273.4,409.2c0-2.4-0.4-4.4-1.2-6.1c-0.8-1.6-1.9-2.9-3.2-3.7
	c-1.3-0.8-2.9-1.3-4.5-1.3s-3.2,0.4-4.5,1.3c-1.3,0.8-2.4,2.1-3.2,3.7c-0.8,1.6-1.2,3.7-1.2,6.1s0.4,4.4,1.2,6.1
	c0.8,1.6,1.9,2.9,3.2,3.7c1.4,0.8,2.9,1.3,4.5,1.3s3.2-0.4,4.5-1.3c1.4-0.8,2.4-2.1,3.2-3.7C273,413.6,273.4,411.6,273.4,409.2z
	 M304.2,395.4V423H301l-15.1-21.7h-0.3V423h-3.3v-27.6h3.2l15.1,21.8h0.3v-21.8H304.2z M310.9,423v-27.6h3.3V420H327v3H310.9z
	 M335.6,395.4V423h-3.3v-27.6H335.6z M364.2,395.4V423H361l-15-21.7h-0.3V423h-3.3v-27.6h3.2l15.1,21.8h0.3v-21.8H364.2z M370.9,423
	v-27.6h16.7v3h-13.3v9.3h12.5v3h-12.5v9.4h13.5v3L370.9,423L370.9,423z"/>
<path class="st3" d="M282.2,595.1V630h-6.4l-15.2-22h-0.3v22H253v-34.9h6.5l15.1,22h0.3v-22H282.2z M294.3,630h-7.9l12.1-34.9h9.5
	l12,34.9h-7.9l-8.7-26.9h-0.3L294.3,630z M293.9,616.3h18.7v5.8h-18.7V616.3z M318.6,601.2v-6.1h28.7v6.1h-10.7V630h-7.3v-28.8
	H318.6z M359.4,595.1V630H352v-34.9H359.4z M397.6,612.5c0,3.8-0.7,7-2.2,9.7c-1.4,2.7-3.4,4.7-5.9,6.1c-2.5,1.4-5.2,2.1-8.3,2.1
	c-3.1,0-5.9-0.7-8.4-2.1s-4.4-3.4-5.8-6.1c-1.4-2.7-2.1-5.9-2.1-9.7s0.7-7,2.1-9.7s3.4-4.7,5.8-6.1c2.5-1.4,5.2-2.1,8.4-2.1
	c3.1,0,5.9,0.7,8.3,2.1c2.5,1.4,4.4,3.4,5.9,6.1C396.8,605.5,397.6,608.7,397.6,612.5z M390.1,612.5c0-2.5-0.4-4.5-1.1-6.2
	s-1.8-3-3.1-3.9c-1.3-0.9-2.9-1.3-4.7-1.3s-3.3,0.4-4.7,1.3c-1.3,0.9-2.4,2.2-3.1,3.9s-1.1,3.8-1.1,6.2c0,2.5,0.4,4.5,1.1,6.2
	s1.8,3,3.1,3.9c1.3,0.9,2.9,1.3,4.7,1.3s3.3-0.4,4.7-1.3c1.3-0.9,2.4-2.2,3.1-3.9C389.7,617.1,390.1,615,390.1,612.5z M432.2,595.1
	V630h-6.4l-15.2-22h-0.3v22H403v-34.9h6.5l15.1,22h0.3v-22H432.2z M444.3,630h-7.9l12.1-34.9h9.5l12,34.9h-7.9l-8.7-26.9h-0.3
	L444.3,630z M443.9,616.3h18.7v5.8h-18.7V616.3z M474.2,630v-34.9h7.4v28.8h15v6.1L474.2,630L474.2,630z M512.6,630v-34.9h13.8
	c2.6,0,4.9,0.5,6.8,1.4c1.9,0.9,3.3,2.3,4.3,4s1.5,3.7,1.5,6s-0.5,4.3-1.5,6s-2.4,2.9-4.3,3.8c-1.9,0.9-4.2,1.3-6.9,1.3h-9.2v-5.9h8
	c1.4,0,2.6-0.2,3.5-0.6c0.9-0.4,1.6-1,2.1-1.7c0.5-0.8,0.7-1.7,0.7-2.9s-0.2-2.1-0.7-2.9c-0.5-0.8-1.2-1.4-2.1-1.8
	c-0.9-0.4-2.1-0.6-3.5-0.6h-5V630H512.6z M531.4,614.1l8.7,15.9H532l-8.5-15.9H531.4z M576.2,612.5c0,3.8-0.7,7-2.2,9.7
	c-1.4,2.7-3.4,4.7-5.9,6.1c-2.5,1.4-5.2,2.1-8.3,2.1s-5.9-0.7-8.4-2.1s-4.4-3.4-5.8-6.1c-1.4-2.7-2.1-5.9-2.1-9.7s0.7-7,2.1-9.7
	c1.4-2.7,3.4-4.7,5.8-6.1c2.5-1.4,5.2-2.1,8.4-2.1c3.1,0,5.9,0.7,8.3,2.1c2.5,1.4,4.4,3.4,5.9,6.1
	C575.4,605.5,576.2,608.7,576.2,612.5z M568.7,612.5c0-2.5-0.4-4.5-1.1-6.2c-0.7-1.7-1.8-3-3.1-3.9s-2.9-1.3-4.7-1.3
	s-3.3,0.4-4.7,1.3c-1.3,0.9-2.4,2.2-3.1,3.9c-0.7,1.7-1.1,3.8-1.1,6.2c0,2.5,0.4,4.5,1.1,6.2c0.7,1.7,1.8,3,3.1,3.9s2.9,1.3,4.7,1.3
	s3.3-0.4,4.7-1.3c1.3-0.9,2.4-2.2,3.1-3.9C568.3,617.1,568.7,615,568.7,612.5z M603.2,595.1h7.4v22.7c0,2.5-0.6,4.8-1.8,6.7
	s-2.9,3.4-5.1,4.5c-2.2,1.1-4.7,1.6-7.6,1.6c-2.9,0-5.4-0.5-7.6-1.6c-2.2-1.1-3.9-2.6-5.1-4.5c-1.2-1.9-1.8-4.1-1.8-6.7v-22.7h7.4
	v22c0,1.3,0.3,2.5,0.9,3.5c0.6,1,1.4,1.8,2.5,2.4c1.1,0.6,2.3,0.9,3.7,0.9s2.7-0.3,3.7-0.9c1.1-0.6,1.9-1.4,2.5-2.4s0.9-2.2,0.9-3.5
	L603.2,595.1L603.2,595.1z M645.8,595.1V630h-6.4l-15.2-22H624v22h-7.4v-34.9h6.5l15.1,22h0.3v-22H645.8z M664.3,630h-12.4v-34.9
	h12.5c3.5,0,6.5,0.7,9.1,2.1c2.5,1.4,4.5,3.4,5.8,6c1.4,2.6,2.1,5.7,2.1,9.3s-0.7,6.8-2.1,9.4c-1.4,2.6-3.3,4.6-5.9,6
	C670.9,629.3,667.9,630,664.3,630z M659.3,623.7h4.7c2.2,0,4-0.4,5.5-1.2s2.6-2,3.4-3.6c0.8-1.6,1.1-3.8,1.1-6.4
	c0-2.6-0.4-4.7-1.1-6.3c-0.8-1.6-1.9-2.8-3.4-3.6s-3.3-1.2-5.5-1.2h-4.7V623.7z"/>
<path class="st3" d="M271.3,656.7V680h-2.7l-12.7-18.3h-0.2V680h-2.8v-23.3h2.7l12.7,18.3h0.2v-18.3H271.3z M296.5,668.4
	c0,2.5-0.4,4.6-1.3,6.4c-0.9,1.8-2.1,3.2-3.6,4.1c-1.5,1-3.3,1.5-5.3,1.5s-3.8-0.5-5.3-1.5s-2.8-2.3-3.6-4.1
	c-0.9-1.8-1.3-3.9-1.3-6.4s0.4-4.6,1.3-6.4c0.9-1.8,2.1-3.2,3.6-4.1c1.5-1,3.3-1.5,5.3-1.5s3.8,0.5,5.3,1.5s2.8,2.3,3.6,4.1
	C296.1,663.8,296.5,665.9,296.5,668.4z M293.8,668.4c0-2-0.3-3.7-1-5.1c-0.7-1.4-1.6-2.4-2.7-3.1c-1.1-0.7-2.4-1.1-3.8-1.1
	s-2.7,0.4-3.8,1.1c-1.1,0.7-2,1.8-2.7,3.1c-0.7,1.4-1,3.1-1,5.1s0.3,3.7,1,5.1c0.7,1.4,1.6,2.4,2.7,3.1c1.1,0.7,2.4,1.1,3.8,1.1
	s2.7-0.4,3.8-1.1c1.1-0.7,2-1.8,2.7-3.1C293.5,672.1,293.8,670.4,293.8,668.4z M299,659.2v-2.5h17.5v2.5h-7.3V680h-2.8v-20.8H299z
	 M320.8,680v-23.3h7.9c1.8,0,3.3,0.3,4.5,0.9c1.2,0.6,2,1.5,2.6,2.5c0.6,1.1,0.8,2.3,0.8,3.7s-0.3,2.6-0.8,3.6
	c-0.6,1.1-1.4,1.9-2.6,2.5s-2.6,0.9-4.4,0.9h-6.4v-2.5h6.3c1.2,0,2.2-0.2,3-0.5c0.8-0.4,1.3-0.9,1.7-1.5c0.3-0.7,0.5-1.5,0.5-2.4
	s-0.2-1.7-0.5-2.4s-0.9-1.2-1.7-1.6c-0.8-0.4-1.8-0.6-3-0.6h-5V680H320.8z M331.8,669.5l5.7,10.5h-3.3l-5.6-10.5H331.8z M341.3,680
	v-23.3h14v2.5h-11.2v7.9h10.5v2.5h-10.5v7.9h11.4v2.5L341.3,680L341.3,680z M376.6,680h-7.2v-23.3h7.5c2.3,0,4.2,0.5,5.8,1.4
	c1.6,0.9,2.8,2.3,3.7,4c0.9,1.7,1.3,3.8,1.3,6.2s-0.4,4.5-1.3,6.3c-0.9,1.7-2.1,3.1-3.8,4C381,679.5,379,680,376.6,680z
	 M372.3,677.5h4.2c1.9,0,3.5-0.4,4.8-1.1c1.3-0.7,2.2-1.8,2.8-3.2c0.6-1.4,0.9-3,0.9-4.9s-0.3-3.5-0.9-4.9s-1.5-2.4-2.8-3.1
	c-1.2-0.7-2.7-1.1-4.6-1.1h-4.5v18.3H372.3z M392.3,680h-3l8.5-23.3h2.9l8.5,23.3h-3l-7-19.6H399L392.3,680z M393.4,670.9h11.9v2.5
	h-11.9V670.9z M413,656.7h3.4l7.9,19.3h0.3l7.9-19.3h3.4V680h-2.6v-17.7h-0.2l-7.3,17.7h-2.5l-7.3-17.7h-0.2V680H413V656.7z
	 M441.4,680v-23.3h14v2.5h-11.2v7.9h10.5v2.5h-10.5v7.9h11.4v2.5L441.4,680L441.4,680z M488.3,664h-2.8c-0.2-0.8-0.5-1.5-0.9-2.1
	s-0.9-1.1-1.5-1.5s-1.2-0.7-1.9-1c-0.7-0.2-1.5-0.3-2.2-0.3c-1.4,0-2.7,0.4-3.8,1.1c-1.1,0.7-2,1.8-2.7,3.1c-0.7,1.4-1,3.1-1,5.1
	s0.3,3.7,1,5.1c0.7,1.4,1.6,2.4,2.7,3.1c1.1,0.7,2.4,1.1,3.8,1.1c0.8,0,1.5-0.1,2.2-0.3s1.4-0.5,1.9-0.9c0.6-0.4,1.1-0.9,1.5-1.6
	c0.4-0.6,0.7-1.3,0.9-2.1h2.8c-0.2,1.2-0.6,2.3-1.2,3.2s-1.3,1.7-2.1,2.4c-0.8,0.7-1.8,1.1-2.8,1.5c-1,0.3-2.1,0.5-3.3,0.5
	c-2,0-3.8-0.5-5.3-1.5s-2.8-2.3-3.6-4.1c-0.9-1.8-1.3-3.9-1.3-6.4s0.4-4.6,1.3-6.4c0.9-1.8,2.1-3.2,3.6-4.1c1.5-1,3.3-1.5,5.3-1.5
	c1.2,0,2.3,0.2,3.3,0.5s2,0.8,2.8,1.5s1.5,1.4,2.1,2.4C487.7,661.7,488.1,662.8,488.3,664z M512.5,668.4c0,2.5-0.4,4.6-1.3,6.4
	c-0.9,1.8-2.1,3.2-3.6,4.1c-1.5,1-3.3,1.5-5.3,1.5s-3.8-0.5-5.3-1.5s-2.8-2.3-3.6-4.1c-0.9-1.8-1.3-3.9-1.3-6.4s0.4-4.6,1.3-6.4
	c0.9-1.8,2.1-3.2,3.6-4.1c1.5-1,3.3-1.5,5.3-1.5s3.8,0.5,5.3,1.5s2.8,2.3,3.6,4.1C512,663.8,512.5,665.9,512.5,668.4z M509.8,668.4
	c0-2-0.3-3.7-1-5.1c-0.7-1.4-1.6-2.4-2.7-3.1c-1.1-0.7-2.4-1.1-3.8-1.1s-2.7,0.4-3.8,1.1c-1.1,0.7-2,1.8-2.7,3.1
	c-0.7,1.4-1,3.1-1,5.1s0.3,3.7,1,5.1c0.7,1.4,1.6,2.4,2.7,3.1c1.1,0.7,2.4,1.1,3.8,1.1s2.7-0.4,3.8-1.1c1.1-0.7,2-1.8,2.7-3.1
	C509.4,672.1,509.8,670.4,509.8,668.4z M517.2,680v-23.3h2.8v20.8h10.8v2.5H517.2z M535.2,680v-23.3h2.8v20.8h10.8v2.5H535.2z
	 M553.2,680v-23.3h14v2.5H556v7.9h10.5v2.5H556v7.9h11.4v2.5L553.2,680L553.2,680z M588.3,664c-0.2-0.8-0.6-1.5-1-2.1
	s-0.9-1.1-1.4-1.6c-0.6-0.4-1.2-0.8-1.9-1s-1.5-0.3-2.3-0.3c-1.4,0-2.6,0.4-3.8,1.1c-1.1,0.7-2,1.8-2.7,3.1c-0.7,1.4-1,3.1-1,5.1
	s0.3,3.7,1,5.1s1.6,2.4,2.7,3.1c1.2,0.7,2.4,1.1,3.9,1.1c1.3,0,2.5-0.3,3.5-0.9c1-0.6,1.8-1.4,2.4-2.4c0.6-1.1,0.9-2.3,0.9-3.7
	l0.9,0.2h-7v-2.5h8.9v2.5c0,1.9-0.4,3.6-1.2,5s-1.9,2.5-3.4,3.3c-1.4,0.8-3.1,1.2-4.9,1.2c-2.1,0-3.9-0.5-5.4-1.5
	c-1.6-1-2.8-2.3-3.6-4.1c-0.9-1.8-1.3-3.9-1.3-6.4c0-1.8,0.2-3.5,0.7-5s1.2-2.7,2.1-3.8c0.9-1,2-1.8,3.2-2.4
	c1.2-0.6,2.6-0.8,4.1-0.8c1.2,0,2.4,0.2,3.4,0.6c1.1,0.4,2,0.9,2.9,1.6c0.8,0.7,1.5,1.5,2.1,2.4s0.9,2,1.2,3.1L588.3,664L588.3,664z
	 M596.1,680v-23.3h14v2.5h-11.2v7.9h10.5v2.5h-10.5v7.9h11.4v2.5L596.1,680L596.1,680z M618.9,676.8l-0.2,1.2
	c-0.1,0.9-0.3,1.8-0.6,2.8s-0.5,1.9-0.8,2.8c-0.3,0.9-0.5,1.6-0.7,2.1h-2c0.1-0.5,0.2-1.1,0.4-1.9c0.2-0.8,0.3-1.7,0.5-2.7
	s0.3-2,0.4-3l0.1-1.3L618.9,676.8L618.9,676.8z M631.4,680h-7.2v-23.3h7.5c2.3,0,4.2,0.5,5.8,1.4s2.8,2.3,3.7,4s1.3,3.8,1.3,6.2
	s-0.4,4.5-1.3,6.3c-0.9,1.7-2.1,3.1-3.8,4C635.8,679.5,633.8,680,631.4,680z M627,677.5h4.2c1.9,0,3.5-0.4,4.8-1.1
	c1.3-0.7,2.2-1.8,2.8-3.2s0.9-3,0.9-4.9s-0.3-3.5-0.9-4.9c-0.6-1.4-1.5-2.4-2.8-3.1c-1.2-0.7-2.7-1.1-4.6-1.1H627V677.5z M647.2,680
	v-23.3h2.8v10.4h12.4v-10.4h2.8V680h-2.8v-10.4H650V680H647.2z M671.9,680h-3l8.5-23.3h2.9l8.5,23.3h-3l-7-19.6h-0.2L671.9,680z
	 M673,670.9h11.9v2.5H673V670.9z M692.5,680v-23.3h2.8v11.5h0.3l10.5-11.5h3.7l-9.8,10.5l9.8,12.8h-3.4l-8.1-10.8l-2.9,3.3v7.5
	H692.5z M714.4,680h-3l8.5-23.3h2.9l8.5,23.3h-3l-7-19.6h-0.2L714.4,680z M715.5,670.9h11.9v2.5h-11.9V670.9z"/>
<path class="st2" d="M218.2,299c0-0.6-0.5-1.2-1.2-1.2s-1.2,0.5-1.2,1.2H218.2z M215.8,299v157h2.3V299H215.8z"/>
<path class="st3" d="M218.2,559c0-0.6-0.5-1.2-1.2-1.2s-1.2,0.5-1.2,1.2H218.2z M215.8,559v157h2.3V559H215.8z"/>
<path class="st3" d="M112.1,675v30h-6v-19.5l-8,19.5h-4.6l-8.1-19.5V705h-6v-30h6.8l9.5,22.3l9.5-22.3H112.1z"/>
<path class="st3" d="M136.4,699.3h-12l-2,5.7h-6.3l10.8-30.1h7l10.8,30.1h-6.4L136.4,699.3z M134.8,694.5l-4.3-12.6l-4.3,12.6H134.8
	z"/>
<path class="st3" d="M172.7,675l-10.1,19.6V705h-6v-10.4L146.3,675h6.8l6.4,13.7l6.4-13.7H172.7z"/>
<g>
	<path class="st2" d="M65.5,325.7c4.1-6.5,11-9.7,20.5-9.7c9.6,0,16.4,3.2,20.5,9.7s6.2,15.4,6.2,26.8c0,11.5-2.1,20.5-6.2,27
		s-11,9.8-20.5,9.8c-9.6,0-16.4-3.3-20.5-9.8c-4.2-6.5-6.2-15.5-6.2-27C59.3,341.1,61.3,332.2,65.5,325.7z M98.1,340.2
		c-0.6-3.3-1.9-6.1-3.8-8.2s-4.7-3.2-8.4-3.2c-3.7,0-6.5,1.1-8.4,3.2s-3.1,4.8-3.8,8.2c-0.6,3.3-0.9,7.4-0.9,12.3
		c0,5,0.3,9.2,0.9,12.6s1.8,6.1,3.8,8.2c1.9,2.1,4.7,3.1,8.4,3.1c3.7,0,6.5-1,8.4-3.1s3.2-4.8,3.8-8.2c0.6-3.4,0.9-7.6,0.9-12.6
		C99.1,347.7,98.8,343.5,98.1,340.2z"/>
	<path class="st2" d="M127.6,373.9c6.3-5.3,11.4-9.7,15.1-13.2c3.8-3.5,6.9-7.2,9.4-11s3.8-7.6,3.8-11.3c0-3.4-0.8-6-2.4-7.9
		c-1.6-1.9-4-2.9-7.3-2.9s-5.8,1.1-7.6,3.3c-1.8,2.2-2.7,5.2-2.8,9.1h-13.5c0.3-7.9,2.6-13.9,7.1-18c4.5-4.1,10.1-6.1,17-6.1
		c7.5,0,13.3,2,17.3,6s6,9.3,6,15.8c0,5.1-1.4,10.1-4.2,14.8c-2.8,4.7-5.9,8.8-9.5,12.2c-3.6,3.5-8.2,7.6-14,12.5h29.3v11.5h-48.9
		v-10.3L127.6,373.9z"/>
	<path class="st2" d="M101.7,411.1v30h-6v-19.5l-8,19.5h-4.6L75,421.6v19.5h-6v-30h6.8l9.5,22.3l9.5-22.3H101.7z"/>
	<path class="st2" d="M126,435.4h-12l-2,5.7h-6.3l10.8-30.1h7l10.8,30.1h-6.4L126,435.4z M124.4,430.6l-4.3-12.6l-4.3,12.6H124.4z"
		/>
	<path class="st2" d="M162.3,411.1l-10.1,19.6v10.4h-6v-10.4L136,411.1h6.8l6.4,13.7l6.4-13.7H162.3z"/>
</g>
<g>
	<path class="st2" d="M78.2,70.3c4.1-6.5,11-9.7,20.5-9.7c9.6,0,16.4,3.2,20.5,9.7s6.2,15.4,6.2,26.8c0,11.5-2.1,20.5-6.2,27
		s-11,9.8-20.5,9.8c-9.6,0-16.4-3.3-20.5-9.8s-6.2-15.5-6.2-27C72,85.7,74.1,76.7,78.2,70.3z M110.9,84.8c-0.6-3.3-1.9-6.1-3.8-8.2
		s-4.7-3.2-8.4-3.2c-3.7,0-6.5,1.1-8.4,3.2s-3.1,4.8-3.8,8.2c-0.6,3.3-0.9,7.4-0.9,12.3c0,5,0.3,9.2,0.9,12.6s1.8,6.1,3.8,8.2
		c1.9,2.1,4.7,3.1,8.4,3.1c3.7,0,6.5-1,8.4-3.1s3.2-4.8,3.8-8.2c0.6-3.4,0.9-7.6,0.9-12.6C111.8,92.2,111.5,88.1,110.9,84.8z"/>
	<path class="st2" d="M134.3,74.7V61.9h23.9v72.2h-14.3V74.7H134.3z"/>
	<path class="st2" d="M103.9,155.7v30h-6v-19.5l-8,19.5h-4.6l-8.1-19.5v19.5h-6v-30H78l9.5,22.3l9.5-22.3H103.9z"/>
	<path class="st2" d="M128.3,180h-12l-2,5.7H108l10.8-30.1h7l10.8,30.1h-6.4L128.3,180z M126.6,175.2l-4.3-12.6l-4.3,12.6H126.6z"/>
	<path class="st2" d="M164.5,155.7l-10.1,19.6v10.4h-6v-10.4l-10.2-19.6h6.8l6.4,13.7l6.4-13.7H164.5z"/>
</g>
<g>
	<path class="st3" d="M71.1,590.1c4.2-6.7,11.3-10,21.2-10c9.9,0,16.9,3.3,21.2,10c4.2,6.7,6.4,15.9,6.4,27.6
		c0,11.8-2.1,21.1-6.4,27.8c-4.3,6.7-11.3,10.1-21.2,10.1c-9.9,0-16.9-3.4-21.2-10.1c-4.3-6.7-6.4-16-6.4-27.8
		C64.7,605.9,66.8,596.7,71.1,590.1z M104.7,605c-0.6-3.4-1.9-6.2-3.9-8.4c-1.9-2.2-4.8-3.3-8.6-3.3c-3.8,0-6.7,1.1-8.6,3.3
		c-1.9,2.2-3.2,5-3.9,8.4c-0.6,3.4-1,7.7-1,12.7c0,5.2,0.3,9.5,0.9,13c0.6,3.5,1.9,6.3,3.9,8.5c2,2.1,4.9,3.2,8.7,3.2
		c3.8,0,6.7-1.1,8.7-3.2c2-2.1,3.3-5,3.9-8.5c0.6-3.5,0.9-7.8,0.9-13C105.7,612.7,105.4,608.4,104.7,605z"/>
	<path class="st3" d="M150.8,641.8c1.9,1.6,4.5,2.4,7.8,2.4c4.2,0,7.3-1.8,9.2-5.3c1.9-3.5,2.9-9.4,2.9-17.7
		c-1.6,2.2-3.8,3.9-6.6,5.1c-2.8,1.2-5.9,1.8-9.1,1.8c-4.4,0-8.3-0.9-11.8-2.7c-3.5-1.8-6.3-4.5-8.3-8.1c-2-3.6-3.1-7.9-3.1-13
		c0-7.5,2.2-13.5,6.7-18c4.5-4.5,10.6-6.7,18.4-6.7c9.7,0,16.5,3.1,20.5,9.3c4,6.2,6,15.5,6,27.9c0,8.8-0.8,16.1-2.3,21.7
		c-1.5,5.6-4.1,9.9-7.9,12.9c-3.7,2.9-8.8,4.4-15.1,4.4c-5,0-9.3-1-12.9-2.9c-3.5-1.9-6.2-4.5-8.1-7.7c-1.9-3.2-2.9-6.6-3.2-10.5
		h13.3C147.7,637.9,148.9,640.2,150.8,641.8z M166.3,613.3c2-2.2,3.1-5.1,3.1-8.8c0-4-1.1-7.1-3.2-9.3c-2.1-2.2-5-3.3-8.7-3.3
		s-6.6,1.1-8.7,3.4c-2.1,2.3-3.2,5.3-3.2,9c0,3.6,1,6.5,3.1,8.8c2.1,2.3,5.2,3.4,9.3,3.4C161.5,616.6,164.3,615.5,166.3,613.3z"/>
</g>
</svg>
