<svg width="534" height="101" viewBox="0 0 534 101" fill="none" xmlns="http://www.w3.org/2000/svg">
<g clip-path="url(#clip0_2028_711)">
<path opacity="0.74" d="M512.135 0H21.8649C9.78925 0 0 9.70884 0 21.6853V79.3147C0 91.2912 9.78925 101 21.8649 101H512.135C524.211 101 534 91.2912 534 79.3147V21.6853C534 9.70884 524.211 0 512.135 0Z" fill="url(#paint0_linear_2028_711)" fill-opacity="0.5"/>
<path d="M216.416 20.3698V80.6303" stroke="white" stroke-width="2" stroke-miterlimit="10"/>
<g opacity="0.65">
<path d="M35.7712 31.641C35.6514 29.9435 35.7712 28.4922 37.0207 27.3973C37.444 27.0008 37.9467 26.6971 38.4961 26.506C39.0455 26.3148 39.6294 26.2404 40.2097 26.2876C40.79 26.3348 41.3538 26.5026 41.8644 26.7801C42.3751 27.0575 42.8211 27.4384 43.1736 27.8981C44.0294 28.9929 44.0294 30.3085 44.0294 31.6325H55.4796C55.3512 29.935 55.5395 28.2885 57.0285 27.1427C57.7893 26.5494 58.7404 26.248 59.7071 26.2939C60.3406 26.3103 60.9616 26.4721 61.5214 26.7666C62.0811 27.0612 62.5645 27.4804 62.9333 27.9914C63.7891 29.0608 63.7121 30.3255 63.7121 31.7004C64.5679 31.7004 65.4236 31.7004 66.2195 31.7004C67.4796 31.6539 68.7219 32.0063 69.7666 32.7067C70.8113 33.4071 71.6041 34.4191 72.0302 35.5961C72.2881 36.3276 72.424 37.0959 72.4324 37.8707C72.4324 47.8519 72.4324 57.8388 72.4324 67.8312C72.4613 68.6488 72.3197 69.4635 72.0165 70.2243C71.7132 70.9851 71.2547 71.6756 70.6698 72.2524C70.085 72.8293 69.3863 73.2802 68.6175 73.5768C67.8488 73.8734 67.0266 74.0094 66.2024 73.9761C55.2542 73.9761 44.3032 73.9761 33.3494 73.9761C32.5121 74.0199 31.6749 73.8889 30.8918 73.5916C30.1088 73.2942 29.3975 72.8372 28.8038 72.2499C28.2101 71.6627 27.7473 70.9585 27.4454 70.1827C27.1434 69.4069 27.009 68.5769 27.0509 67.7464C27.0509 57.8105 27.0509 47.8717 27.0509 37.9302C27.0098 37.1056 27.1424 36.2816 27.4402 35.5107C27.7381 34.7398 28.1946 34.0389 28.7808 33.4528C29.367 32.8666 30.0699 32.4081 30.8447 32.1063C31.6195 31.8046 32.4492 31.6664 33.2809 31.7004C34.0426 31.624 34.847 31.641 35.7712 31.641ZM29.4471 45.0765V45.8319C29.4471 53.0858 29.4471 60.3454 29.4471 67.6106C29.4471 70.0804 30.8848 71.5063 33.3836 71.5572C34.3678 71.5572 35.3519 71.5572 36.336 71.5572H65.8601C68.5386 71.5572 69.9678 70.1144 69.9678 67.4663V45.0765H29.4471ZM43.9952 34.1448C43.9952 34.6031 43.9952 34.9935 43.9952 35.4349C43.9469 36.4843 43.4926 37.4749 42.7267 38.2005C41.9609 38.9262 40.9424 39.3312 39.8832 39.3312C38.824 39.3312 37.8055 38.9262 37.0397 38.2005C36.2738 37.4749 35.8195 36.4843 35.7712 35.4349C35.7712 35.0275 35.7712 34.5861 35.7712 34.1702C34.5903 34.1702 33.5291 34.0939 32.4851 34.1702C31.7838 34.235 31.1231 34.5255 30.6039 34.9975C30.0848 35.4695 29.7356 36.0971 29.6097 36.7844C29.4557 38.6855 29.6097 40.6122 29.6097 42.5728H70.0876C70.0106 40.5697 70.0876 38.5922 69.8137 36.6316C69.7231 36.0362 69.4436 35.485 69.0159 35.0577C68.5881 34.6304 68.0343 34.3493 67.4347 34.2551C66.2236 34.0918 65.0028 34.0095 63.7806 34.009C63.7677 34.7874 63.7048 35.5641 63.5923 36.3345C63.3586 37.28 62.792 38.1115 61.9946 38.6792C61.1972 39.2468 60.2216 39.5131 59.2436 39.4302C58.2657 39.3472 57.3498 38.9204 56.6612 38.2267C55.9726 37.533 55.5566 36.6181 55.4882 35.6471C55.4882 35.1378 55.4882 34.6201 55.4882 34.1108L43.9952 34.1448ZM61.2389 32.9481C61.2389 32.0993 61.2389 31.2506 61.2389 30.4018C61.2894 30.1553 61.284 29.9007 61.2231 29.6565C61.1622 29.4123 61.0473 29.1846 60.8868 28.9898C60.7263 28.795 60.5241 28.6381 60.2949 28.5303C60.0657 28.4225 59.8153 28.3666 59.5616 28.3666C59.308 28.3666 59.0575 28.4225 58.8283 28.5303C58.5991 28.6381 58.3969 28.795 58.2364 28.9898C58.0759 29.1846 57.961 29.4123 57.9001 29.6565C57.8392 29.9007 57.8338 30.1553 57.8843 30.4018C57.8843 32.0484 57.8843 33.6949 57.8843 35.3415C57.8412 35.5855 57.8525 35.8359 57.9173 36.0751C57.9822 36.3143 58.099 36.5366 58.2597 36.7262C58.4203 36.9159 58.6209 37.0684 58.8473 37.173C59.0737 37.2777 59.3204 37.3319 59.5702 37.3319C59.8199 37.3319 60.0667 37.2777 60.2931 37.173C60.5195 37.0684 60.72 36.9159 60.8807 36.7262C61.0413 36.5366 61.1582 36.3143 61.223 36.0751C61.2879 35.8359 61.2991 35.5855 61.256 35.3415C61.2475 34.5013 61.2304 33.7034 61.2304 32.9056L61.2389 32.9481ZM41.5562 32.8886V31.6919C41.5562 31.293 41.5562 30.8941 41.5562 30.4952C41.5562 30.045 41.3759 29.6132 41.0549 29.2949C40.734 28.9766 40.2986 28.7977 39.8447 28.7977C39.3908 28.7977 38.9554 28.9766 38.6345 29.2949C38.3135 29.6132 38.1331 30.045 38.1331 30.4952C38.1331 32.1163 38.1331 33.7374 38.1331 35.3585C38.09 35.6025 38.1013 35.8529 38.1662 36.0921C38.231 36.3313 38.3479 36.5536 38.5085 36.7432C38.6692 36.9329 38.8697 37.0854 39.0961 37.19C39.3225 37.2947 39.5692 37.3489 39.819 37.3489C40.0688 37.3489 40.3155 37.2947 40.5419 37.19C40.7683 37.0854 40.9689 36.9329 41.1295 36.7432C41.2902 36.5536 41.407 36.3313 41.4719 36.0921C41.5367 35.8529 41.548 35.6025 41.5049 35.3585C41.6161 34.4928 41.5562 33.6695 41.5562 32.8462V32.8886Z" fill="#2F2F9E"/>
<path d="M45.4414 52.7152C45.017 52.7068 44.6047 52.5738 44.2564 52.3332C43.9082 52.0925 43.6397 51.755 43.4847 51.3631C43.3297 50.9712 43.2953 50.5425 43.3858 50.1313C43.4762 49.72 43.6875 49.3445 43.993 49.0522C44.2984 48.7599 44.6843 48.5639 45.102 48.489C45.5196 48.414 45.9503 48.4635 46.3397 48.6311C46.729 48.7987 47.0595 49.077 47.2896 49.4307C47.5196 49.7845 47.6388 50.1979 47.6321 50.6188C47.6311 50.9003 47.5732 51.1788 47.4618 51.4377C47.3504 51.6966 47.1877 51.9307 46.9834 52.1262C46.7792 52.3216 46.5375 52.4745 46.2726 52.5757C46.0077 52.6768 45.725 52.7243 45.4414 52.7152Z" fill="#2F2F9E"/>
<path d="M36.8837 52.7152C36.4594 52.7068 36.0471 52.5738 35.6988 52.3332C35.3506 52.0925 35.082 51.755 34.9271 51.3631C34.7721 50.9712 34.7377 50.5425 34.8282 50.1313C34.9186 49.72 35.1299 49.3445 35.4354 49.0522C35.7408 48.7599 36.1267 48.5639 36.5444 48.489C36.962 48.414 37.3927 48.4635 37.782 48.6311C38.1714 48.7987 38.5019 49.077 38.732 49.4307C38.962 49.7845 39.0812 50.1979 39.0745 50.6188C39.0735 50.9003 39.0156 51.1788 38.9042 51.4377C38.7927 51.6966 38.6301 51.9307 38.4258 52.1262C38.2216 52.3216 37.9798 52.4745 37.715 52.5757C37.4501 52.6768 37.1674 52.7243 36.8837 52.7152Z" fill="#2F2F9E"/>
<path d="M53.9221 56.1102C54.2261 56.0758 54.534 56.106 54.8253 56.1988C55.1167 56.2915 55.3848 56.4447 55.6119 56.6481C55.8389 56.8515 56.0198 57.1006 56.1423 57.3786C56.2649 57.6567 56.3264 57.9575 56.3227 58.2609C56.319 58.5644 56.2503 58.8636 56.121 59.1387C55.9918 59.4137 55.805 59.6584 55.5731 59.8564C55.3411 60.0543 55.0694 60.2011 54.7759 60.2869C54.4824 60.3726 54.1738 60.3955 53.8707 60.3539C53.3505 60.2825 52.8744 60.0253 52.5318 59.6305C52.1892 59.2357 52.0036 58.7304 52.0099 58.2096C52.0162 57.6887 52.214 57.1881 52.566 56.8015C52.9181 56.415 53.4002 56.1692 53.9221 56.1102Z" fill="#2F2F9E"/>
<path d="M51.7827 50.6018C51.7811 50.1825 51.9047 49.7721 52.138 49.4225C52.3713 49.0728 52.7038 48.7995 53.0936 48.6371C53.4834 48.4748 53.9129 48.4305 54.328 48.5101C54.7431 48.5896 55.1251 48.7894 55.4259 49.0841C55.7266 49.3788 55.9325 49.7552 56.0177 50.1659C56.1029 50.5766 56.0634 51.0032 55.9044 51.3917C55.7453 51.7801 55.4738 52.1132 55.1241 52.3488C54.7743 52.5843 54.362 52.7118 53.9393 52.7152C53.657 52.7197 53.3766 52.6683 53.1146 52.564C52.8526 52.4597 52.6142 52.3047 52.4133 52.1078C52.2125 51.911 52.0533 51.6765 51.945 51.4179C51.8367 51.1593 51.7816 50.8818 51.7827 50.6018Z" fill="#2F2F9E"/>
<path d="M64.4907 58.2151C64.5007 58.6376 64.3843 59.0535 64.1561 59.4104C63.9279 59.7673 63.5983 60.0492 63.2088 60.2205C62.8192 60.3917 62.3872 60.4447 61.9674 60.3727C61.5475 60.3007 61.1586 60.107 60.8496 59.816C60.5407 59.5249 60.3256 59.1496 60.2315 58.7375C60.1374 58.3253 60.1685 57.8947 60.3209 57.5001C60.4733 57.1055 60.7402 56.7645 61.0878 56.5201C61.4355 56.2758 61.8483 56.139 62.2743 56.1272C62.5582 56.1193 62.8409 56.1671 63.1062 56.2679C63.3714 56.3686 63.614 56.5204 63.8199 56.7144C64.0259 56.9084 64.1911 57.1408 64.3063 57.3984C64.4214 57.6559 64.4841 57.9334 64.4907 58.2151Z" fill="#2F2F9E"/>
<path d="M51.7829 65.9046C51.7846 65.4857 51.9113 65.0766 52.147 64.729C52.3827 64.3813 52.7169 64.1107 53.1075 63.9512C53.4981 63.7916 53.9275 63.7503 54.3418 63.8324C54.756 63.9146 55.1364 64.1165 55.4351 64.4127C55.7338 64.709 55.9373 65.0863 56.0202 65.4971C56.103 65.9079 56.0613 66.3338 55.9005 66.7212C55.7396 67.1085 55.4667 67.44 55.1162 67.6738C54.7657 67.9076 54.3533 68.0333 53.9308 68.0349C53.6478 68.0384 53.367 67.9856 53.1048 67.8797C52.8426 67.7739 52.6045 67.6171 52.4043 67.4186C52.2042 67.2201 52.0461 66.9839 51.9394 66.7239C51.8326 66.4639 51.7794 66.1853 51.7829 65.9046Z" fill="#2F2F9E"/>
<path d="M62.3943 48.4715C62.9144 48.5466 63.3889 48.8074 63.7288 49.205C64.0687 49.6026 64.2504 50.1097 64.2399 50.6308C64.2294 51.152 64.0273 51.6514 63.6717 52.0352C63.3161 52.419 62.8314 52.6608 62.3087 52.7152C62.0046 52.7468 61.6971 52.7139 61.4068 52.6187C61.1164 52.5235 60.8498 52.3682 60.6246 52.1629C60.3995 51.9577 60.2209 51.7074 60.1007 51.4285C59.9805 51.1496 59.9216 50.8485 59.9277 50.5453C59.9338 50.242 60.0049 49.9436 60.1362 49.6697C60.2675 49.3957 60.456 49.1527 60.6893 48.9565C60.9226 48.7604 61.1952 48.6158 61.4892 48.5321C61.7831 48.4485 62.0917 48.4278 62.3943 48.4715Z" fill="#2F2F9E"/>
<path d="M39.2285 58.2405C39.2318 58.6607 39.1097 59.0725 38.8776 59.424C38.6455 59.7756 38.3137 60.0513 37.924 60.2163C37.5343 60.3813 37.1041 60.4283 36.6876 60.3514C36.271 60.2745 35.8867 60.0771 35.5829 59.7841C35.2792 59.4911 35.0696 59.1156 34.9806 58.7047C34.8915 58.2939 34.927 57.8661 35.0825 57.4752C35.238 57.0842 35.5066 56.7477 35.8545 56.5078C36.2025 56.2679 36.6141 56.1355 37.0377 56.1271C37.3217 56.1226 37.6037 56.1738 37.8676 56.2777C38.1315 56.3815 38.3722 56.5361 38.5758 56.7325C38.7793 56.9288 38.9417 57.1631 39.0538 57.4219C39.1658 57.6807 39.2252 57.9589 39.2285 58.2405Z" fill="#2F2F9E"/>
<path d="M39.2286 65.9726C39.1704 66.5025 38.9139 66.9916 38.5098 67.3432C38.1058 67.6948 37.5834 67.8833 37.046 67.8716C36.5086 67.8599 35.9952 67.6487 35.6071 67.2799C35.219 66.911 34.9845 66.4112 34.9498 65.8792C34.9306 65.5845 34.9733 65.2891 35.0754 65.0117C35.1774 64.7343 35.3365 64.481 35.5425 64.2678C35.7485 64.0546 35.9969 63.8862 36.272 63.7733C36.5471 63.6604 36.8429 63.6055 37.1405 63.612C37.4382 63.6185 37.7312 63.6863 38.0011 63.811C38.2709 63.9358 38.5116 64.1149 38.708 64.3369C38.9043 64.5588 39.052 64.8189 39.1416 65.1004C39.2313 65.382 39.2609 65.679 39.2286 65.9726Z" fill="#2F2F9E"/>
<path d="M45.5186 60.3539C44.9466 60.3516 44.3985 60.1259 43.9931 59.7255C43.5878 59.3251 43.358 58.7824 43.3535 58.215C43.3552 57.7948 43.4822 57.3844 43.7185 57.0356C43.9548 56.6867 44.2899 56.415 44.6815 56.2546C45.0731 56.0942 45.5039 56.0522 45.9195 56.134C46.3351 56.2158 46.7171 56.4177 47.0173 56.7142C47.3175 57.0108 47.5226 57.3888 47.6067 57.8007C47.6908 58.2126 47.6502 58.64 47.49 59.029C47.3298 59.4181 47.0572 59.7515 46.7064 59.9872C46.3556 60.2229 45.9423 60.3505 45.5186 60.3539Z" fill="#2F2F9E"/>
<path d="M47.6065 65.9046C47.6082 66.3252 47.4842 66.7369 47.2504 67.0878C47.0165 67.4386 46.6831 67.713 46.2923 67.8762C45.9014 68.0395 45.4706 68.0844 45.0541 68.0052C44.6376 67.926 44.254 67.7263 43.9518 67.4312C43.6495 67.1362 43.4421 66.759 43.3557 66.3472C43.2692 65.9354 43.3076 65.5075 43.466 65.1173C43.6244 64.7271 43.8957 64.3922 44.2457 64.1547C44.5957 63.9172 45.0088 63.7878 45.4328 63.7827C45.7167 63.7782 45.9985 63.8298 46.2621 63.9344C46.5256 64.039 46.7655 64.1946 46.9678 64.3921C47.1701 64.5896 47.3308 64.825 47.4404 65.0847C47.5501 65.3444 47.6065 65.6231 47.6065 65.9046Z" fill="#2F2F9E"/>
</g>
<path d="M178.642 26.7947C179.675 28.0451 180.53 29.0268 181.209 29.7398C181.836 30.4256 182.539 31.0378 183.306 31.5646C183.925 32.0247 184.672 32.2854 185.445 32.3115C185.887 32.3408 186.325 32.2112 186.678 31.9465C186.832 31.8123 186.953 31.6442 187.03 31.4556C187.107 31.267 187.139 31.0631 187.123 30.8601C187.132 30.6406 187.087 30.422 186.992 30.2237C186.896 30.0253 186.753 29.8534 186.575 29.7228C186.116 29.4266 185.573 29.2838 185.026 29.3154V26.1581C185.982 26.1511 186.922 26.3909 187.756 26.8541C188.459 27.2593 189.023 27.8657 189.373 28.594C189.73 29.3448 189.908 30.1663 189.895 30.9959C189.936 31.6106 189.853 32.2271 189.652 32.8098C189.451 33.3926 189.135 33.9299 188.723 34.3909C188.318 34.779 187.837 35.0815 187.311 35.2799C186.784 35.4783 186.222 35.5686 185.659 35.5452C184.259 35.5387 182.906 35.0463 181.834 34.1532C180.555 33.1061 179.406 31.9123 178.411 30.597V35.7573H175.732V26.1666H178.18L178.642 26.7947Z" stroke="#5656BF" stroke-width="0.91" stroke-miterlimit="10"/>
<path d="M187.953 38.9147C188.551 39.4207 189.031 40.0492 189.36 40.7569C189.689 41.4647 189.859 42.2348 189.859 43.0141C189.859 43.7935 189.689 44.5636 189.36 45.2713C189.031 45.9791 188.551 46.6076 187.953 47.1135C186.376 48.0348 184.56 48.4746 182.733 48.3782C180.891 48.477 179.061 48.0372 177.47 47.1135C176.873 46.6068 176.394 45.978 176.066 45.2704C175.738 44.5628 175.568 43.7931 175.568 43.0141C175.568 42.2352 175.738 41.4655 176.066 40.7579C176.394 40.0503 176.873 39.4215 177.47 38.9147C179.059 37.9848 180.89 37.5418 182.733 37.6416C184.561 37.5431 186.379 37.9863 187.953 38.9147ZM185.728 44.754C186.047 44.5865 186.313 44.336 186.499 44.0295C186.685 43.7229 186.784 43.3719 186.784 43.0141C186.784 42.6564 186.685 42.3053 186.499 41.9988C186.313 41.6922 186.047 41.4417 185.728 41.2742C184.764 40.9518 183.749 40.8079 182.733 40.8498C182.008 40.8389 181.283 40.89 180.568 41.0026C180.055 41.0781 179.574 41.2958 179.181 41.6307C178.839 42.0116 178.65 42.504 178.65 43.0141C178.65 43.5243 178.839 44.0167 179.181 44.3976C179.575 44.7298 180.056 44.9446 180.568 45.0172C181.283 45.1298 182.008 45.1809 182.733 45.1699C183.751 45.215 184.769 45.0741 185.736 44.754H185.728Z" stroke="#5656BF" stroke-width="0.91" stroke-miterlimit="10"/>
<path d="M178.642 51.0177C179.675 52.2682 180.53 53.2527 181.209 53.9713C181.84 54.6526 182.543 55.2644 183.306 55.7961C183.928 56.2504 184.674 56.5077 185.445 56.5345C185.886 56.5618 186.321 56.4357 186.678 56.1781C186.827 56.0289 186.943 55.8507 187.019 55.6548C187.095 55.4588 187.129 55.2494 187.12 55.0396C187.11 54.8299 187.057 54.6244 186.963 54.4362C186.869 54.2479 186.737 54.081 186.575 53.9459C186.116 53.6496 185.573 53.5069 185.026 53.5385V50.3896C185.982 50.3787 186.924 50.6188 187.756 51.0856C188.462 51.4883 189.026 52.0954 189.373 52.8255C189.73 53.5733 189.908 54.3921 189.895 55.219C189.937 55.8337 189.855 56.4505 189.653 57.0333C189.452 57.6162 189.136 58.1535 188.723 58.6139C188.318 59.0021 187.837 59.3046 187.311 59.503C186.784 59.7014 186.222 59.7916 185.659 59.7682C184.259 59.7618 182.906 59.2693 181.834 58.3763C180.555 57.3291 179.406 56.1354 178.411 54.8201V59.9804H175.732V50.3896H178.18L178.642 51.0177Z" stroke="#5656BF" stroke-width="0.91" stroke-miterlimit="10"/>
<path d="M178.017 61.9325H180.678L189.39 67.9925V71.6421H180.875V73.2038H178.017V71.6421H175.518V68.3744H178.017V61.9325ZM185.762 68.5781L180.875 65.3699V68.5781H185.762Z" stroke="#5656BF" stroke-width="0.91" stroke-miterlimit="10"/>
<path d="M115.092 26.5825V50.0671H110.343V34.7898L104.002 50.0671H100.407L94.0234 34.7898V50.0671H89.2739V26.5825H94.6738L102.205 44.0411L109.735 26.5825H115.092Z" fill="black"/>
<path d="M135.041 45.5943H125.627L124.07 50.0672H119.063L127.578 26.5486H133.107L141.622 50.0672H136.607L135.041 45.5943ZM133.757 41.8259L130.334 31.9975L126.911 41.8259H133.757Z" fill="black"/>
<path d="M164.394 26.5825L156.384 41.8598V50.0417H151.634V41.8598L143.59 26.5825H148.956L154.047 37.3106L159.096 26.5825H164.394Z" fill="black"/>
<path d="M90.9424 58.3168C92.0464 56.7551 93.7921 55.9828 96.1712 55.9828C98.5502 55.9828 100.296 56.7551 101.408 58.3168C102.638 60.2145 103.236 62.4467 103.12 64.6993C103.248 66.9649 102.668 69.2144 101.46 71.1413C100.347 72.6916 98.5959 73.4697 96.2054 73.4753C93.815 73.481 92.0663 72.703 90.9596 71.1413C89.7544 69.2134 89.1777 66.964 89.3079 64.6993C89.1733 62.4553 89.7444 60.2252 90.9424 58.3168ZM98.0196 61.4572C97.8434 61.1208 97.5774 60.8389 97.2507 60.6421C96.924 60.4454 96.5491 60.3413 96.1669 60.3413C95.7847 60.3413 95.4098 60.4454 95.0831 60.6421C94.7564 60.8389 94.4904 61.1208 94.3142 61.4572C93.9679 62.5021 93.8142 63.6004 93.8606 64.6993C93.8092 65.8146 93.9599 66.93 94.3056 67.9924C94.4838 68.3304 94.7518 68.6134 95.0807 68.811C95.4096 69.0085 95.7867 69.1129 96.1712 69.1129C96.5557 69.1129 96.9328 69.0085 97.2617 68.811C97.5906 68.6134 97.8586 68.3304 98.0368 67.9924C98.3742 66.9283 98.5219 65.8139 98.4732 64.6993C98.5196 63.6004 98.3659 62.5021 98.0196 61.4572Z" fill="#5656BF"/>
<path d="M109.05 66.7788C109.971 65.9803 110.801 65.0837 111.524 64.1053C112.128 63.3543 112.478 62.4337 112.525 61.4742C112.549 61.0525 112.425 60.6356 112.174 60.2944C112.038 60.1489 111.87 60.0357 111.684 59.9631C111.497 59.8905 111.297 59.8604 111.097 59.8751C110.897 59.8897 110.704 59.9488 110.53 60.0478C110.356 60.1469 110.208 60.2834 110.094 60.4472C109.813 60.9669 109.691 61.557 109.744 62.1447H105.225C105.227 60.9252 105.545 59.7267 106.149 58.6648C106.678 57.7869 107.455 57.0817 108.383 56.6364C109.345 56.1962 110.395 55.9757 111.455 55.9913C112.24 55.9277 113.029 56.022 113.776 56.2684C114.523 56.5149 115.213 56.9085 115.802 57.4257C116.281 57.9195 116.654 58.504 116.9 59.1442C117.145 59.7844 117.258 60.4672 117.232 61.1517C117.216 62.8252 116.634 64.445 115.58 65.7518C114.414 67.2354 113.023 68.5297 111.455 69.5881H117.394V73.3396H105.276V69.8767C106.811 68.6771 108.069 67.6445 109.05 66.7788Z" fill="#5656BF"/>
<path d="M130.163 63.4772V67.322H119.397V63.4772H130.163Z" fill="#5656BF"/>
<path d="M135.391 58.3168C136.504 56.7551 138.241 55.9828 140.62 55.9828C142.999 55.9828 144.745 56.7551 145.866 58.3168C147.076 60.2213 147.659 62.4517 147.534 64.6993C147.662 66.9649 147.082 69.2144 145.874 71.1413C144.762 72.6945 143.016 73.4753 140.62 73.4753C138.224 73.4753 136.478 72.6945 135.374 71.1413C134.174 69.2114 133.597 66.9635 133.722 64.6993C133.598 62.4517 134.181 60.2213 135.391 58.3168ZM142.477 61.4572C142.299 61.1211 142.032 60.8396 141.705 60.6433C141.378 60.4469 141.002 60.3431 140.62 60.3431C140.237 60.3431 139.862 60.4469 139.535 60.6433C139.207 60.8396 138.94 61.1211 138.763 61.4572C138.42 62.5028 138.269 63.6009 138.318 64.6993C138.269 65.8139 138.417 66.9283 138.754 67.9924C138.932 68.3304 139.201 68.6134 139.529 68.811C139.858 69.0085 140.235 69.1129 140.62 69.1129C141.004 69.1129 141.382 69.0085 141.71 68.811C142.039 68.6134 142.307 68.3304 142.485 67.9924C142.823 66.9283 142.971 65.8139 142.922 64.6993C142.97 63.6009 142.82 62.5028 142.477 61.4572Z" fill="#5656BF"/>
<path d="M150.153 70.7424V66.923L157.453 56.5939H162.588V66.7278H164.419V70.7424H162.588V73.5687H157.881V70.7424H150.153ZM158.206 61.8051L154.929 66.7278H158.206V61.8051Z" fill="#5656BF"/>
<g opacity="0.65">
<path d="M259.632 26.2261C262.188 26.2449 264.708 26.8356 267.002 27.9542C269.297 29.0727 271.308 30.6904 272.884 32.6865C274.461 34.6827 275.564 37.006 276.109 39.4833C276.655 41.9607 276.63 44.5282 276.037 46.9947C275.044 51.072 273.326 54.9407 270.962 58.4188C267.693 63.3924 264.236 68.2557 260.838 73.1529C260.732 73.3748 260.567 73.5638 260.361 73.6995C260.154 73.8352 259.914 73.9125 259.667 73.9229C259.419 73.9334 259.174 73.8767 258.957 73.759C258.739 73.6412 258.558 73.4669 258.434 73.2547C254.352 67.3136 249.816 61.6949 246.453 55.3124C244.627 52.0634 243.404 48.5161 242.841 44.8389C241.703 36.1563 248.472 27.4737 257.227 26.4552C258.023 26.4043 258.827 26.3025 259.632 26.2261ZM259.58 69.9786C259.786 69.7325 259.906 69.5967 260.008 69.4524C262.062 66.5667 264.142 63.6979 266.144 60.7783C268.615 57.3522 270.669 53.6487 272.263 49.7446C273.419 47.0214 273.855 44.0502 273.529 41.113C273.049 37.611 271.245 34.4209 268.482 32.1885C265.72 29.956 262.205 28.8478 258.65 29.0884C255.094 29.3289 251.764 30.9001 249.333 33.484C246.901 36.0679 245.551 39.4714 245.554 43.0057C245.649 45.9858 246.394 48.9102 247.736 51.5779C250.774 58.2236 255.344 63.9101 259.58 69.9786Z" fill="#2F2F9E"/>
<path d="M259.529 51.3912C257.858 51.3692 256.23 50.8557 254.853 49.916C253.476 48.9762 252.411 47.6523 251.793 46.1119C251.175 44.5716 251.032 42.884 251.382 41.2628C251.731 39.6416 252.558 38.1598 253.757 37.0049C254.956 35.85 256.474 35.074 258.118 34.7751C259.763 34.4762 261.459 34.6679 262.994 35.3258C264.528 35.9838 265.831 37.0785 266.737 38.4713C267.644 39.8641 268.114 41.4923 268.087 43.1499C268.048 45.3666 267.127 47.478 265.523 49.0224C263.919 50.5668 261.764 51.4185 259.529 51.3912ZM265.237 43.0566C265.245 41.9527 264.923 40.8711 264.311 39.9489C263.7 39.0267 262.825 38.3054 261.8 37.8763C260.774 37.4473 259.643 37.3298 258.55 37.5388C257.457 37.7477 256.452 38.2738 255.66 39.0502C254.869 39.8266 254.328 40.8185 254.106 41.9002C253.883 42.9819 253.99 44.1047 254.411 45.1264C254.833 46.1481 255.551 47.0227 256.474 47.6393C257.397 48.256 258.484 48.587 259.597 48.5904C261.082 48.5882 262.506 48.0064 263.562 46.9708C264.617 45.9351 265.219 44.529 265.237 43.0566Z" fill="#2F2F9E"/>
</g>
<path d="M308.702 43.5403H305.193L297.251 31.658V43.5403H293.743V26.1836H297.251L305.193 38.0659V26.1836H308.693L308.702 43.5403Z" fill="black"/>
<path d="M316.318 42.5728C314.965 41.8284 313.842 40.7344 313.066 39.407C312.276 38.0112 311.861 36.4373 311.861 34.8366C311.861 33.2358 312.276 31.6619 313.066 30.2661C313.842 28.9387 314.965 27.8447 316.318 27.1003C317.702 26.35 319.255 25.9568 320.832 25.9568C322.41 25.9568 323.962 26.35 325.346 27.1003C326.691 27.846 327.806 28.9403 328.573 30.2661C329.352 31.6653 329.762 33.2378 329.762 34.8366C329.762 36.4353 329.352 38.0079 328.573 39.407C327.802 40.7356 326.681 41.8303 325.329 42.5728C323.948 43.3247 322.399 43.7188 320.824 43.7188C319.248 43.7188 317.699 43.3247 316.318 42.5728ZM323.601 39.8993C324.412 39.4208 325.066 38.7191 325.483 37.8793C325.952 36.9291 326.184 35.8813 326.159 34.8238C326.186 33.7716 325.954 32.7289 325.483 31.7853C325.065 30.9504 324.411 30.2543 323.601 29.7823C322.757 29.3058 321.798 29.0653 320.828 29.0864C319.847 29.0713 318.881 29.3175 318.029 29.7993C317.216 30.2708 316.559 30.9668 316.138 31.8023C315.672 32.7472 315.44 33.789 315.462 34.8408C315.442 35.8979 315.674 36.9447 316.138 37.8963C316.561 38.7304 317.218 39.4259 318.029 39.8993C318.88 40.3842 319.847 40.6307 320.828 40.6122C321.801 40.6321 322.76 40.3854 323.601 39.8993Z" fill="black"/>
<path d="M344.815 26.2091V29.0099H340.16V43.5404H336.651V29.0099H331.996V26.2091H344.815Z" fill="black"/>
<path d="M356.933 43.5403L353.082 36.7504H351.404V43.5403H347.904V26.209H354.46C355.64 26.1775 356.812 26.4186 357.883 26.9135C358.769 27.3286 359.513 27.9926 360.022 28.8232C360.527 29.6261 360.802 30.5504 360.818 31.4967C360.84 32.657 360.456 33.7891 359.73 34.6993C359.004 35.6096 357.982 36.2416 356.839 36.4873L361.015 43.5148L356.933 43.5403ZM351.422 34.2042H354.357C354.74 34.234 355.126 34.1886 355.491 34.0707C355.857 33.9527 356.195 33.7645 356.488 33.5167C356.727 33.2645 356.912 32.9666 357.031 32.6412C357.15 32.3158 357.201 31.9696 357.181 31.624C357.202 31.2846 357.152 30.9446 357.032 30.6258C356.913 30.3071 356.727 30.0168 356.488 29.7737C355.89 29.2897 355.127 29.0526 354.357 29.1117H351.404L351.422 34.2042Z" fill="black"/>
<path d="M368.024 29.0099V33.3554H373.911V36.1138H368.024V40.7055H374.664V43.5403H364.523V26.1836H374.664V29.0099H368.024Z" fill="black"/>
<path d="M395.905 27.2531C397.259 27.9314 398.381 28.9914 399.131 30.3001C399.913 31.7008 400.306 33.2825 400.269 34.8833C400.308 36.4761 399.915 38.0501 399.131 39.441C398.376 40.7371 397.254 41.7848 395.905 42.454C394.4 43.1914 392.739 43.5582 391.061 43.5234H384.951V26.2091H391.061C392.736 26.1704 394.397 26.5283 395.905 27.2531ZM395.143 39.1354C395.666 38.5732 396.069 37.912 396.327 37.1915C396.586 36.471 396.696 35.7061 396.649 34.9427C396.695 34.1715 396.586 33.3989 396.327 32.6702C396.069 31.9415 395.666 31.2713 395.143 30.699C394.575 30.1645 393.902 29.7528 393.165 29.4899C392.429 29.2269 391.645 29.1184 390.864 29.1712H388.382V40.6207H390.864C391.642 40.6741 392.422 40.57 393.157 40.3146C393.893 40.0592 394.569 39.658 395.143 39.1354Z" fill="black"/>
<path d="M414.124 40.2387H407.167L406.011 43.5403H402.332L408.621 26.1836H412.703L419.01 43.5403H415.305L414.124 40.2387ZM413.174 37.4379L410.65 30.1896L408.082 37.4379H413.174Z" fill="black"/>
<path d="M440.944 26.2091V43.5404H437.444V32.2691L432.763 43.5404H430.135L425.429 32.2691V43.5404H421.92V26.2091H425.856L431.428 39.1354L436.99 26.2515L440.944 26.2091Z" fill="black"/>
<path d="M448.457 29.0099V33.3554H454.345V36.1138H448.457V40.7055H455.098V43.5403H444.949V26.1836H455.098V29.0099H448.457Z" fill="black"/>
<path d="M294.068 60.0653C294.821 58.7484 295.922 57.6598 297.252 56.9164C298.632 56.153 300.19 55.7637 301.77 55.7876C303.595 55.7494 305.387 56.2679 306.905 57.2729C308.369 58.2666 309.454 59.7193 309.986 61.3978H305.955C305.596 60.6152 304.997 59.9648 304.243 59.539C303.476 59.1114 302.607 58.8946 301.727 58.911C300.771 58.8926 299.828 59.1395 299.006 59.6239C298.212 60.1013 297.57 60.7931 297.158 61.6185C296.718 62.5676 296.49 63.5997 296.49 64.6442C296.49 65.6887 296.718 66.7208 297.158 67.67C297.57 68.5002 298.211 69.1977 299.006 69.6815C299.832 70.1576 300.773 70.4012 301.727 70.3859C302.607 70.4023 303.476 70.1855 304.243 69.7579C304.993 69.3197 305.59 68.6654 305.955 67.8821H309.986C309.462 69.5647 308.379 71.0216 306.913 72.0155C305.478 72.9175 303.828 73.4251 302.13 73.4862C300.432 73.5473 298.749 73.1599 297.252 72.3635C295.922 71.6235 294.822 70.5377 294.068 69.2232C293.304 67.8159 292.904 66.2425 292.904 64.6442C292.904 63.0459 293.304 61.4726 294.068 60.0653Z" fill="black"/>
<path d="M317.174 72.372C315.821 71.6276 314.697 70.5335 313.922 69.2062C313.136 67.8088 312.724 66.2355 312.724 64.6357C312.724 63.0359 313.136 61.4626 313.922 60.0653C314.702 58.7418 315.825 57.6489 317.174 56.8995C318.559 56.1529 320.111 55.7618 321.688 55.7618C323.265 55.7618 324.816 56.1529 326.202 56.8995C327.546 57.6497 328.663 58.7427 329.437 60.0653C330.217 61.4644 330.626 63.037 330.626 64.6357C330.626 66.2345 330.217 67.807 329.437 69.2062C328.667 70.5348 327.545 71.6295 326.194 72.372C324.81 73.1208 323.259 73.5132 321.684 73.5132C320.108 73.5132 318.557 73.1208 317.174 72.372ZM324.465 69.7069C325.276 69.2272 325.928 68.5219 326.339 67.6785C326.808 66.7286 327.04 65.6805 327.015 64.623C327.04 63.5709 326.808 62.5284 326.339 61.5845C325.925 60.7498 325.273 60.0536 324.465 59.5815C323.609 59.1246 322.652 58.8855 321.679 58.8855C320.707 58.8855 319.75 59.1246 318.894 59.5815C318.081 60.053 317.424 60.7489 317.003 61.5845C316.534 62.5199 316.299 63.5533 316.318 64.5975C316.293 65.6551 316.524 66.7031 316.994 67.653C317.41 68.5005 318.068 69.2086 318.885 69.69C319.74 70.152 320.697 70.3941 321.671 70.3941C322.644 70.3941 323.602 70.152 324.456 69.69L324.465 69.7069Z" fill="black"/>
<path d="M337.25 70.5896H343.009V73.3396H333.75V56.0083H337.25V70.5896Z" fill="black"/>
<path d="M349.299 70.5896H355.059V73.3396H345.791V56.0083H349.299V70.5896Z" fill="black"/>
<path d="M361.34 58.8177V63.1632H367.228V65.9216H361.34V70.5388H367.981V73.3651H357.832V55.9829H367.981V58.8177H361.34Z" fill="black"/>
<path d="M383.924 61.2026C383.551 60.4894 382.977 59.8994 382.272 59.5051C381.514 59.116 380.669 58.9206 379.816 58.9365C378.851 58.9176 377.899 59.1581 377.06 59.6324C376.254 60.1025 375.601 60.7917 375.178 61.6185C374.716 62.5439 374.484 63.5653 374.502 64.5976C374.476 65.649 374.714 66.6902 375.195 67.6276C375.602 68.4853 376.257 69.2034 377.077 69.69C377.948 70.1689 378.932 70.4091 379.927 70.386C381.114 70.4358 382.28 70.0625 383.213 69.3335C384.107 68.5752 384.711 67.5356 384.925 66.3884H378.934V63.7488H388.408V66.7788C388.168 67.9951 387.653 69.1415 386.902 70.1314C386.118 71.1718 385.102 72.0173 383.932 72.6012C382.673 73.2337 381.278 73.5541 379.867 73.5348C378.271 73.5585 376.696 73.1695 375.297 72.406C373.957 71.6718 372.846 70.5852 372.088 69.2656C371.324 67.8583 370.924 66.285 370.924 64.6867C370.924 63.0884 371.324 61.515 372.088 60.1077C372.846 58.7859 373.957 57.6965 375.297 56.9589C376.798 56.1702 378.479 55.7829 380.176 55.835C381.874 55.8871 383.528 56.3768 384.976 57.256C386.418 58.2029 387.481 59.62 387.98 61.262L383.924 61.2026Z" fill="black"/>
<path d="M394.997 58.8177V63.1632H400.885V65.9216H394.997V70.5388H401.63V73.3651H391.489V55.9829H401.63V58.8177H394.997Z" fill="black"/>
<path d="M409.195 69.6899L406.268 76.6751H404.009L405.643 69.6899H409.195Z" fill="black"/>
<path d="M429.741 57.0778C431.097 57.7508 432.22 58.8085 432.968 60.1163C433.753 61.5162 434.148 63.0979 434.114 64.6994C434.15 66.2931 433.754 67.8672 432.968 69.2572C432.214 70.5565 431.092 71.6072 429.741 72.2787C428.236 73.0134 426.575 73.3774 424.898 73.3396H418.788V56.0084H424.898C426.576 55.9736 428.237 56.3404 429.741 57.0778ZM429.031 68.9007C429.554 68.3368 429.956 67.6739 430.213 66.9519C430.47 66.2299 430.578 65.4637 430.529 64.6994C430.576 63.9289 430.467 63.1568 430.21 62.4282C429.953 61.6996 429.552 61.0291 429.031 60.4558C428.462 59.9226 427.789 59.5117 427.053 59.2488C426.316 58.986 425.533 58.8767 424.752 58.928H422.271V70.3775H424.752C425.529 70.431 426.309 70.3278 427.044 70.0739C427.78 69.8201 428.456 69.421 429.031 68.9007Z" fill="#5656BF"/>
<path d="M451.786 56.0083V73.3396H448.286V65.964H440.798V73.3396H437.29V56.0083H440.798V63.1377H448.286V56.0083H451.786Z" fill="#5656BF"/>
<path d="M466.514 70.038H459.548L458.376 73.3396H454.696L460.977 55.9829H465.059L471.349 73.3396H467.644L466.514 70.038ZM465.564 67.2627L462.997 60.0059L460.429 67.2627H465.564Z" fill="#5656BF"/>
<path d="M484.143 73.3396L477.785 65.616V73.3396H474.276V56.0083H477.785V63.7488L484.143 55.9744H488.37L481.165 64.5976L488.576 73.3396H484.143Z" fill="#5656BF"/>
<path d="M502.148 70.038H495.174L494.027 73.3396H490.347L496.629 55.9829H500.711L507 73.3396H503.286L502.148 70.038ZM501.164 67.2627L498.597 60.0059L496.029 67.2627H501.164Z" fill="#5656BF"/>
</g>
<defs>
<linearGradient id="paint0_linear_2028_711" x1="0" y1="50.5" x2="534" y2="50.5" gradientUnits="userSpaceOnUse">
<stop stop-color="#A3A4EF"/>
</linearGradient>
<clipPath id="clip0_2028_711">
<rect width="534" height="101" fill="white"/>
</clipPath>
</defs>
</svg>
